<?xml version="1.0" encoding="utf-8"?>
<!-- Generator: Adobe Illustrator 28.3.0, SVG Export Plug-In . SVG Version: 6.00 Build 0)  -->
<svg version="1.1" id="Layer_1" xmlns="http://www.w3.org/2000/svg" xmlns:xlink="http://www.w3.org/1999/xlink" x="0px" y="0px"
	 viewBox="0 0 292.1 125.9" style="enable-background:new 0 0 292.1 125.9;" xml:space="preserve">
<style type="text/css">
	.st0{fill:url(#SVGID_1_);}
	.st1{fill:url(#SVGID_00000167382654769630327620000004298673776196110208_);}
	.st2{fill:url(#SVGID_00000060712780825941768760000003340294705411192980_);}
	.st3{fill:url(#SVGID_00000156546528272682745590000011813772907149996202_);}
	.st4{fill:url(#SVGID_00000085947973581584487330000005669397537391328910_);}
	.st5{fill:url(#SVGID_00000019666234139986164420000017659778083633439933_);}
	.st6{fill:url(#SVGID_00000056409645332112443850000000309291215081805968_);}
	.st7{fill:url(#SVGID_00000017479833488121121330000011296997864068940955_);}
	.st8{fill:url(#SVGID_00000006672731519410984040000016349713364851774121_);}
	.st9{fill:url(#SVGID_00000128465782753033287080000003278240378147433139_);}
	.st10{fill:url(#SVGID_00000005948205412627923580000003933456133067745980_);}
	.st11{fill:url(#SVGID_00000134956888250344369500000006860246862972600462_);}
	.st12{fill:url(#SVGID_00000000199650521109291600000010037520967281328280_);}
	.st13{fill:url(#SVGID_00000158020699774250504100000008968938669104179883_);}
	.st14{fill:url(#SVGID_00000006693959785699345770000013326193110469026702_);}
	.st15{fill:url(#SVGID_00000006672125356241233190000005511350427691403151_);}
	.st16{fill:url(#SVGID_00000179635658517548534350000006886756552612920764_);}
	.st17{fill:url(#SVGID_00000048467437760391326320000007545443429698832062_);}
	.st18{fill:url(#SVGID_00000019647557114607392020000000988705113362936222_);}
	.st19{fill:url(#SVGID_00000034053270325273259060000004268055497532494998_);}
	.st20{fill:url(#SVGID_00000058556668244556847150000017858021911084841098_);}
	.st21{fill:url(#SVGID_00000073709243542340309590000001141828270067300765_);}
	.st22{fill:url(#SVGID_00000027573349797239837460000007246251702362485150_);}
	.st23{fill:url(#SVGID_00000075161907759480368570000016004511901093427627_);}
	.st24{fill:url(#SVGID_00000033338238745266426610000007172128564296101761_);}
</style>
<g>
	<g>
		
			<linearGradient id="SVGID_1_" gradientUnits="userSpaceOnUse" x1="101.21" y1="77.9748" x2="169.77" y2="77.9748" gradientTransform="matrix(1 0 0 -1 0 125.8898)">
			<stop  offset="0" style="stop-color:#8D6739"/>
			<stop  offset="0.5798" style="stop-color:#E7DB94"/>
			<stop  offset="0.6946" style="stop-color:#D2BF7E"/>
			<stop  offset="0.9411" style="stop-color:#9B7845"/>
			<stop  offset="0.9988" style="stop-color:#8E6737"/>
		</linearGradient>
		<path class="st0" d="M169.7,40.2c-0.3,0.1-0.5,0.1-0.8,0.2l0,0c0,0-0.1,0-0.1,0c0,0,0,0,0,0c0,0,0,0,0,0s0,0,0,0
			c-0.1,0-0.1,0-0.2,0c0,0,0,0,0,0c-2.8,0.8-5.7,1.4-8.6,1.4c0,0,0,0,0,0l0,0l0,0c-0.3,0-0.7,0-1,0c0,0,0,0-0.1,0l0,0
			c-3.1-0.2-6.2-0.4-9.2-0.8c0,0,0,0-0.1,0c0,0,0,0,0,0c-1.2-0.1-2.4-0.2-3.6-0.2l0,0l0,0l0,0c-2.4,0-4.8,0.4-7.1,1.7c0,0,0,0,0,0
			c0,0-0.1,0-0.1,0.1l0,0c-1.1,0.6-2.2,1.1-2.9,2.2l0,0c0.3,0,0.5-0.1,0.7-0.2c0,0,0.1,0,0.1,0c0,0,0,0,0,0c0,0,0.1,0,0.1,0
			c0,0,0,0,0,0c2.1-1,4.4-1.5,6.8-1.5c0,0,0,0,0,0l0,0l0,0c0.1,0,0.2,0,0.3,0l0,0c2.9,0.1,5.9,0.2,8.8,0.4c1.5,0.1,3,0.2,4.6,0.2
			c0,0.1,0.1,0.1,0.1,0.2l0,0c-1.6,0.5-3.2,1.1-4.9,1.5c-4.8,1.2-9.6,1.3-14.5,1.7c-4.2,0.3-8.5,0.6-12.7,1
			c-6.4,0.7-12.7,2.2-18.6,4.7c-1.8,0.8-3.6,1.7-5.4,2.5l0,0c0.1,0.1,0.1,0.2,0.2,0.3c0.2-0.1,0.4-0.2,0.6-0.2
			c3.9-1.3,7.7-2.7,11.7-3.7c7.2-1.9,14.7-2.4,22.1-2.7c3.5-0.1,7-0.3,10.5-0.5c5.7-0.4,10.9-2,15.8-5c0.5-0.3,1.1-0.5,1.6-0.7
			c1.5-0.5,3-1,4.5-1.5c0.5-0.2,1-0.5,1.5-0.8l0,0C169.7,40.4,169.7,40.3,169.7,40.2"/>
		
			<linearGradient id="SVGID_00000106115516848808309990000018347691679102445212_" gradientUnits="userSpaceOnUse" x1="156.8" y1="104.0848" x2="181.98" y2="104.0848" gradientTransform="matrix(1 0 0 -1 0 125.8898)">
			<stop  offset="0" style="stop-color:#8D6739"/>
			<stop  offset="0.5798" style="stop-color:#E7DB94"/>
			<stop  offset="0.6946" style="stop-color:#D2BF7E"/>
			<stop  offset="0.9411" style="stop-color:#9B7845"/>
			<stop  offset="0.9988" style="stop-color:#8E6737"/>
		</linearGradient>
		<path style="fill:url(#SVGID_00000106115516848808309990000018347691679102445212_);" d="M157,7.4c-0.1,0.2-0.1,0.2-0.1,0.3
			c0,0.5-0.1,1.1-0.1,1.6c0,3.5,1,6.7,3.2,9.6c2.6,3.3,6,5.4,9.4,7.5c2.8,1.8,5.7,3.6,8.3,5.5c1.6,1.2,2.8,2.8,4.2,4.1l0,0
			c-0.1-1.5-0.8-2.9-1.7-4.2c-2.1-2.7-4.9-4.6-7.6-6.7c-3-2.3-6.1-4.6-8.9-7.1c-3.1-2.7-5.4-6.1-6.4-10.2
			C157.2,7.8,157.1,7.7,157,7.4"/>
		
			<linearGradient id="SVGID_00000060750741809092969000000010438334550578186390_" gradientUnits="userSpaceOnUse" x1="157.78" y1="99.6598" x2="178.18" y2="99.6598" gradientTransform="matrix(1 0 0 -1 0 125.8898)">
			<stop  offset="0" style="stop-color:#8D6739"/>
			<stop  offset="0.5798" style="stop-color:#E7DB94"/>
			<stop  offset="0.6946" style="stop-color:#D2BF7E"/>
			<stop  offset="0.9411" style="stop-color:#9B7845"/>
			<stop  offset="0.9988" style="stop-color:#8E6737"/>
		</linearGradient>
		<path style="fill:url(#SVGID_00000060750741809092969000000010438334550578186390_);" d="M157.9,17.3c-0.1,0.1-0.1,0.2-0.1,0.3v0
			c0.4,2.8,1.3,5.3,3.2,7.4c2.1,2.2,4.7,3.4,7.4,4.7c2.5,1.2,5,2.4,7.4,3.7c0.8,0.5,1.5,1.2,2.3,1.8l0,0c-0.1-0.5-0.2-1-0.5-1.4
			c-1.2-1.9-3-3.1-4.9-4.2c-2.4-1.4-4.8-2.7-7.1-4.1c-3.1-1.9-5.8-4.4-7.4-7.7C158.2,17.6,158,17.5,157.9,17.3"/>
		
			<linearGradient id="SVGID_00000139987667964659676950000014803081699079229854_" gradientUnits="userSpaceOnUse" x1="150.29" y1="92.8898" x2="170.9176" y2="92.8898" gradientTransform="matrix(1 0 0 -1 0 125.8898)">
			<stop  offset="0" style="stop-color:#8D6739"/>
			<stop  offset="0.5798" style="stop-color:#E7DB94"/>
			<stop  offset="0.6946" style="stop-color:#D2BF7E"/>
			<stop  offset="0.9411" style="stop-color:#9B7845"/>
			<stop  offset="0.9988" style="stop-color:#8E6737"/>
		</linearGradient>
		<path style="fill:url(#SVGID_00000139987667964659676950000014803081699079229854_);" d="M150.4,27.7c-0.1,0.2-0.1,0.5-0.1,0.7
			c0,0.2,0,0.5,0.1,0.7c0.8,5.1,3.8,8.2,8.9,8.9l0,0c1.4,0.2,2.8,0.3,4.1,0.3l0,0l0,0l0,0c1.5,0,2.9-0.1,4.4-0.2l0,0
			c0.1,0,0.1,0,0.2,0l0,0c0.1,0,0.1,0,0.1,0c0.9,0,1.8-0.1,2.7-0.2c0-0.1,0-0.2,0-0.2l0,0c-0.2-0.1-0.5-0.2-0.7-0.2
			c-3-0.5-6-1-9-1.3c-4.2-0.5-7.6-2.2-9.6-6.2C151.2,29.2,150.8,28.5,150.4,27.7"/>
		
			<linearGradient id="SVGID_00000095315904680425337530000002907375875076558253_" gradientUnits="userSpaceOnUse" x1="158.19" y1="96.8098" x2="176.72" y2="96.8098" gradientTransform="matrix(1 0 0 -1 0 125.8898)">
			<stop  offset="0" style="stop-color:#8D6739"/>
			<stop  offset="0.5798" style="stop-color:#E7DB94"/>
			<stop  offset="0.6946" style="stop-color:#D2BF7E"/>
			<stop  offset="0.9411" style="stop-color:#9B7845"/>
			<stop  offset="0.9988" style="stop-color:#8E6737"/>
		</linearGradient>
		<path style="fill:url(#SVGID_00000095315904680425337530000002907375875076558253_);" d="M158.2,21.8c0,0.1,0,0.1,0,0.2
			c0,0,0,0.1,0,0.1c0.8,4.5,3.6,7.2,7.6,8.9c2.2,0.9,4.4,1.7,6.6,2.7c1.4,0.7,2.7,1.6,4.4,2.6c-0.6-0.9-1.1-1.7-1.7-2.3
			c-1.5-1.5-3.4-2.4-5.3-3.3c-3.2-1.5-6.3-3-8.8-5.5C159.9,24.2,159.1,23,158.2,21.8"/>
		
			<linearGradient id="SVGID_00000177446209385383044880000005590519381460124839_" gradientUnits="userSpaceOnUse" x1="139.16" y1="85.8998" x2="171.85" y2="85.8998" gradientTransform="matrix(1 0 0 -1 0 125.8898)">
			<stop  offset="0" style="stop-color:#8D6739"/>
			<stop  offset="0.5798" style="stop-color:#E7DB94"/>
			<stop  offset="0.6946" style="stop-color:#D2BF7E"/>
			<stop  offset="0.9411" style="stop-color:#9B7845"/>
			<stop  offset="0.9988" style="stop-color:#8E6737"/>
		</linearGradient>
		<path style="fill:url(#SVGID_00000177446209385383044880000005590519381460124839_);" d="M171.5,38.4L171.5,38.4
			c-0.1,0-0.2,0-0.3,0l0,0c-2.5,0.5-5,1.2-7.6,1.4c0,0-0.1,0-0.1,0c-1.1,0.1-2.2,0.1-3.4,0.1l0,0l0,0l0,0c-2.8,0-5.6-0.3-8.3-0.8
			c-0.1,0-0.2,0-0.3-0.1l0,0c-1.4-0.2-2.7-0.4-4.1-0.4l0,0l0,0l0,0c-1.2,0-2.5,0.1-3.8,0.5l0,0c-1.7,0.4-3.1,1.2-4.5,2.2
			c0,0.1,0.1,0.1,0.1,0.2c0.3-0.1,0.6-0.3,0.9-0.4c1.5-0.4,3-1,4.5-1.2c0,0,0,0,0,0c0,0,0,0,0,0c0.9-0.1,1.8-0.2,2.7-0.2l0,0l0,0
			c0,0,0,0,0,0c2.7,0,5.4,0.5,8,1c0.1,0,0.1,0,0.1,0l0,0c0,0,0.1,0,0.1,0c0,0,0,0,0,0c1.6,0.2,3.3,0.4,4.9,0.4l0,0l0,0l0,0
			c3,0,5.9-0.5,8.8-1.6c0.8-0.3,1.6-0.7,2.4-1.1l0,0h0c0,0,0,0,0,0C171.7,38.4,171.6,38.4,171.5,38.4L171.5,38.4L171.5,38.4"/>
		
			<linearGradient id="SVGID_00000050628906412856014060000016523770007711296655_" gradientUnits="userSpaceOnUse" x1="147.13" y1="92.1548" x2="163.28" y2="92.1548" gradientTransform="matrix(1 0 0 -1 0 125.8898)">
			<stop  offset="0" style="stop-color:#8D6739"/>
			<stop  offset="0.5798" style="stop-color:#E7DB94"/>
			<stop  offset="0.6946" style="stop-color:#D2BF7E"/>
			<stop  offset="0.9411" style="stop-color:#9B7845"/>
			<stop  offset="0.9988" style="stop-color:#8E6737"/>
		</linearGradient>
		<path style="fill:url(#SVGID_00000050628906412856014060000016523770007711296655_);" d="M147.3,28.1c-0.1,0.5-0.1,1.1-0.1,1.6
			c0,3.5,1.8,6.7,5.4,8.3c2.6,1.1,5.3,1.3,8.1,1.4c0,0,0.1,0,0.1,0c0.3,0,0.6,0,0.9,0l0,0l0,0l0,0c0.3,0,0.6,0,0.8,0s0.6,0,0.8,0
			l0,0c0-0.1,0-0.2,0-0.3c-0.9-0.2-1.9-0.4-2.9-0.5c-1.7-0.3-3.4-0.4-5.1-0.8c-3.9-1.1-6.4-3.8-7.5-7.6
			C147.6,29.4,147.4,28.7,147.3,28.1"/>
		
			<linearGradient id="SVGID_00000028294858619251054040000015769456486856990633_" gradientUnits="userSpaceOnUse" x1="163.15" y1="84.6048" x2="191.16" y2="84.6048" gradientTransform="matrix(1 0 0 -1 0 125.8898)">
			<stop  offset="0" style="stop-color:#8D6739"/>
			<stop  offset="0.5798" style="stop-color:#E7DB94"/>
			<stop  offset="0.6946" style="stop-color:#D2BF7E"/>
			<stop  offset="0.9411" style="stop-color:#9B7845"/>
			<stop  offset="0.9988" style="stop-color:#8E6737"/>
		</linearGradient>
		<path style="fill:url(#SVGID_00000028294858619251054040000015769456486856990633_);" d="M185.4,38.5L185.4,38.5
			c-1.6,0-3.2,0.2-4.8,0.6l0,0c-3.8,0.9-7.4,2-11.2,3c-2.1,0.6-4.2,1.2-6.3,1.8c0,0.1,0,0.1,0,0.2c0.4,0,0.7,0,1.1-0.1
			c4.9-1.2,9.7-2.4,14.6-3.5c2.2-0.5,4.5-0.7,6.7-0.8c0.4,0,0.8,0,1.2,0l0,0l0,0c0,0,0,0,0,0c1.1,0,2.1,0.1,3.2,0.1h0c0,0,0,0,0.1,0
			s0,0,0.1,0c0.1,0,0.1,0,0.1,0c0.1,0,0.2,0,0.3,0c0.1,0,0.1,0,0.2,0c0,0,0,0,0,0l0,0c0.1,0,0.1,0,0.2,0c0.1,0,0.1,0,0.2,0l0,0l0,0
			c0,0-0.1-0.1-0.2-0.2c-0.4-0.2-0.7-0.3-1.1-0.4C188.4,38.7,186.9,38.5,185.4,38.5C185.4,38.5,185.4,38.5,185.4,38.5L185.4,38.5"/>
		
			<linearGradient id="SVGID_00000118396130409181257970000017772572304126144699_" gradientUnits="userSpaceOnUse" x1="158.77" y1="94.3048" x2="173.82" y2="94.3048" gradientTransform="matrix(1 0 0 -1 0 125.8898)">
			<stop  offset="0" style="stop-color:#8D6739"/>
			<stop  offset="0.5798" style="stop-color:#E7DB94"/>
			<stop  offset="0.6946" style="stop-color:#D2BF7E"/>
			<stop  offset="0.9411" style="stop-color:#9B7845"/>
			<stop  offset="0.9988" style="stop-color:#8E6737"/>
		</linearGradient>
		<path style="fill:url(#SVGID_00000118396130409181257970000017772572304126144699_);" d="M158.8,26.7c0.1,0.3,0.1,0.5,0.2,0.8
			c0.9,2.6,2.9,4.1,5.3,5.1c3.2,1.3,6.6,2,9.6,3.9c-0.4-0.6-0.7-1.2-1.3-1.5c-1.6-0.9-3.3-1.7-5-2.5C164.3,31.1,161,29.8,158.8,26.7
			"/>
		
			<linearGradient id="SVGID_00000055705610963601260570000001436742041258419633_" gradientUnits="userSpaceOnUse" x1="182.5919" y1="88.8248" x2="192.4119" y2="88.8248" gradientTransform="matrix(1 0 0 -1 0 125.8898)">
			<stop  offset="0" style="stop-color:#8D6739"/>
			<stop  offset="0.5798" style="stop-color:#E7DB94"/>
			<stop  offset="0.6946" style="stop-color:#D2BF7E"/>
			<stop  offset="0.9411" style="stop-color:#9B7845"/>
			<stop  offset="0.9988" style="stop-color:#8E6737"/>
		</linearGradient>
		<path style="fill:url(#SVGID_00000055705610963601260570000001436742041258419633_);" d="M186.6,34.2c-0.1,0-0.2,0.1-0.3,0.1
			c0.2,0.9,0.4,1.8,0.6,2.8l0,0l0,0c-1.4-0.3-2.9-0.6-4.4-1c1,1.1,2.3,1.7,3.6,1.8c2.1,0.2,4.2,0.3,5.9,2c0.1-0.1,0.2-0.2,0.3-0.3
			c-0.5-0.7-1-1.4-1.6-1.9c-0.7-0.5-1.1-1.1-1.4-1.9c-0.1-0.2-0.2-0.4-0.3-0.6c-0.1,0-0.1,0-0.2,0c0,0.5,0.1,1.1,0.1,1.8l0,0l0,0
			C187.5,36.7,187.3,35.2,186.6,34.2"/>
		
			<linearGradient id="SVGID_00000119799389637030852190000018212122266756384150_" gradientUnits="userSpaceOnUse" x1="164.66" y1="90.6498" x2="171.4628" y2="90.6498" gradientTransform="matrix(1 0 0 -1 0 125.8898)">
			<stop  offset="0" style="stop-color:#8D6739"/>
			<stop  offset="0.5798" style="stop-color:#E7DB94"/>
			<stop  offset="0.6946" style="stop-color:#D2BF7E"/>
			<stop  offset="0.9411" style="stop-color:#9B7845"/>
			<stop  offset="0.9988" style="stop-color:#8E6737"/>
		</linearGradient>
		<path style="fill:url(#SVGID_00000119799389637030852190000018212122266756384150_);" d="M165.3,33.6
			C165.3,33.6,165.3,33.6,165.3,33.6c-0.1,0-0.2,0-0.2,0c0,0,0,0-0.1,0c-0.1,0-0.1,0-0.2,0c0,0-0.1,0-0.1,0h0l0,0l0,0c0,0,0,0,0,0
			s0,0,0,0l0,0c0.1,0.4,0.1,0.8,0.3,1.2c0.2,0.3,0.6,0.7,0.9,0.8c1.1,0.4,2.3,0.8,3.4,1.1c0.6,0.2,1.4,0.2,2,0.2
			c0-0.1,0.1-0.2,0.1-0.3c-0.4-0.3-0.7-0.7-1.2-0.9c-1.5-0.7-3-1.4-4.5-2.1l0,0h0C165.6,33.6,165.5,33.6,165.3,33.6L165.3,33.6
			L165.3,33.6"/>
	</g>
	
		<linearGradient id="SVGID_00000177471100328229240060000008021720589950950077_" gradientUnits="userSpaceOnUse" x1="151.47" y1="51.9048" x2="153.8471" y2="51.9048" gradientTransform="matrix(1 0 0 -1 0 125.8898)">
		<stop  offset="0" style="stop-color:#8D6739"/>
		<stop  offset="0.5798" style="stop-color:#E7DB94"/>
		<stop  offset="0.6946" style="stop-color:#D2BF7E"/>
		<stop  offset="0.9411" style="stop-color:#9B7845"/>
		<stop  offset="0.9988" style="stop-color:#8E6737"/>
	</linearGradient>
	<path style="fill:url(#SVGID_00000177471100328229240060000008021720589950950077_);" d="M153.9,74.1l-0.1-0.6h-2.3
		c0,0,1.3,0,1.5,0.7c0.2,0.7,0.7-0.3,0.7-0.3L153.9,74.1z"/>
	<g>
		
			<linearGradient id="SVGID_00000086693062464422117120000014951826538132163492_" gradientUnits="userSpaceOnUse" x1="36.1163" y1="44.1598" x2="261.4167" y2="44.1598" gradientTransform="matrix(1 0 0 -1 0 125.8898)">
			<stop  offset="0" style="stop-color:#8D6739"/>
			<stop  offset="0.5798" style="stop-color:#E7DB94"/>
			<stop  offset="0.6946" style="stop-color:#D2BF7E"/>
			<stop  offset="0.9411" style="stop-color:#9B7845"/>
			<stop  offset="0.9988" style="stop-color:#8E6737"/>
		</linearGradient>
		<path style="fill:url(#SVGID_00000086693062464422117120000014951826538132163492_);" d="M30.8,70.2L30.8,70.2
			c-2.2,0-4.5,0.4-6.8,1.2l0,0c-2.8,1-4.9,2.9-6.1,5.7c-0.5,1.2-0.7,2.4-0.7,3.7c0,4.1,2.5,8.3,7.1,9.4c0.5,0.1,1,0.2,1.5,0.2
			c0-0.1,0-0.2,0.1-0.3l0,0c-0.3-0.1-0.5-0.2-0.8-0.3c-0.6-0.2-1.2-0.4-1.8-0.8c-3.1-2-4.4-4.8-4.4-8.1c0-0.5,0-1,0.1-1.5
			c0.5-3.9,2.8-6.5,6.4-7.8l0,0c0,0,0,0,0,0c1.7-0.6,3.4-0.8,5.1-0.8l0,0l0,0l0,0c0.8,0,1.6,0.1,2.4,0.1c0,0,0,0,0,0
			c0,0,0.1,0,0.1,0l0,0c2.5,0.3,4.7,1.2,6.6,2.8c2.4,2.2,3.7,5.3,3.7,8.6c0,1.5-0.3,3-0.9,4.5c-1.1,2.8-2.9,5-6,5.7c0,0,0,0-0.1,0
			c0,0,0,0,0,0c0,0,0,0,0,0c-1.1,0.2-2.2,0.2-3.3,0.2c0,0,0,0,0,0l0,0l0,0c-0.2,0-0.5,0-0.8,0c-0.1,0-0.2,0-0.3,0l0,0
			c-1.5,0-1.9-0.5-1.9-2c0-2.7,0-5.3,0-8c0-1.8,0-3.7,0-5.5c0-0.8,0-1.7,0-2.5l0,0c0-0.1,0-0.3,0-0.4s0-0.3,0-0.4
			c0-0.2-0.2-0.4-0.3-0.4c-0.5,0-1.1,0-1.6,0l0,0l0,0l0,0c-0.2,0-0.4,0-0.7,0s-0.5,0-0.7,0l0,0c0.1,0.2,0.1,0.3,0.2,0.3
			c1.6,0.3,1.6,0.3,1.6,1.9c0,2.4,0,4.7,0,7.1c0,1.5,0,3,0,4.4c0,0.9,0,1.8,0,2.7c0,0,0,0,0,0.1c0,2.2,0,2.3-2.1,3.2l0,0
			c0.5,0.1,0.7,0.2,1,0.2c0,0,0.1,0,0.1,0c1.4,0,2.8,0,4.1,0l0,0l0,0l0,0c1,0,2,0,3,0c2.7-0.1,5.1-1,7-3c2-2.2,3.1-5.1,3.1-8
			c0-4.2-2.1-8.4-6.4-10.4C35.9,70.7,33.4,70.2,30.8,70.2L30.8,70.2L30.8,70.2"/>
		
			<linearGradient id="SVGID_00000149351157894246697640000016212774457502232460_" gradientUnits="userSpaceOnUse" x1="36.1163" y1="42.6398" x2="261.4167" y2="42.6398" gradientTransform="matrix(1 0 0 -1 0 125.8898)">
			<stop  offset="0" style="stop-color:#8D6739"/>
			<stop  offset="0.5798" style="stop-color:#E7DB94"/>
			<stop  offset="0.6946" style="stop-color:#D2BF7E"/>
			<stop  offset="0.9411" style="stop-color:#9B7845"/>
			<stop  offset="0.9988" style="stop-color:#8E6737"/>
		</linearGradient>
		<path style="fill:url(#SVGID_00000149351157894246697640000016212774457502232460_);" d="M84.9,73.4L84.9,73.4
			c-0.6,0-0.9,0.2-1.2,0.8c0,0,0,0,0,0c-2.3,4.8-4.6,9.5-7,14.3c-0.2,0.4-0.4,0.7-0.6,1.3c-0.2-0.5-0.4-0.8-0.6-1.1
			c-2.4-4.8-4.8-9.6-7.3-14.4c-0.2-0.3-0.4-0.8-0.7-0.8c-0.4,0-0.8-0.1-1.3-0.1l0,0l0,0l0,0c-0.2,0-0.5,0-0.8,0c-0.3,0-0.5,0-0.8,0
			c0,0.1,0,0.1,0,0.2l0,0c0.2,0.1,0.3,0.1,0.5,0.1c1.1,0.1,1.3,0.3,1.4,1.4c0,0.2,0,0.4,0,0.7c0,0,0,0.1,0,0.1l0,0
			c0,2.2,0,4.3,0,6.5c0,2.8,0,5.6,0,8.3c0,0.3,0,0.6,0,0.8l0,0c0,0,0,0,0,0s0,0,0,0c-0.1,0.7-0.4,1.2-1.2,1.2l0,0l0,0l0,0
			c0,0,0,0,0,0s0,0,0,0l0,0l0,0h0h0l0,0l0,0h0c-0.2,0-0.4,0.1-0.5,0.1c0,0,0,0,0,0s0,0,0,0c0,0,0,0,0,0c0,0,0,0,0,0l0,0l0,0
			c0,0.1,0,0.1,0,0.2c1.4,0,2.9,0,4.3,0l0,0c-0.1-0.2-0.2-0.2-0.2-0.3c-1.6-0.3-1.6-0.3-1.6-1.9c0-1.8,0-3.6,0-5.3c0-3,0-5.9,0-8.9
			c0-0.3,0-0.5,0-0.8c0.3,0.2,0.4,0.5,0.6,0.7c2.3,4.7,4.7,9.3,7.1,14c0.2,0.3,0.4,0.5,0.7,0.8c0.2-0.2,0.5-0.5,0.6-0.8
			c2.3-4.7,4.6-9.5,6.9-14.2c0.1-0.2,0.2-0.3,0.5-0.7c0,1.8,0,3.6,0,5.3c0,0,0,0,0,0.1s0,0,0,0.1s0,0,0,0.1s0,0,0,0.1
			c0,0.7,0,1.4,0,2.1c0,0.1,0,0.2,0,0.2c0,1.2,0,2.5,0,3.8c0,1.3,0,2.7,0,4c0,1.2-0.2,1.4-1.4,1.6c-0.2,0-0.4,0.1-0.5,0.1l0,0
			c0,0,0,0.1,0,0.1c1.7,0,3.5,0,5.2,0l0,0c-0.1-0.2-0.2-0.2-0.3-0.2c-1.6-0.2-1.6-0.3-1.6-1.8c0-2.2,0-4.4,0-6.6c0-1.3,0-2.7,0-4
			l0,0c0-0.9,0-1.9,0-2.8c0-0.8,0-1.6,0-2.3c0-1,0.3-1.3,1.3-1.4c0.2,0,0.4-0.1,0.7-0.1l0,0c0-0.1,0-0.2,0-0.2c-0.2,0-0.4,0-0.6,0
			c-0.2,0-0.4,0-0.6,0l0,0l0,0l0,0c-0.2,0-0.4,0-0.7,0c0,0,0,0,0,0h0c0,0,0,0,0,0l0,0h0h0C85,73.4,84.9,73.4,84.9,73.4L84.9,73.4
			L84.9,73.4"/>
		
			<linearGradient id="SVGID_00000171707186673920728060000013208461476647941823_" gradientUnits="userSpaceOnUse" x1="36.1163" y1="42.6098" x2="261.4167" y2="42.6098" gradientTransform="matrix(1 0 0 -1 0 125.8898)">
			<stop  offset="0" style="stop-color:#8D6739"/>
			<stop  offset="0.5798" style="stop-color:#E7DB94"/>
			<stop  offset="0.6946" style="stop-color:#D2BF7E"/>
			<stop  offset="0.9411" style="stop-color:#9B7845"/>
			<stop  offset="0.9988" style="stop-color:#8E6737"/>
		</linearGradient>
		<path style="fill:url(#SVGID_00000171707186673920728060000013208461476647941823_);" d="M208.8,73.8L208.8,73.8L208.8,73.8
			c0,0,0.1,0,0.1,0c0,0,0,0,0,0l0,0c1.8,0.1,3.6,0,5.4,0.2c3,0.2,5.1,1.8,6.3,4.4c0.8,1.7,1.2,3.4,1.2,5.1c0,2.2-0.7,4.3-2.1,6.3
			c-1.5,2.1-3.8,2.9-6.3,3c-0.6,0-1.1,0-1.7,0l0,0l0,0l0,0l0,0c-0.5,0-0.9,0-1.4,0c-0.1,0-0.1,0-0.1,0s-0.1,0-0.1,0l0,0
			c-1.5-0.1-2-0.5-2-2.1c0-1.1,0-2.1,0-3.2c0-1.6,0-3.1,0-4.7l0,0l0,0c0-1.5,0-3,0-4.4c0-1.2,0-2.3,0-3.5l0,0v0
			C207.8,74.1,208.1,73.8,208.8,73.8L208.8,73.8L208.8,73.8 M210.5,73.4C210.5,73.4,210.5,73.4,210.5,73.4c-0.9,0-1.7,0-2.5,0
			c-0.4,0-0.9,0-1.3,0c-0.3,0-0.6,0-0.9,0c-0.1,0-0.2,0-0.4,0c-0.3,0-0.6,0.1-0.9,0.1l0,0c1.8,0.8,1.9,0.8,1.9,2.8c0,0,0,0.1,0,0.1
			c0,4.6,0,9.2,0,13.8c0,2.1,0,2.1-2,2.9l0,0c0.3,0.1,0.4,0.1,0.5,0.1c0.9,0,1.8,0,2.7,0c0.9,0,1.8,0,2.7,0l0,0l0,0l0,0
			c1.2,0,2.5,0,3.7-0.1c0.1,0,0.1,0,0.2,0l0,0c2.4-0.1,4.5-1,6.2-2.7c1.9-2,2.7-4.5,2.7-7.2c0-0.1,0-0.2,0-0.3
			c-0.1-5.3-4.1-9.4-9.5-9.5C212.6,73.4,211.6,73.4,210.5,73.4L210.5,73.4L210.5,73.4"/>
		
			<linearGradient id="SVGID_00000180367188588916729500000010031074157072238753_" gradientUnits="userSpaceOnUse" x1="36.1163" y1="42.5648" x2="261.4167" y2="42.5648" gradientTransform="matrix(1 0 0 -1 0 125.8898)">
			<stop  offset="0" style="stop-color:#8D6739"/>
			<stop  offset="0.5798" style="stop-color:#E7DB94"/>
			<stop  offset="0.6946" style="stop-color:#D2BF7E"/>
			<stop  offset="0.9411" style="stop-color:#9B7845"/>
			<stop  offset="0.9988" style="stop-color:#8E6737"/>
		</linearGradient>
		<path style="fill:url(#SVGID_00000180367188588916729500000010031074157072238753_);" d="M97.8,73.7L97.8,73.7
			C97.8,73.7,97.8,73.7,97.8,73.7c4.9,0,8,3.4,8.9,7.2v0c0,0.1,0,0.1,0,0.1c0,0,0,0,0,0c0,0,0,0,0,0c0.2,0.9,0.3,1.9,0.4,2.8l0,0
			l0,0c0,3-0.9,5.5-3.3,7.3c-1.4,1.1-3.1,1.6-4.8,1.6l0,0l0,0l0,0l0,0c-2.8,0-5.6-1.3-7.3-3.8c0,0,0-0.1-0.1-0.1
			c-1.4-2-2.1-4.2-2.1-6.4c0-1.4,0.3-2.9,0.9-4.3c1.2-2.9,3.5-4.4,6.7-4.6c0,0,0,0,0,0C97.3,73.7,97.5,73.7,97.8,73.7L97.8,73.7
			L97.8,73.7 M98.1,73C98.1,73,98.1,73,98.1,73c-2.4,0-4.6,0.7-6.4,2.4c0,0-0.1,0.1-0.1,0.1c-2.2,2.2-3.2,4.7-3.2,7.6
			c0,0.8,0.1,1.6,0.2,2.4l0,0c0.9,5.4,5.2,8.3,9.7,8.3l0,0l0,0l0,0c1.5,0,3-0.3,4.4-1c3.9-1.8,5.5-5.2,5.6-9.8l0,0
			c-0.1-0.6-0.1-1.7-0.4-2.7c-1.2-4.3-4.1-6.8-8.6-7.2C98.9,73,98.5,73,98.1,73L98.1,73L98.1,73"/>
		
			<linearGradient id="SVGID_00000137128871002047801010000017434486968854859702_" gradientUnits="userSpaceOnUse" x1="36.1163" y1="42.4548" x2="261.4167" y2="42.4548" gradientTransform="matrix(1 0 0 -1 0 125.8898)">
			<stop  offset="0" style="stop-color:#8D6739"/>
			<stop  offset="0.5798" style="stop-color:#E7DB94"/>
			<stop  offset="0.6946" style="stop-color:#D2BF7E"/>
			<stop  offset="0.9411" style="stop-color:#9B7845"/>
			<stop  offset="0.9988" style="stop-color:#8E6737"/>
		</linearGradient>
		<path style="fill:url(#SVGID_00000137128871002047801010000017434486968854859702_);" d="M184.6,73.3L184.6,73.3
			c-0.4,0-0.9,0.1-1.3,0.2c0,0,0,0-0.1,0c0,0,0,0,0,0l0,0l0,0c1.9,0.7,1.9,0.7,1.9,2.5c0,3.6,0,7.2,0,10.8c0,1.2,0,2.4,0,3.6
			c0,1.9-0.1,1.9-1.8,2.5c0,0,0,0.1,0,0.1l0,0c1.4,0,2.8,0,4.1,0l0,0c-1.8-0.7-1.8-0.7-1.8-2.7c0,0,0,0,0,0c0-0.4,0-0.9,0-1.3
			c0-1.9,0-3.8,0-5.6c0-2.3,0-4.6,0-6.9c0-0.3,0-0.6,0.1-0.9c0.1,0,0.1,0,0.2,0c4.6,6,9.2,12.1,13.8,18.1c0.1-0.1,0.2-0.1,0.3-0.1
			c0-0.3,0.1-0.7,0.1-1c0-0.8,0-1.7,0-2.6c0-4.6,0-9.2,0-13.8c0-0.1,0-0.1,0-0.2c0-1.7,0.1-1.7,1.7-2.1c0,0,0-0.1,0.1-0.2l0,0
			c-1.4,0-2.8,0-4.3,0l0,0c0.1,0.2,0.1,0.2,0.2,0.2c1.6,0.3,1.7,0.4,1.7,2c0,2.1,0,4.1,0,6.2c0,2.7,0,5.3,0,7.9c0,0.3,0,0.6-0.1,1.1
			c-0.6-0.8-1.1-1.5-1.6-2.2c-3.5-4.7-7.1-9.3-10.6-13.9l0,0c0,0,0,0,0-0.1C186.5,73.8,185.7,73.3,184.6,73.3L184.6,73.3L184.6,73.3
			"/>
		
			<linearGradient id="SVGID_00000093167004427174836240000013557032949216766892_" gradientUnits="userSpaceOnUse" x1="36.1163" y1="42.6048" x2="261.4167" y2="42.6048" gradientTransform="matrix(1 0 0 -1 0 125.8898)">
			<stop  offset="0" style="stop-color:#8D6739"/>
			<stop  offset="0.5798" style="stop-color:#E7DB94"/>
			<stop  offset="0.6946" style="stop-color:#D2BF7E"/>
			<stop  offset="0.9411" style="stop-color:#9B7845"/>
			<stop  offset="0.9988" style="stop-color:#8E6737"/>
		</linearGradient>
		<path style="fill:url(#SVGID_00000093167004427174836240000013557032949216766892_);" d="M264.8,73.1
			C264.8,73.1,264.8,73.1,264.8,73.1c-0.6,0-1.2,0-1.8,0.1c0,0,0,0,0,0c-5.9,0.8-9,5.2-9,9.9c0,1.8,0.4,3.6,1.4,5.3l0,0
			c1.8,3.4,5.5,5.2,9.1,5.2l0,0l0,0l0,0c2.8,0,5.6-1,7.8-3.1c0,0,0,0,0,0c0,0,0,0,0,0s0,0,0,0s0,0,0,0c0.3-0.3,0.4-0.7,0.5-1.1
			c0-0.5,0-0.9,0-1.4c0-0.6,0-1.2,0-1.7c0,0,0,0,0-0.1c0-1.5,0.1-1.6,1.5-1.8c0.2,0,0.3-0.1,0.5-0.1l0,0c0-0.1,0-0.1,0-0.2
			c-1.8,0-3.6,0-5.3,0l0,0c0.1,0.2,0.2,0.2,0.4,0.3c1.4,0.3,1.6,0.4,1.6,1.9c0,0.1,0,0.2,0,0.3c0,0.6,0,1.2,0,1.8c0,0.4,0,0.9,0,1.3
			c0,0,0,0.1,0,0.1c0,0.7-0.3,1.1-0.9,1.4c0,0,0,0,0,0c0,0,0,0,0,0c0,0,0,0,0,0c-1.8,1-3.6,1.5-5.3,1.5l0,0l0,0l0,0
			c-1.8,0-3.6-0.5-5.3-1.6c0,0,0,0,0,0c0,0,0,0,0,0c0,0,0,0,0,0l0,0c-3.1-2-4.4-4.9-4.4-8.3c0-0.6,0-1.1,0.1-1.7
			c0.2-1.8,1-3.5,2.4-4.8l0,0c0,0,0,0,0,0c0,0,0,0,0,0l0,0c1.9-1.7,4.2-2.5,6.6-2.5l0,0l0,0l0,0c2.6,0,5.3,1,7.2,3
			c0,0,0,0.1,0.1,0.1c0.2,0.2,0.3,0.6,0.5,0.8c0.1-0.1,0.2-0.2,0.4-0.3c0.1-0.4,0.2-0.7,0.2-0.9c0-0.5-0.3-0.8-0.9-1.2l0,0
			c0,0,0,0,0,0c0,0,0,0,0,0c0,0,0,0,0,0C269.5,73.8,267.2,73.1,264.8,73.1L264.8,73.1L264.8,73.1"/>
		
			<linearGradient id="SVGID_00000055688475388126767640000017778866609060101273_" gradientUnits="userSpaceOnUse" x1="36.1163" y1="40.5248" x2="261.4167" y2="40.5248" gradientTransform="matrix(1 0 0 -1 0 125.8898)">
			<stop  offset="0" style="stop-color:#8D6739"/>
			<stop  offset="0.5798" style="stop-color:#E7DB94"/>
			<stop  offset="0.6946" style="stop-color:#D2BF7E"/>
			<stop  offset="0.9411" style="stop-color:#9B7845"/>
			<stop  offset="0.9988" style="stop-color:#8E6737"/>
		</linearGradient>
		<path style="fill:url(#SVGID_00000055688475388126767640000017778866609060101273_);" d="M156,73.5c-1.3,0-2.6,0-3.8,0l0,0
			c0.9,0.4,0.9,1.2,0.9,1.9c0,0,0,0.1,0,0.1c0,0,0,0,0,0.1c0,2.2,0,4.5,0,6.7c0,2.9,0,5.7,0,8.6c0,0,0,0,0,0c0,0.1,0,0.2,0,0.2
			c0,0.4,0,0.9-0.2,1.2c-0.2,0.4-0.8,0.5-1.2,0.8l0,0c0.1,0,0.3,0,0.4,0c0.1,0,0.3,0,0.4,0l0,0l0,0l0,0c0.1,0,0.2,0,0.3,0
			c0.1,0,0.1,0,0.1,0l0,0l0,0c0,0,0.1,0,0.1,0c0.2,0,0.3,0,0.5,0l0,0l0,0c0,0,0,0,0,0c2.9,0,5.6,0.6,8.4,1.4l0,0
			c2.7,0.8,5.4,1.7,8.2,2.2l0,0c0,0,0,0,0.1,0c0,0,0,0,0,0c0,0,0,0,0,0s0,0,0,0c1.1,0.2,2.2,0.3,3.4,0.4l0,0l0,0l0,0
			c1.8,0,3.6-0.3,5.2-1.2c1.1-0.6,2-1.2,3.1-2.2l0,0c-0.1-0.1,0.1,0.1,0,0c-0.2,0.1-0.4,0.2-0.6,0.3c-2.4,1.4-4.4,1.7-6.9,1.8l0,0
			c-0.2,0-0.4,0-0.6,0l0,0l0,0l0,0c-3.4,0-6.6-0.8-9.9-1.6c0,0,0,0,0,0c0,0,0,0,0,0c-0.1,0-0.2,0-0.3-0.1c0,0,0,0,0,0
			c-0.1,0-0.2,0-0.2-0.1c0,0,0,0-0.1,0s-0.1,0-0.1,0l0,0c-2.3-0.5-4.6-0.9-6.9-1.2c-1.4-0.2-1.7-0.3-1.9-1.7c0-0.3-0.1-0.6-0.1-0.8
			c0-2.6,0-5.2,0-7.8c0-2.2,0-4.3,0-6.5C154.4,75,154.3,73.6,156,73.5L156,73.5"/>
		
			<linearGradient id="SVGID_00000086665210394174502240000015588229560043183278_" gradientUnits="userSpaceOnUse" x1="36.1163" y1="42.6148" x2="261.4167" y2="42.6148" gradientTransform="matrix(1 0 0 -1 0 125.8898)">
			<stop  offset="0" style="stop-color:#8D6739"/>
			<stop  offset="0.5798" style="stop-color:#E7DB94"/>
			<stop  offset="0.6946" style="stop-color:#D2BF7E"/>
			<stop  offset="0.9411" style="stop-color:#9B7845"/>
			<stop  offset="0.9988" style="stop-color:#8E6737"/>
		</linearGradient>
		<path style="fill:url(#SVGID_00000086665210394174502240000015588229560043183278_);" d="M59.1,73.4L59.1,73.4L59.1,73.4
			L59.1,73.4L59.1,73.4c-1.9,0-3.8,0-5.8,0l0,0l0,0l0,0c-0.8,0-1.6,0-2.4,0c-0.1,0-0.2,0-0.4,0l0,0l0,0c-0.5,0-0.9,0-1.4,0
			s-0.9,0-1.4,0c0,0,0,0,0,0l0,0l0,0c-0.2,0-0.4,0-0.6,0c-0.2,0-0.4,0-0.6,0c-0.3,0-0.5,0.1-0.8,0.1l0,0c0.1,0.2,0.2,0.3,0.3,0.3
			c1.6,0.3,1.6,0.3,1.6,1.9c0,2.6,0,5.1,0,7.7s0,5.1,0,7.7c0,1.6,0,1.6-1.6,1.9c-0.1,0-0.2,0.1-0.3,0.1l0,0c0.3,0.2,0.6,0.2,1,0.2
			c1.1,0,2.2,0,3.4,0c1.1,0,2.2,0,3.3,0l0,0l0,0l0,0c1.6,0,3.3,0,4.9,0c0.1,0,0.1,0,0.2,0l0,0c0.1,0,0.2,0,0.2,0l0,0l0,0l0,0
			c0.3,0,0.5,0,0.7,0c0,0,0,0,0.1,0c0.1,0,0.2,0,0.2,0c0.1,0,0.2,0,0.3,0l0,0l0,0l0,0c1.1,0,0.8-0.2,1.5-2.3c0,0,0,0,0,0
			c0,0,0,0,0,0s0,0,0,0l0,0c0.2-0.7,0.4-1.5,0.7-2.2l0,0c-0.1,0-0.2-0.1-0.3-0.1c-0.2,0.4-0.3,0.8-0.5,1.2c-0.3,0.7-0.5,1.4-1,2.1
			c-0.2,0.4-0.8,0.7-1.2,0.8c-3,0.1-6,0.2-9,0.2h0l0,0l0,0c-1,0-1.3-0.4-1.3-1.4c0-0.9,0-1.8,0-2.7c0-0.6,0-1.2,0-1.8
			c0-1,0-2.1,0-3.1c0,0,0,0,0,0c0-0.6,0.2-0.8,0.7-0.8l0,0l0,0l0,0c0,0,0,0,0,0l0,0l0,0c0.4,0,0.8,0,1.1,0c0.1,0,0.1,0,0.2,0l0,0
			c0.2,0,0.3,0,0.5,0c0.1,0,0.2,0,0.2,0c0.1,0,0.2,0,0.3,0c0.3,0,0.7,0,1,0l0,0c0,0,0.1,0,0.1,0c1,0,2,0.1,2.6,1.2l0,0
			c0-1,0-1.9,0-2.9c0,0,0,0,0,0c-0.4,1-1.2,1.1-2.1,1.1c0,0,0,0,0,0l0,0l0,0c0,0-0.1,0-0.1,0s-0.1,0-0.1,0l0,0l0,0
			c-0.3,0-0.6,0-0.9,0c-0.3,0-0.6,0-0.9,0l0,0l0,0l0,0c-0.4,0-0.9,0-1.3,0c0,0-0.1,0-0.2,0l0,0h0c0,0-0.1,0-0.1,0c0,0-0.1,0-0.1,0
			l0,0c0,0,0,0-0.1,0l0,0l0,0l0,0c-0.6,0-0.8-0.2-0.8-0.8c0,0,0,0,0,0c0-1.1,0-2.2,0-3.4c0-1.2,0-2.4,0-3.6c0,0,0,0,0,0
			c0-0.6,0.2-0.8,0.8-0.8l0,0l0,0l0,0h0h0l0,0c1.5,0,2.9,0,4.4,0l0,0l0,0l0,0c0.9,0,1.8,0,2.7,0c0.1,0,0.2,0,0.4,0l0,0c0,0,0,0,0,0
			l0,0l0,0l0,0c1.5,0,2.4,0.7,2.9,2.1c0,0,0,0,0,0.1c0.2,0.7,0.5,1.4,0.8,2.1c0.1,0,0.2-0.1,0.3-0.1l0,0c-0.3-1.2-0.7-2.4-1-3.6v0
			c0,0,0,0,0-0.1C60.2,73.6,59.8,73.4,59.1,73.4L59.1,73.4L59.1,73.4"/>
		
			<linearGradient id="SVGID_00000039812587060807475760000016295956365701510547_" gradientUnits="userSpaceOnUse" x1="36.1163" y1="42.6198" x2="261.4167" y2="42.6198" gradientTransform="matrix(1 0 0 -1 0 125.8898)">
			<stop  offset="0" style="stop-color:#8D6739"/>
			<stop  offset="0.5798" style="stop-color:#E7DB94"/>
			<stop  offset="0.6946" style="stop-color:#D2BF7E"/>
			<stop  offset="0.9411" style="stop-color:#9B7845"/>
			<stop  offset="0.9988" style="stop-color:#8E6737"/>
		</linearGradient>
		<path style="fill:url(#SVGID_00000039812587060807475760000016295956365701510547_);" d="M177.4,73.4L177.4,73.4L177.4,73.4
			L177.4,73.4c-4.1,0-8.2,0-12.4,0c-0.2,0-0.4,0-0.7,0.1l0,0c1.6,0.4,1.8,0.7,1.8,2.3c0,0.5,0,0.9,0,1.4c0,2,0,4.1,0,6.1
			c0,0.2,0,0.3,0,0.5c0,1.2,0,2.5,0,3.8s0,2.5,0,3.8c0,1.1-0.3,1.4-1.4,1.7c-0.1,0-0.3,0.1-0.5,0.1l0,0c0,0.1,0,0.1,0,0.1
			c0.7,0,1.4,0,2.2,0s1.4,0,2.2,0l0,0l0,0l0,0c1.7,0,3.4,0,5.1,0c0.1,0,0.2,0,0.3,0c1.6,0,3.2,0,4.8,0c0.2,0,0.5-0.1,0.6-0.3
			c0.5-1.4,0.9-2.8,1.3-4.2l0,0c-0.1,0-0.2-0.1-0.2-0.1c-0.1,0.3-0.2,0.6-0.4,0.9c-0.3,0.7-0.6,1.4-0.9,2.1s-0.9,1-1.6,1.1
			c-0.8,0.1-1.6,0.1-2.5,0.2c-0.3,0-0.6,0-0.9,0c-0.7,0-1.4,0-2.1,0l0,0l0,0l0,0c-1,0-2,0-3,0c-0.1,0-0.1,0-0.1,0l0,0
			c-1.1,0-1.5-0.3-1.5-1.2c0-1.1,0-2.3,0-3.4c0-0.5,0-1.1,0-1.6c0-0.9,0-1.9,0-2.8v0c0-0.6,0.2-0.8,0.8-0.8l0,0l0,0h0l0,0h0l0,0
			c0,0,0,0,0,0l0,0c0.2,0,0.4,0,0.6,0c0.1,0,0.1,0,0.2,0l0,0c0.2,0,0.4,0,0.6,0c0,0,0.1,0,0.1,0l0,0c0.2,0,0.4,0,0.5,0l0,0
			c0,0,0.1,0,0.1,0c0,0,0.1,0,0.1,0c0.1,0,0.2,0,0.3,0c0,0,0,0,0.1,0c0,0,0,0,0.1,0l0,0l0,0l0,0c0.1,0,0.1,0,0.1,0
			c0.1,0,0.1,0,0.1,0l0,0c0,0,0,0,0.1,0c0,0,0.1,0,0.1,0c0.1,0,0.1,0,0.1,0l0,0l0,0l0,0c0.9,0,1.8,0.1,2.5,1.1c0,0,0,0,0,0
			c0,0,0,0,0,0s0,0,0,0c0,0,0,0,0,0c0,0,0,0,0,0l0,0l0,0l0,0c0-1,0-1.7,0-2.4c-0.6,0.3-1.2,0.7-1.8,0.7c-1.3,0.1-2.5,0.1-3.8,0.1
			l0,0h0l0,0c-0.1,0-0.1,0-0.1,0c0,0,0,0,0,0l0,0l0,0c-0.9,0-0.9-0.1-0.9-1.1c0-2.3,0-4.7-0.1-7.1c0,0,0,0,0,0
			c0-0.6,0.3-0.6,0.8-0.6c0.1,0,0.2,0,0.3,0c0.1,0,0.2,0,0.3,0c0,0,0,0,0,0l0,0h0c0.2,0,0.4,0,0.6,0c0.2,0,0.4,0,0.7,0l0,0l0,0
			c0.2,0,0.5,0,0.7,0s0.5,0,0.7,0l0,0l0,0c0,0,0,0,0,0c1.4,0,2.8,0,4.2,0c0.1,0,0.1,0,0.2,0c1.2,0,2.2,0.5,2.6,1.8
			c0.2,0.6,0.5,1.3,0.7,1.9c0.1,0.2,0.2,0.3,0.3,0.5c0.1,0,0.1-0.1,0.2-0.1l0,0c-0.4-1.2-0.7-2.4-1-3.6l0,0c0,0,0,0,0,0v0
			c0,0,0,0,0,0C178.5,73.6,178.1,73.4,177.4,73.4L177.4,73.4L177.4,73.4"/>
		
			<linearGradient id="SVGID_00000027587200033985484160000008782849877098040994_" gradientUnits="userSpaceOnUse" x1="36.1163" y1="45.0848" x2="261.4167" y2="45.0848" gradientTransform="matrix(1 0 0 -1 0 125.8898)">
			<stop  offset="0" style="stop-color:#8D6739"/>
			<stop  offset="0.5798" style="stop-color:#E7DB94"/>
			<stop  offset="0.6946" style="stop-color:#D2BF7E"/>
			<stop  offset="0.9411" style="stop-color:#9B7845"/>
			<stop  offset="0.9988" style="stop-color:#8E6737"/>
		</linearGradient>
		<path style="fill:url(#SVGID_00000027587200033985484160000008782849877098040994_);" d="M128.7,73.4c-0.2,0-0.4,0-0.6,0l0,0
			c1.7,0.5,1.7,0.5,1.7,2.2c0,1.5,0,3,0,4.5c0,1.9,0,3.9,0,5.8c0,1.8,0,1.8-1.7,2.1l0,0c0.1,0,0.1,0.1,0.1,0.1l0,0
			c2.4,0,4.7,0,7.1,0l0,0l0,0l0,0c1.7,0,3.3,0,5,0c0.2,0,0.6-0.1,0.7-0.3c0.3-0.7,0.4-1.4,0.7-2l0,0c-0.1-0.1-0.1-0.1-0.2-0.1
			c0,0,0,0,0,0v0v0c-0.5,1.7-1.6,2.2-3.1,2.2l0,0l0,0l0,0c-0.1,0-0.2,0-0.4,0l0,0c0,0,0,0-0.1,0c-0.7,0-1.4,0-2.1,0l0,0l0,0l0,0
			c-0.2,0-0.5,0-0.7,0c-0.1,0-0.1,0-0.2,0c-0.2,0-0.3,0-0.5,0c0,0,0,0-0.1,0c-0.2,0-0.5,0-0.8,0c-0.2,0-0.5,0-0.7,0c0,0,0,0,0,0l0,0
			l0,0c-0.1,0-0.1,0-0.2,0s-0.1,0-0.2,0l0,0c-1.1,0-1.4-0.3-1.4-1.3c0-0.4,0-0.9,0-1.3c0-0.6,0-1.3,0-1.9c0-0.5,0-1,0-1.6
			c0,0,0,0,0,0c0-0.6,0.3-0.8,0.9-0.8l0,0l0,0h0l0,0c0,0,0,0,0,0c0,0,0.1,0,0.1,0c0.5,0,1,0,1.4,0l0,0l0,0l0,0c0.3,0,0.6,0,1,0
			s0.6,0,1,0l0,0l0,0h0l0,0l0,0c0.9,0,1.7,0.1,2.3,1c0,0,0,0,0,0c0,0,0,0,0,0.1l0,0l0,0c0-0.9,0-1.6,0-2.2c-0.6,0.2-1.1,0.5-1.6,0.6
			c0,0-0.1,0-0.1,0c0,0,0,0,0,0l0,0l0,0c0,0,0,0-0.1,0c-0.5,0-1,0-1.5,0l0,0l0,0l0,0c-0.2,0-0.3,0-0.5,0c0,0-0.1,0-0.1,0
			c-0.1,0-0.2,0-0.3,0c0,0-0.1,0-0.1,0l0,0l0,0c-0.1,0-0.2,0-0.4,0c-0.2,0-0.4,0-0.6,0l0,0l0,0l0,0c-0.2,0-0.4,0-0.6,0
			c0,0-0.1,0-0.1,0l0,0c0,0,0,0,0,0l0,0c0,0,0,0,0,0l0,0l0,0l0,0c-0.6,0-0.8-0.2-0.8-0.8c0,0,0,0,0,0c0-0.8,0-1.7,0-2.5
			c0-0.8,0-1.6,0-2.3c0,0,0,0,0,0c0-0.7,0.2-0.9,0.9-0.9l0,0l0,0h0l0,0h0l0,0h0l0,0h0c0.1,0,0.2,0,0.3,0c0,0,0,0,0,0
			c0.1,0,0.1,0,0.2,0c0.6,0,1.2,0,1.8,0l0,0l0,0l0,0c0.9,0,1.7,0,2.6,0c0,0,0.1,0,0.1,0l0,0c0,0,0.1,0,0.1,0l0,0l0,0l0,0
			c1.5,0,2.7,0.4,3.2,2c0,0,0,0.1,0,0.1c0,0,0,0,0,0l0,0c0,0.1,0.1,0.1,0.3,0.3l0,0c-0.2-0.6-0.3-1-0.4-1.4l0,0c0,0,0,0,0-0.1
			c-0.3-1.2-0.4-1.2-1.6-1.2l0,0l0,0c0,0,0,0,0,0c-0.5,0-1.1,0-1.6,0l0,0c-0.2,0-0.4,0-0.5,0l0,0c0,0,0,0,0,0c-2.2,0-4.4,0-6.6,0
			c-0.3,0-0.6,0-1,0l0,0l0,0C128.9,73.4,128.8,73.4,128.7,73.4L128.7,73.4"/>
		
			<linearGradient id="SVGID_00000054944010176831872790000001157556167888466057_" gradientUnits="userSpaceOnUse" x1="36.1163" y1="42.6098" x2="261.4167" y2="42.6098" gradientTransform="matrix(1 0 0 -1 0 125.8898)">
			<stop  offset="0" style="stop-color:#8D6739"/>
			<stop  offset="0.5798" style="stop-color:#E7DB94"/>
			<stop  offset="0.6946" style="stop-color:#D2BF7E"/>
			<stop  offset="0.9411" style="stop-color:#9B7845"/>
			<stop  offset="0.9988" style="stop-color:#8E6737"/>
		</linearGradient>
		<path style="fill:url(#SVGID_00000054944010176831872790000001157556167888466057_);" d="M231.4,73.5c-1.8,0-3.5,0-5.2,0
			c0,0.1,0,0.1,0,0.2c0.2,0,0.5,0.1,0.7,0.1c0.8,0,1.2,0.4,1.2,1.3l0,0l0,0c0,2.8,0,5.5,0,8.3s0,5.5,0,8.3l0,0l0,0
			c0,0.7-0.4,1.1-1.1,1.2c-0.3,0-0.6,0.1-0.9,0.2c0,0.1,0,0.1,0,0.2c1.8,0,3.5,0,5.2,0c-0.1-0.2-0.1-0.2-0.2-0.3
			c-1.6-0.3-1.7-0.3-1.7-2c0-2.4,0-4.8,0-7.2c0-2.7,0-5.5,0-8.2c0-1.3,0.2-1.5,1.4-1.6c0.2,0,0.4-0.1,0.5-0.1
			C231.4,73.6,231.4,73.5,231.4,73.5"/>
		
			<linearGradient id="SVGID_00000037678157508636492240000006650868566383064245_" gradientUnits="userSpaceOnUse" x1="36.1163" y1="42.1948" x2="261.4167" y2="42.1948" gradientTransform="matrix(1 0 0 -1 0 125.8898)">
			<stop  offset="0" style="stop-color:#8D6739"/>
			<stop  offset="0.5798" style="stop-color:#E7DB94"/>
			<stop  offset="0.6946" style="stop-color:#D2BF7E"/>
			<stop  offset="0.9411" style="stop-color:#9B7845"/>
			<stop  offset="0.9988" style="stop-color:#8E6737"/>
		</linearGradient>
		<path style="fill:url(#SVGID_00000037678157508636492240000006650868566383064245_);" d="M252.7,73.5c-1.4,0-2.9,0-4.4,0
			c0.1,0.2,0.1,0.3,0.2,0.3c1.6,0.3,1.7,0.4,1.7,2c0,4.7,0,9.3,0,14c0,0.3,0,0.6,0,1.1c-0.4-0.5-0.7-0.8-0.9-1.1
			c-2.5-3.2-4.9-6.5-7.4-9.8h0l-5-6.4l-3.2-0.1c1.4,0.1,2,0.9,2,0.9v2h0c0,1.4,0,2.9,0,4.3c0,2.2,0,4.5,0,6.7c0,1.4,0,2.8,0,4.1
			c0,0.8-0.4,1.1-1.1,1.2c-0.2,0-0.5,0.1-0.7,0.2c0,0.1,0,0.1,0,0.2c1.4,0,2.9,0,4.6,0c-0.3-0.2-0.4-0.3-0.5-0.3
			c-1.6-0.3-1.6-0.3-1.6-2c0-2.4,0-4.8,0-7.2c0-2.1,0-4.2,0-6.3c0-0.3,0-0.6,0-0.9s0-0.6,0-0.9c0.2,0.2,0.4,0.4,0.5,0.7l2.8,3.5h0
			c2.9,3.7,5.8,7.5,8.8,11.2l2.3,3v-3.7l0,0c0-4.9,0-9.8,0-14.6c0,0,0,0,0,0c0-1.4,0.2-1.6,1.6-1.9
			C252.5,73.7,252.6,73.6,252.7,73.5C252.7,73.6,252.7,73.5,252.7,73.5z"/>
		
			<linearGradient id="SVGID_00000074407202942079770510000005513208512387052420_" gradientUnits="userSpaceOnUse" x1="36.1163" y1="42.0248" x2="261.4167" y2="42.0248" gradientTransform="matrix(1 0 0 -1 0 125.8898)">
			<stop  offset="0" style="stop-color:#8D6739"/>
			<stop  offset="0.5798" style="stop-color:#E7DB94"/>
			<stop  offset="0.6946" style="stop-color:#D2BF7E"/>
			<stop  offset="0.9411" style="stop-color:#9B7845"/>
			<stop  offset="0.9988" style="stop-color:#8E6737"/>
		</linearGradient>
		<path style="fill:url(#SVGID_00000074407202942079770510000005513208512387052420_);" d="M141.5,90.9c0,0-0.7,0.4-1.1,0.7h0
			c-1.7,1.1-3.5,1.8-5.5,1.9c0,0,0,0-0.1,0c-0.3,0-0.6,0-1,0l0,0l0,0c-2.4,0-4.6-0.5-6.8-1.7c0,0,0,0,0,0c-3.3-1.8-5.5-4.9-8.5-7.2
			c0.3-0.1,0.5-0.1,0.8-0.1h0l0,0c0.1,0,0.2,0,0.2,0c0,0,0,0,0.1,0c0.1,0,0.2,0,0.3,0l0,0c0,0,0,0,0,0c1.3,0,2.5-0.4,3.5-1.2
			c0,0,0,0,0,0c1.3-1.1,2-2.5,2-4.1c0-0.3,0-0.7-0.1-1c-0.4-2.3-1.9-3.7-4-4.2c-1.8-0.5-3.6-0.6-5.4-0.6l0,0l0,0
			c-0.9,0-1.9,0-2.8,0.1c-0.8,0-1.7,0.1-2.5,0.1c-0.1,0-0.1,0-0.2,0c-0.1,0-0.1,0-0.2,0c0,0,0,0-0.1,0.1c1.9,0.5,1.9,0.5,1.9,2.6
			c0,1.9,0,3.8,0,5.6c0,3.1,0,6.3,0,9.4c0,1.3-0.2,1.5-1.4,1.6c-0.1,0-0.3,0.1-0.6,0.2c1.8,0,3.5,0,5.1,0c-0.2-0.2-0.5-0.2-0.7-0.3
			c-0.7-0.1-1-0.4-1-1.1c0-0.9,0-1.8,0-2.7c0-1.5,0-3.1,0-4.6c0-0.4,0.2-0.7,0.5-0.7l0,0l0,0c0.1,0,0.2,0,0.3,0.1c0,0,0,0,0,0
			c1,0.4,2.1,0.6,2.9,1.2c1.8,1.5,3.5,3.1,5.2,4.8c0,0,0,0,0,0s0,0,0,0c0,0,0,0,0.1,0.1l0,0c3.1,2.9,6.5,4.5,10.3,4.5l0,0l0,0
			c1.5,0,3.1-0.2,4.7-0.7c1.3-0.4,2.4-1.1,3.4-2C141.2,91.3,141.5,90.9,141.5,90.9z M116.9,83.7C116.9,83.7,116.8,83.7,116.9,83.7
			c-0.1,0-0.1,0-0.1,0c0,0,0,0,0,0h0c0,0,0,0,0,0c0,0,0,0,0,0c0,0,0,0,0,0c-0.8-0.1-1.7-0.3-2.5-0.4c-0.6,0-0.8-0.2-0.8-0.8
			c0,0,0,0,0,0c0-1.3,0-2.6,0-3.9c0-1.2,0-2.4,0-3.6c0-0.1,0-0.2,0-0.2c0,0,0-0.1,0-0.1c0-0.6,0.2-0.9,0.8-0.9l0,0l0,0
			c0,0,0.1,0,0.1,0c2,0.1,4-0.1,6,0.5c2.6,0.8,3.8,2.6,3.8,4.5c0,0.2,0,0.3,0,0.5c-0.3,3-2.3,4.7-5.2,4.7c0,0,0,0,0,0c0,0,0,0,0,0
			C118.1,83.9,117.5,83.8,116.9,83.7z"/>
	</g>
</g>
</svg>
