<svg xmlns="http://www.w3.org/2000/svg" width="1920" height="614" viewBox="0 0 1920 614"><path d="M 809.488 312.500 C 809.488 404.900, 809.606 442.552, 809.750 396.171 C 809.894 349.790, 809.894 274.190, 809.750 228.171 C 809.606 182.152, 809.488 220.100, 809.488 312.500" stroke="none" fill="#ec1c2c" fill-rule="evenodd"></path><path d="M 561.500 139.407 C 534.751 144.604, 508.320 160.091, 493.076 179.500 C 478.592 197.941, 471.981 217.046, 472.017 240.360 C 472.027 246.487, 472.672 254.506, 473.450 258.180 C 478.262 280.883, 495.816 303.660, 520.843 319.675 C 526.122 323.053, 544.800 332.673, 554.500 337.010 C 563.095 340.853, 586.769 352.829, 590.724 355.334 C 607.506 365.966, 613.208 375.703, 610.854 389.703 C 609.520 397.637, 605.402 404.155, 599.263 408.048 C 593.125 411.942, 586.783 413.788, 575 415.109 C 554.724 417.383, 534.906 412.068, 510 397.675 C 500.339 392.092, 500.275 392.050, 490.235 384.615 C 485.121 380.828, 480.772 377.903, 480.571 378.115 C 480.369 378.327, 472.445 391.550, 462.963 407.500 C 453.480 423.450, 444.871 437.910, 443.831 439.632 L 441.941 442.765 446.721 446.753 C 456.937 455.278, 469.680 462.642, 490.273 471.920 C 504.772 478.453, 531.510 485.172, 550 486.929 C 584.471 490.204, 619.703 484.464, 644.576 471.522 C 677.282 454.504, 694.881 424.990, 696.533 384.388 C 697.550 359.394, 689.569 340.492, 669.540 320.457 C 653.900 304.813, 638.597 295.462, 604 280.409 C 574.199 267.442, 560.744 259.637, 553.307 251 C 548.916 245.900, 548 243.700, 548 238.247 C 548 223.999, 556.006 214.498, 571.500 210.359 C 580.157 208.047, 598.059 208.608, 609.545 211.551 C 623.539 215.137, 639.751 222.022, 652.114 229.630 L 655.729 231.854 671.460 200.795 C 683.747 176.536, 686.896 169.539, 685.845 168.836 C 667.491 156.558, 640.017 145.787, 613.406 140.436 C 602.426 138.229, 570.793 137.602, 561.500 139.407 M 989 138.542 C 988.175 138.695, 984.125 139.354, 980 140.006 C 940.028 146.328, 903.049 168.904, 878.443 202.007 C 866.988 217.418, 860.782 228.874, 853.942 247.237 C 850.838 255.569, 846.552 271.020, 845.547 277.500 C 845.206 279.700, 844.447 284.650, 843.861 288.500 C 843.274 292.350, 842.813 303.600, 842.836 313.500 C 842.880 332.729, 844.434 345.044, 848.917 361.693 C 858.670 397.912, 879.768 430.104, 908.954 453.297 C 930.232 470.205, 953.661 480.614, 982.500 485.971 C 985.800 486.584, 995.025 487.266, 1003 487.486 C 1044.870 488.643, 1083.835 475.608, 1114.273 450.262 C 1135.826 432.314, 1152.712 405.094, 1160.951 375.020 C 1162.848 368.094, 1163 364.741, 1163 329.764 L 1163 291.988 1084.750 292.244 L 1006.500 292.500 1006.500 322 L 1006.500 351.500 1045.394 351.762 L 1084.288 352.024 1083.715 358.860 C 1082.954 367.938, 1077.982 380.588, 1072.147 388.295 C 1063.439 399.795, 1049.821 408.564, 1033.500 413.180 C 1021.969 416.441, 1001.690 416.424, 991.157 413.146 C 959.070 403.158, 935.069 372.729, 927.941 333 C 926.634 325.715, 926.352 303.386, 927.461 295.044 C 929.348 280.859, 935.189 264.314, 943.187 250.500 C 949.587 239.444, 963.206 225.416, 973.539 219.236 C 991.848 208.284, 1012.709 205.457, 1034.500 210.973 C 1054.244 215.972, 1072.316 229.555, 1085.128 249.026 L 1086.756 251.500 1089.202 249 C 1090.547 247.625, 1096.516 241.100, 1102.467 234.500 C 1108.417 227.900, 1115.136 220.475, 1117.397 218 C 1130.783 203.347, 1137 196.161, 1137 195.342 C 1137 193.872, 1120.586 177.551, 1113.205 171.682 C 1096.813 158.647, 1080.187 150.362, 1057.981 144.163 C 1047.882 141.344, 1044.796 140.745, 1031.500 139.022 C 1025.923 138.299, 992.359 137.920, 989 138.542 M 1631.614 139.103 C 1610.650 142.163, 1585.772 154.594, 1570.500 169.640 C 1559.393 180.583, 1554.996 186.628, 1548.971 199.241 C 1542.475 212.840, 1540.597 221.922, 1540.545 240 C 1540.506 253.547, 1540.795 256.441, 1542.844 262.965 C 1547.617 278.166, 1555.304 290.487, 1567.529 302.531 C 1581.835 316.627, 1588.420 320.517, 1640 345.354 C 1670.617 360.097, 1681.380 371.382, 1679.600 386.877 C 1678.796 393.871, 1674.910 402.052, 1670.699 405.614 C 1656.314 417.781, 1625.256 418.994, 1599.637 408.390 C 1584.134 401.973, 1565.699 390.912, 1550.321 378.802 C 1549.140 377.871, 1545.751 382.449, 1539.805 393.008 C 1538.413 395.479, 1535.902 399.750, 1534.224 402.500 C 1521.752 422.944, 1511 441.438, 1511 442.447 C 1511 444.283, 1514.470 447.101, 1526.500 455.032 C 1550.789 471.047, 1582.860 482.680, 1613 486.408 C 1633.314 488.920, 1656.056 488.015, 1676.980 483.862 C 1712.498 476.812, 1739.728 458.292, 1752.878 432.242 C 1761.320 415.518, 1764.362 402.040, 1764.444 381 C 1764.508 364.531, 1762.792 356.930, 1756.316 345 C 1748.928 331.387, 1735.285 316.089, 1723.061 307.709 C 1720.552 305.990, 1718.050 304.207, 1717.500 303.749 C 1711.465 298.714, 1699.220 292.310, 1678.500 283.350 C 1646.410 269.475, 1633.766 262.602, 1624.666 254.091 C 1618.355 248.187, 1615.997 243.476, 1616.010 236.790 C 1616.029 226.381, 1622.368 217.507, 1633.500 212.304 C 1639.289 209.599, 1640.064 209.500, 1655.500 209.500 C 1665.153 209.500, 1673.087 209.980, 1675.500 210.711 C 1692.082 215.729, 1697.327 217.647, 1704.957 221.478 C 1709.730 223.876, 1715.892 227.168, 1718.650 228.794 L 1723.664 231.750 1726.423 226.625 C 1727.941 223.806, 1735.051 209.851, 1742.223 195.613 C 1754.202 171.832, 1755.115 169.636, 1753.449 168.613 C 1727.121 152.449, 1702.073 143.258, 1674 139.460 C 1662.585 137.915, 1640.996 137.734, 1631.614 139.103 M 164 313.025 L 164 482.049 217.250 481.906 C 273.770 481.755, 281.400 481.383, 298 477.977 C 349.931 467.319, 392.567 434.661, 415.435 388.023 C 441.122 335.639, 437.420 268.622, 406.210 221 C 382.015 184.082, 347.741 159.933, 304.046 149.015 C 285.667 144.423, 278.615 144.006, 219.250 144.003 L 164 144 164 313.025 M 732 313.012 L 732 482.023 770.506 481.762 L 809.012 481.500 809.256 312.750 L 809.500 144 770.750 144 L 732 144 732 313.012 M 1196 313 L 1196 482.023 1234.750 481.762 L 1273.500 481.500 1274 377.605 L 1274.500 273.710 1284.448 289.105 C 1289.920 297.572, 1296.268 307.425, 1298.556 311 C 1300.843 314.575, 1304.916 320.875, 1307.606 325 C 1310.297 329.125, 1312.676 332.920, 1312.894 333.434 C 1313.298 334.389, 1322.861 349.076, 1328.093 356.779 C 1329.692 359.133, 1331 361.309, 1331 361.616 C 1331 361.922, 1332.299 364.047, 1333.887 366.337 C 1335.474 368.626, 1340.499 376.350, 1345.054 383.500 C 1352.319 394.907, 1356.879 401.981, 1368.631 420.081 C 1370.209 422.512, 1371.725 424.964, 1372 425.530 C 1372.275 426.097, 1377.225 433.882, 1383 442.831 C 1388.775 451.779, 1396.689 464.141, 1400.586 470.301 L 1407.671 481.500 1446.314 481.762 L 1484.956 482.023 1485.502 479.762 C 1485.802 478.518, 1485.924 402.575, 1485.774 311 L 1485.500 144.500 1446.750 144.238 L 1408 143.977 1408 248.710 L 1408 353.443 1401.750 343.674 C 1398.313 338.300, 1394.375 332.132, 1393 329.967 C 1390.147 325.473, 1379.296 308.641, 1373.804 300.188 C 1371.771 297.060, 1369.029 292.700, 1367.711 290.500 C 1366.393 288.300, 1358.207 275.475, 1349.521 262 C 1340.835 248.525, 1331.740 234.350, 1329.310 230.500 C 1326.881 226.650, 1321.784 218.775, 1317.984 213 C 1314.184 207.225, 1308.557 198.450, 1305.479 193.500 C 1302.402 188.550, 1294.109 175.500, 1287.050 164.500 L 1274.217 144.500 1235.108 144.238 L 1196 143.977 1196 313 M 242 313.140 L 242 412.280 255.750 411.726 C 276.420 410.894, 289.866 406.943, 304.827 397.308 C 318.536 388.478, 330.414 375.202, 337.757 360.500 C 340.423 355.161, 344.856 342.707, 345.513 338.711 C 345.803 336.945, 346.484 333.250, 347.027 330.500 C 349.054 320.236, 348.866 306.706, 346.479 291.079 C 345.003 281.413, 338.557 264.903, 332.784 256 C 324.764 243.633, 311.689 231.311, 299.941 225.049 C 285.213 217.199, 272.171 214.090, 253.750 214.035 L 242 214 242 313.140" stroke="none" fill="#ec1c24" fill-rule="evenodd"></path></svg>