<?xml version="1.0" encoding="UTF-8"?><svg id="Layer_1" xmlns="http://www.w3.org/2000/svg" viewBox="0 0 123.2 28.65"><defs><style>.cls-1{fill:#ff6606;stroke-width:0px;}</style></defs><polygon class="cls-1" points="2.96 28.55 1.83 28.55 .02 24.97 1.1 24.97 2.4 27.67 3.71 24.97 4.79 24.97 2.96 28.55"/><polygon class="cls-1" points="5.37 28.55 5.37 24.97 9.01 24.97 9.01 25.73 6.37 25.73 6.37 26.32 8.87 26.32 8.87 27.09 6.37 27.09 6.37 27.79 9.04 27.79 9.04 28.55 5.37 28.55"/><polygon class="cls-1" points="13.41 28.55 13.41 27.06 10.95 27.06 10.95 28.55 9.98 28.55 9.98 24.97 10.95 24.97 10.95 26.27 13.41 26.27 13.41 24.97 14.38 24.97 14.38 28.55 13.41 28.55"/><rect class="cls-1" x="15.5" y="24.97" width=".97" height="3.59"/><path class="cls-1" d="M21.17,28.45c-.13.04-.26.08-.39.11-.14.03-.28.05-.43.07s-.31.02-.48.02c-.37,0-.7-.04-1.01-.12s-.57-.2-.79-.35c-.22-.16-.39-.35-.52-.59-.12-.24-.19-.51-.19-.83s.06-.59.19-.83c.12-.24.3-.43.52-.59.22-.16.49-.28.79-.35.31-.08.64-.12,1.01-.12.17,0,.33.01.48.02.15.02.29.04.43.07s.27.07.39.11c.13.04.25.09.38.14v.87c-.1-.05-.2-.11-.31-.16-.11-.05-.23-.1-.36-.14-.13-.04-.28-.08-.44-.1-.16-.03-.34-.04-.54-.04-.3,0-.56.03-.76.09s-.36.15-.48.25c-.12.1-.2.22-.25.36s-.07.27-.07.42c0,.1.01.19.03.28s.06.18.1.26c.05.08.11.16.19.23s.18.13.29.18c.12.05.25.09.41.12s.34.04.54.04.38-.01.54-.04c.16-.03.3-.06.44-.1.13-.04.25-.09.36-.14s.21-.11.31-.16v.87c-.13.06-.26.11-.38.15"/><polygon class="cls-1" points="22.45 28.55 22.45 24.97 23.42 24.97 23.42 27.77 26.04 27.77 26.04 28.55 22.45 28.55"/><polygon class="cls-1" points="26.81 28.55 26.81 24.97 30.44 24.97 30.44 25.73 27.81 25.73 27.81 26.32 30.31 26.32 30.31 27.09 27.81 27.09 27.81 27.79 30.48 27.79 30.48 28.55 26.81 28.55"/><rect class="cls-1" x="33.42" y="24.97" width=".97" height="3.59"/><polygon class="cls-1" points="38.9 28.55 36.48 26.09 36.48 28.55 35.52 28.55 35.52 24.97 36.57 24.97 38.99 27.44 38.99 24.97 39.95 24.97 39.95 28.55 38.9 28.55"/><path class="cls-1" d="M44.38,25.98c-.07-.03-.16-.07-.27-.11s-.24-.08-.38-.12-.29-.07-.46-.09-.34-.04-.51-.04c-.14,0-.26,0-.36.01-.1.01-.18.02-.25.03s-.12.03-.16.05c-.04.02-.07.04-.09.06s-.03.04-.04.06c0,.02,0,.04,0,.05,0,.05.03.1.08.14.05.04.12.07.21.1s.2.06.32.09.25.05.38.08.27.06.42.09c.14.03.28.07.42.12.13.04.26.1.38.16.12.06.23.13.32.21s.16.17.21.28c.05.1.08.22.08.36,0,.17-.03.32-.09.44s-.14.23-.24.31c-.1.09-.22.15-.35.21-.13.05-.27.09-.42.12-.15.03-.3.05-.45.05-.15.01-.29.01-.43.01-.36,0-.68-.03-.99-.09-.3-.06-.57-.13-.8-.22v-.86c.24.13.51.24.82.31s.63.11.98.11c.21,0,.37-.01.5-.03s.23-.05.3-.08.12-.07.15-.11c.03-.04.04-.08.04-.11,0-.06-.03-.11-.08-.15-.05-.04-.12-.08-.21-.11s-.2-.06-.32-.09-.25-.05-.38-.08c-.14-.03-.27-.06-.42-.09-.14-.03-.28-.07-.42-.11-.13-.04-.26-.09-.38-.15-.12-.06-.23-.12-.32-.2-.09-.08-.16-.17-.21-.27s-.08-.22-.08-.35c0-.16.03-.3.08-.41.06-.11.13-.21.23-.29.09-.08.2-.15.33-.2.12-.05.26-.09.39-.12.14-.03.28-.05.42-.06.14-.01.28-.02.4-.02.14,0,.28.01.43.02.15.01.29.03.43.06.14.02.28.05.41.09.13.03.26.07.37.1v.84h.02Z"/><path class="cls-1" d="M49.63,26.19c0,.18-.03.34-.08.49-.05.15-.14.28-.25.39-.12.11-.27.19-.45.25s-.41.09-.67.09h-1.61v1.13h-.97v-3.59h2.58c.26,0,.49.03.67.09.18.06.33.14.45.25s.2.24.25.39c.05.17.08.33.08.51M48.65,26.21c0-.08,0-.16-.04-.22-.02-.06-.06-.11-.12-.15-.05-.04-.12-.07-.21-.08-.09-.02-.19-.03-.32-.03h-1.4v.92h1.4c.13,0,.23-.01.32-.02.09-.01.16-.04.21-.08s.09-.08.12-.14c.03-.05.04-.12.04-.2"/><polygon class="cls-1" points="50.43 28.55 50.43 24.97 54.06 24.97 54.06 25.73 51.42 25.73 51.42 26.32 53.92 26.32 53.92 27.09 51.42 27.09 51.42 27.79 54.1 27.79 54.1 28.55 50.43 28.55"/><path class="cls-1" d="M58.61,28.45c-.13.04-.26.08-.39.11-.14.03-.28.05-.43.07s-.31.02-.48.02c-.37,0-.7-.04-1.01-.12-.31-.08-.57-.2-.79-.35-.22-.16-.39-.35-.52-.59-.12-.24-.19-.51-.19-.83s.06-.59.19-.83c.12-.24.3-.43.52-.59.22-.16.49-.28.79-.35.31-.08.64-.12,1.01-.12.17,0,.33.01.48.02.15.02.29.04.43.07s.27.07.39.11c.13.04.25.09.38.14v.87c-.1-.05-.2-.11-.31-.16s-.23-.1-.36-.14-.28-.08-.44-.1c-.16-.03-.34-.04-.54-.04-.3,0-.56.03-.76.09-.2.06-.36.15-.48.25s-.2.22-.25.36-.07.27-.07.42c0,.1,0,.19.03.28s.06.18.1.26c.05.08.11.16.19.23.08.07.18.13.29.18.12.05.25.09.41.12.16.03.34.04.54.04s.38-.01.54-.04.3-.06.44-.1c.13-.04.25-.09.36-.14s.21-.11.31-.16v.87c-.13.06-.26.11-.38.15"/><polygon class="cls-1" points="61.9 25.75 61.9 28.55 60.93 28.55 60.93 25.75 59.41 25.75 59.41 24.97 63.42 24.97 63.42 25.75 61.9 25.75"/><rect class="cls-1" x="64.06" y="24.97" width=".97" height="3.59"/><path class="cls-1" d="M70.8,26.76c0,.31-.06.58-.17.82s-.27.43-.49.59c-.21.16-.47.28-.77.36-.3.08-.64.12-1.01.12s-.71-.04-1.01-.12-.56-.2-.77-.36-.38-.36-.49-.59c-.11-.24-.17-.51-.17-.82s.06-.58.17-.82.28-.43.49-.59c.21-.16.47-.28.77-.36.3-.08.64-.12,1.01-.12s.71.04,1.01.12.56.2.77.36.37.36.49.59c.11.24.17.51.17.82M69.82,26.76c0-.13-.02-.27-.06-.4-.04-.13-.12-.25-.23-.36s-.26-.19-.45-.26c-.19-.07-.43-.1-.72-.1-.2,0-.37.02-.51.05-.15.03-.28.07-.38.13-.11.05-.2.12-.27.19s-.13.15-.18.23c-.04.08-.07.17-.09.26-.02.09-.03.18-.03.26,0,.09.01.18.03.27s.05.18.09.26c.04.08.1.16.18.23.07.07.16.13.27.19.11.05.24.09.38.13.15.03.32.05.51.05.29,0,.53-.03.72-.1s.34-.15.45-.26.18-.23.23-.36c.03-.14.06-.27.06-.41"/><polygon class="cls-1" points="75.07 28.55 72.65 26.09 72.65 28.55 71.68 28.55 71.68 24.97 72.73 24.97 75.15 27.44 75.15 24.97 76.12 24.97 76.12 28.55 75.07 28.55"/><path class="cls-1" d="M80.54,25.98c-.07-.03-.16-.07-.27-.11-.11-.04-.24-.08-.38-.12s-.29-.07-.46-.09-.34-.04-.51-.04c-.14,0-.26,0-.36.01s-.18.02-.25.03-.12.03-.16.05c-.04.02-.07.04-.09.06s-.03.04-.04.06-.01.04-.01.05c0,.05.03.1.08.14s.12.07.21.1.2.06.32.09.25.05.38.08.27.06.42.09c.14.03.28.07.42.12.13.04.26.1.38.16.12.06.23.13.32.21s.16.17.21.28c.05.1.08.22.08.36,0,.17-.03.32-.09.44s-.14.23-.24.31c-.1.09-.22.15-.35.21-.13.05-.27.09-.42.12-.15.03-.3.05-.45.05-.15.01-.29.01-.43.01-.35,0-.68-.03-.99-.09-.3-.06-.57-.13-.8-.22v-.86c.24.13.51.24.82.31s.63.11.98.11c.21,0,.37-.01.5-.03s.23-.05.3-.08.12-.07.15-.11.04-.08.04-.11c0-.06-.03-.11-.08-.15s-.12-.08-.21-.11-.2-.06-.32-.09-.25-.05-.38-.08c-.14-.03-.27-.06-.42-.09-.14-.03-.28-.07-.42-.11-.13-.04-.26-.09-.38-.15-.12-.06-.23-.12-.32-.2-.09-.08-.16-.17-.21-.27-.05-.1-.08-.22-.08-.35,0-.16.03-.3.08-.41.06-.11.13-.21.23-.29.09-.08.2-.15.33-.2.12-.05.26-.09.39-.12.14-.03.28-.05.42-.06.14-.01.27-.02.4-.02.14,0,.28.01.43.02.15.01.29.03.43.06.14.02.28.05.41.09.13.03.26.07.37.1v.84h.02Z"/><path class="cls-1" d="M86.65,27.87h-2l-.34.68h-1.08l1.88-3.59h1.08l1.88,3.59h-1.08l-.34-.68ZM85,27.18h1.31l-.65-1.32-.66,1.32Z"/><path class="cls-1" d="M92.68,27.85c-.09.16-.22.3-.4.41-.18.12-.4.21-.66.28-.27.07-.58.1-.93.1s-.67-.03-.93-.1c-.27-.07-.49-.16-.67-.28-.18-.12-.31-.26-.4-.41-.09-.16-.13-.33-.13-.51v-2.38h.97v2.03c0,.12.02.23.05.34.03.11.09.2.17.28s.2.14.35.19.35.07.59.07.44-.02.59-.07c.15-.05.27-.11.35-.19s.14-.17.17-.28.04-.22.04-.34v-2.03h.97v2.38c0,.18-.04.35-.13.51"/><path class="cls-1" d="M97.21,25.98c-.07-.03-.16-.07-.27-.11-.11-.04-.24-.08-.38-.12s-.29-.07-.46-.09-.34-.04-.51-.04c-.14,0-.26,0-.36.01s-.18.02-.25.03-.12.03-.16.05c-.04.02-.07.04-.09.06s-.03.04-.04.06-.01.04-.01.05c0,.05.03.1.08.14s.12.07.21.1.2.06.32.09.25.05.38.08.27.06.42.09c.14.03.28.07.42.12.13.04.26.1.38.16.12.06.23.13.32.21s.16.17.21.28c.05.1.08.22.08.36,0,.17-.03.32-.09.44s-.14.23-.24.31c-.1.09-.22.15-.35.21-.13.05-.27.09-.42.12-.15.03-.3.05-.45.05-.15.01-.29.01-.43.01-.35,0-.68-.03-.99-.09-.3-.06-.57-.13-.8-.22v-.86c.24.13.51.24.82.31s.63.11.98.11c.21,0,.37-.01.5-.03s.23-.05.3-.08.12-.07.15-.11.04-.08.04-.11c0-.06-.03-.11-.08-.15s-.12-.08-.21-.11-.2-.06-.32-.09-.25-.05-.38-.08c-.14-.03-.27-.06-.42-.09-.14-.03-.28-.07-.42-.11-.13-.04-.26-.09-.38-.15-.12-.06-.23-.12-.32-.2-.09-.08-.16-.17-.21-.27-.05-.1-.08-.22-.08-.35,0-.16.03-.3.08-.41.06-.11.13-.21.23-.29.09-.08.2-.15.33-.2.12-.05.26-.09.39-.12.14-.03.28-.05.42-.06.14-.01.28-.02.4-.02.14,0,.28.01.43.02.15.01.29.03.43.06.14.02.28.05.41.09.13.03.26.07.37.1v.84h.02Z"/><polygon class="cls-1" points="100.44 25.75 100.44 28.55 99.47 28.55 99.47 25.75 97.95 25.75 97.95 24.97 101.96 24.97 101.96 25.75 100.44 25.75"/><path class="cls-1" d="M103.57,28.55h-.97v-3.59h2.43c.26,0,.48.03.66.08s.33.13.44.23c.11.1.2.22.25.36s.08.3.08.47c0,.15-.02.28-.06.4-.04.11-.1.21-.17.29s-.16.15-.25.21c-.1.06-.2.1-.3.14l1.18,1.42h-1.13l-1.09-1.32h-1.06v1.31h-.01ZM105.48,26.1c0-.07-.01-.13-.03-.18s-.05-.09-.1-.12c-.05-.03-.11-.05-.18-.07-.08-.01-.17-.02-.28-.02h-1.33v.77h1.33c.11,0,.21-.01.28-.02.08-.01.14-.04.18-.07.05-.03.08-.07.1-.12.03-.04.03-.1.03-.17"/><path class="cls-1" d="M110.42,27.87h-2l-.34.68h-1.08l1.88-3.59h1.08l1.88,3.59h-1.08l-.34-.68ZM108.77,27.18h1.31l-.65-1.32-.66,1.32Z"/><polygon class="cls-1" points="112.43 28.55 112.43 24.97 113.4 24.97 113.4 27.77 116.02 27.77 116.02 28.55 112.43 28.55"/><rect class="cls-1" x="116.79" y="24.97" width=".97" height="3.59"/><path class="cls-1" d="M121.77,27.87h-2l-.34.68h-1.08l1.88-3.59h1.08l1.88,3.59h-1.08l-.34-.68ZM120.11,27.18h1.31l-.65-1.32-.66,1.32Z"/><path class="cls-1" d="M35.81.16H12.03C9.89.16,7.73-.02,5.7.81.51,2.94-1.4,10.41,1.07,15.21c3.31,6.42,13.06,4.69,18.89,4.69,3.53,0,7.06.07,10.59,0,4.37-.08,8.77-2.99,6.88-7.96-1.56-4.1-6.13-3.65-9.69-3.65h-13.5c-2.22,0-2.22,3.45,0,3.45h9.86c2.47,0,5.06-.23,7.52-.03,1.84.15,4.01,2.07,2.21,3.87-.81.81-2.23.85-3.31.87-2.99.05-5.98,0-8.96,0h-11.1c-1.92,0-3.93-.21-5.4-1.59-3.2-3-1.55-10.24,2.87-11.16,1.47-.31,3.2-.1,4.69-.1h23.21c2.2,0,2.21-3.44-.02-3.44"/><path class="cls-1" d="M47.08,18.27V1.86l-1.72,1.72c8.69,0,17.39.14,26.08,0,1.23-.02,2.6-.15,3.69.53,1.19.74,1.6,2.65.4,3.58-.76.59-1.92.62-2.84.63-3.53.03-7.06-.02-10.58-.02h-14.7c-2.22,0-2.22,3.45,0,3.45h14.26c3.98,0,8.09.31,12.06-.02,3.28-.28,6.1-2.26,5.95-5.84-.14-3.45-2.92-5.41-6.13-5.72-3.79-.37-7.78-.02-11.58-.02h-16.61c-.93,0-1.72.79-1.72,1.72v16.41c0,2.2,3.44,2.21,3.44-.01"/><path class="cls-1" d="M119.91.14h-22.98c-2.12,0-4.69-.31-6.72.36-2.34.78-3.78,2.83-3.94,5.27-.17,2.72,1.55,4.58,4.04,5.4,2.5.83,5.25.59,7.84.59h14.16c2.03,0,6.37-.49,7.42,1.66,1.53,3.11-3.73,3.04-5.5,3.04h-25.35c-2.22,0-2.22,3.45,0,3.45h22.98c2.2,0,4.68.25,6.83-.3,5.14-1.32,6.34-7.99,1.23-10.3-2.51-1.13-5.25-.98-7.93-.98h-14.2c-2.01,0-5.97.53-7.58-.99-2-1.9.86-3.74,2.6-3.79.6-.02,1.23.03,1.83.03h25.27c2.22,0,2.22-3.44,0-3.44"/></svg>