<svg id="1998436604" data-name="Layer 4" xmlns="http://www.w3.org/2000/svg" viewBox="0 0 172 173.87" class="svg u_1998436604" data-icon-custom="true" data-icon-name="estimated_quoteArtboard 3.svg"> <title id="1731743024">estimated_quoteArtboard 3</title> 
 <path d="M127.13,72.4q0,28.11,0,56.22a26.62,26.62,0,0,1-.22,4.38c-.38,2.32-1.61,3.66-4.24,3.66q-36.44-.07-72.87,0a4,4,0,0,1-4.34-3.59,19.38,19.38,0,0,1-.23-3.74q0-57,0-114a20.39,20.39,0,0,1,.11-3.13c.39-2.56,1.56-4.06,4.55-4q36.42.12,72.86,0c2.66,0,3.85,1.29,4.18,3.65a30.45,30.45,0,0,1,.2,4.38Q127.15,44.29,127.13,72.4ZM49,72.34c0,19,.05,37.9,0,56.85,0,2.74.54,3.74,3.57,3.73q33.77-.21,67.53,0c2.51,0,3.44-.53,3.43-3.24q-.12-57.33,0-114.65c0-2.7-.92-3.29-3.44-3.28q-33.76.13-67.53,0c-3.06,0-3.57,1.07-3.56,3.78C49,34.44,49,53.39,49,72.34Z" id="1741622609"></path> 
 <path d="M136.43,120.12c0-7.54,0-15.08,0-22.62,0-3.78.7-4.25,4.3-3,7.59,2.69,15.14,5.47,22.76,8,2.44.83,3,2,2.37,4.45-5.29,19.91-11.81,39.44-18,59.08-.63,2-1.78,2.37-3.57,1.88L97.7,155.42c-2-.53-2.54-1.65-1.76-3.52a8.52,8.52,0,0,0,.26-.9c1.64-5.06,1.64-5.06,6.86-5.06,10.26,0,20.53-.06,30.79,0,2,0,2.66-.55,2.63-2.62C136.37,135.62,136.43,127.87,136.43,120.12Zm3.76,3.56q0,11,0,22c0,3.92-.13,4-4.12,4q-16.65,0-33.31,0c-1.18,0-2.38-.12-2.65,1.45s1.17,1.3,1.88,1.49c13.52,3.7,27.06,7.3,40.57,11,1.38.37,2.08.3,2.54-1.19,5.63-18.06,11.66-36,16.53-54.3.42-1.61.07-2.16-1.44-2.68q-8.9-3-17.71-6.36c-1.85-.69-2.34-.34-2.32,1.62C140.24,108.39,140.19,116,140.19,123.68Z" id="1010391130"></path> 
 <path d="M35.88,87.19c0,10.67-.06,21.35,0,32,0,2.24-.68,3.39-2.85,4.11-9.27,3.07-7.64,3.35-10.25-5.09-5.4-17.46-10.59-35-16-52.46-.89-2.87-.55-4.31,2.5-5.41,7.37-2.66,14.6-5.68,21.89-8.55,4.06-1.59,4.67-1.15,4.68,3.35Zm-3.76.59c0-9.84,0-19.68,0-29.51,0-2.12-.31-2.79-2.56-1.84Q21.38,59.91,13,63c-2.13.78-2.55,1.66-1.87,3.89,5.24,17,10.3,34,15.51,51,.34,1.09-.14,3.36,2.36,2.84,2.15-.45,3.27-1.38,3.22-4C32,107,32.12,97.4,32.12,87.78Z" id="1064979484"></path> 
 <path d="M86.13,80.73A1.92,1.92,0,0,1,88,83.1c-.5,2.87,1,3.79,3.49,4.33,1.64.36,4.57.31,3.75,3s-3.18.9-4.81.39c-2.58-.79-5.07-1.24-7.6.11a3.48,3.48,0,0,0-2.13,3.22A3.19,3.19,0,0,0,82.8,97c1.15.5,2.34.89,3.52,1.3,1.39.48,2.83.82,4.16,1.43,2.83,1.3,4.9,3.36,4.94,6.66a6.77,6.77,0,0,1-4.8,6.69c-2,.73-3,1.62-2.62,3.79.19,1.3,0,2.74-1.73,2.76-1.88,0-2.15-1.5-2-2.91.31-2.22-.92-2.92-2.73-3.33a19.36,19.36,0,0,1-3.59-1.1,1.81,1.81,0,0,1,1.14-3.43,28,28,0,0,1,3,.89,10.28,10.28,0,0,0,5,.48c2.22-.32,4.29-1.06,4.55-3.53s-1.92-3.24-3.79-3.94c-2.06-.76-4.23-1.22-6.24-2.09C78.83,99.48,77,97.36,77,94.19a6.67,6.67,0,0,1,4.54-6.56c2.24-.82,3.17-1.95,2.82-4.31A2.16,2.16,0,0,1,86.13,80.73Z" id="1534213286"></path> 
 <path d="M86.11,67.7H62.29c-.83,0-1.67,0-2.5-.07A1.6,1.6,0,0,1,58.18,66a1.72,1.72,0,0,1,1.56-2,30.17,30.17,0,0,1,3.43-.12h47.65c1.47,0,3.28,0,3.19,2-.07,1.81-1.75,1.77-3.13,1.77Z" id="1509832587"></path> 
 <path d="M85.75,28.52q-12.23,0-24.45,0c-1.34,0-3,.27-3.1-1.69s1.56-2.1,3.11-2.1h49.54c1.54,0,3.26.11,3.16,2.09-.09,1.78-1.78,1.71-3.18,1.71Z" id="1767659616"></path> 
 <path d="M86.42,37.83h24.14c1.47,0,3.35-.21,3.42,1.77.08,2.26-1.91,2-3.47,2H61.6c-1.41,0-3.31.4-3.38-1.73-.07-2.3,1.86-2.05,3.44-2.05Z" id="1732351144"></path> 
 <path d="M86.41,50.92h24.17c1.45,0,3.37-.26,3.41,1.76,0,2.21-1.95,2-3.52,2H61.81c-.42,0-.84,0-1.25,0-1.24-.13-2.35-.52-2.32-2s1.17-1.77,2.43-1.77H86.41Z" id="1900470539"></path> 
</svg>