<svg xmlns="http://www.w3.org/2000/svg" viewBox="0 0 70 70" id="1826910209" class="svg u_1826910209" data-icon-name="wp-phone_chat_thin"> <g id="1597459884"> <path d="M32,39c-0.2,0-0.5-0.1-0.7-0.2c-0.3-0.3-0.4-0.7-0.3-1.1l2.5-6.2C31.3,29,30,26.1,30,23c0-7.2,6.7-13,15-13
		c8.3,0,15,5.8,15,13s-6.7,13-15,13c-2,0-3.9-0.3-5.7-1l-6.8,3.9C32.3,39,32.2,39,32,39z M45,12c-7.2,0-13,4.9-13,11
		c0,2.7,1.2,5.4,3.4,7.4c0.3,0.3,0.4,0.7,0.3,1.1L34,35.7l4.7-2.7c0.3-0.2,0.6-0.2,0.9-0.1c1.7,0.7,3.6,1,5.5,1c7.2,0,13-4.9,13-11
		S52.2,12,45,12z" id="1339673405"></path> 
 <path d="M17,18l2.4,0c0,0,0,0,0,0c1,0,1.9,0.6,2.2,1.6l3,9.5c0.3,0.8,0,1.7-0.6,2.3l-3.5,3.5c-0.1,0.1-0.1,0.2-0.1,0.4
		c0.8,1.5,2.8,4.4,6.3,8c3.5,3.5,6.5,5.5,8,6.3c0.1,0.1,0.3,0,0.4-0.1l3.5-3.5c0.6-0.6,1.5-0.8,2.3-0.6l9.5,3c1,0.3,1.6,1.2,1.6,2.2
		l0,2.4c0,2-6,7-10,7c-2.3,0-10.8-0.8-21-11l0,0C10.8,38.8,10,30.3,10,28C10,24.1,14.9,18,17,18z M22.4,47.5L22.4,47.5
		C32.1,57.2,39.9,58,42,58c3,0,7.6-3.9,8-5l0-2.3c0-0.1-0.1-0.3-0.2-0.3l-9.5-3c-0.1,0-0.2,0-0.3,0.1l-3.5,3.5
		c-0.7,0.7-1.9,0.9-2.8,0.4c-1.5-0.9-4.7-2.9-8.4-6.6c-3.7-3.7-5.7-6.9-6.6-8.4c-0.5-0.9-0.4-2,0.4-2.8l3.5-3.5
		c0.1-0.1,0.1-0.2,0.1-0.3l-3-9.5c0-0.1-0.2-0.2-0.3-0.2h0L17,20c-1.1,0.4-5,4.9-5,8C12,30.1,12.8,37.9,22.4,47.5z" id="1154174997"></path> 
 <circle cx="38.5" cy="22.5" r="1.5" id="1198220114"></circle> 
 <circle cx="45.5" cy="22.5" r="1.5" id="1479810801"></circle> 
 <circle cx="52.5" cy="22.5" r="1.5" id="1364660067"></circle> 
</g> 
</svg>