<svg xmlns="http://www.w3.org/2000/svg" viewBox="0 0 326 326"><g data-name="Layer 2"><g data-name="Layer 1"><path class="fail-outer" d="M163,0C73.12,0,0,73.12,0,163S73.12,326,163,326s163-73.12,163-163S252.88,0,163,0Z"></path><path class="fail-inner" d="M227.6,98.4a14.75,14.75,0,0,0-20.86,0L163,142.14,119.26,98.4A14.75,14.75,0,1,0,98.4,119.26L142.14,163,98.4,206.74a14.75,14.75,0,1,0,20.86,20.86L163,183.86l43.74,43.74a14.75,14.75,0,1,0,20.86-20.86L183.86,163l43.74-43.74A14.75,14.75,0,0,0,227.6,98.4Z"></path></g></g></svg>