<svg xmlns="http://www.w3.org/2000/svg" viewBox="0 0 100 100"> <path d="M76.53,49.3a1.78,1.78,0,1,0-1.78-1.78A1.78,1.78,0,0,0,76.53,49.3Zm0-1.85a.08.08,0,0,1,.08.08c0,.09-.16.09-.16,0A.08.08,0,0,1,76.53,47.44Z"></path> 
 <path d="M75.84,52.66a.85.85,0,1,0,0-1.7,2.76,2.76,0,0,1-2.76-2.76.85.85,0,0,0-1.7,0A4.46,4.46,0,0,0,75.84,52.66Z"></path> 
 <path d="M11.73,50.83a4.91,4.91,0,0,0,5.4.62h0c0,4.2.66,7.11,2.15,9.46a25.73,25.73,0,0,1,3.35,8.55,13.76,13.76,0,0,1,.2,2,12.93,12.93,0,0,0,.59,3.65,5.22,5.22,0,0,0,4.92,3.5h3A3.85,3.85,0,0,0,35,73.66a14.74,14.74,0,0,1-.42-1.91,54,54,0,0,0,13.27,1.7c1.65,0,3.28-.06,4.84-.13a2.12,2.12,0,0,1,2.12,1.47c.13.4.28.83.44,1.27a3.9,3.9,0,0,0,3.65,2.53h3.86a3.89,3.89,0,0,0,3.72-5c-.11-.34-.24-.94-.38-1.69,21.2-4,23.61-14.48,23.64-18.85a2.34,2.34,0,0,0-.69-1.68,2.38,2.38,0,0,0-1.7-.71h-1c-2.62-7.43-10-11.63-12.12-12.72a18.42,18.42,0,0,1,2.83-5.95,1.5,1.5,0,0,0-1.43-2.34c-4.47.55-7.49,1.59-10,3.45a38.44,38.44,0,0,0-10.9-3,11.12,11.12,0,0,0-22,2.49c0,.08,0,.15,0,.23-7.14,2.37-14.31,8.84-15.53,16.43a3.23,3.23,0,0,1-4.5.33,2.31,2.31,0,0,1-.36-3.32,1.63,1.63,0,0,1,1.13-.61,1.52,1.52,0,0,1,1.14.43,1.07,1.07,0,0,1,.33.75.93.93,0,0,1-.21.67.85.85,0,0,0,1.23,1.16,2.62,2.62,0,0,0,.67-1.89,2.78,2.78,0,0,0-.88-1.94,3.24,3.24,0,0,0-2.4-.87,3.31,3.31,0,0,0-2.32,1.21A4,4,0,0,0,11.73,50.83ZM44,23.11a9.42,9.42,0,0,1,9.08,12,34.66,34.66,0,0,0-3.7-.47,5.78,5.78,0,1,0-11.16-2.1,5.71,5.71,0,0,0,.84,3,30.29,30.29,0,0,0-3.56,1.13A9.43,9.43,0,0,1,44,23.11Zm-3.19,12a.8.8,0,0,0-.05-.11,4,4,0,0,1-.85-2.48,4.09,4.09,0,0,1,8.17,0,4,4,0,0,1-.47,1.89.8.8,0,0,0,0,.13A32.63,32.63,0,0,0,40.79,35.09ZM33,34.52a11.12,11.12,0,0,0,.88,2.75,17.85,17.85,0,0,0-2.1,1.12.85.85,0,0,0,.92,1.42c.1-.06,9.85-6.26,23.61-2.22A.85.85,0,0,0,56.82,36c-.71-.21-1.41-.39-2.1-.55a11.13,11.13,0,0,0,.38-2.88c0-.26,0-.51,0-.76a37,37,0,0,1,9.27,2.54,15.35,15.35,0,0,0-2,2.64.85.85,0,1,0,1.46.87,14.74,14.74,0,0,1,2.63-3.14c2.22-1.79,5-2.8,9.1-3.35-1.27,1.93-2.73,4.59-3,6.95l-.06.61.56.25c.09,0,9.34,4.3,11.95,12.46a9.53,9.53,0,0,1-.88,4.17.85.85,0,1,0,1.52.76,10.89,10.89,0,0,0,1-4.23h.75a.69.69,0,0,1,.5.21.66.66,0,0,1,.19.47c0,3.94-2.3,13.4-22.22,17.19a42.26,42.26,0,0,1-.53-7.44.85.85,0,1,0-1.69-.08,44.78,44.78,0,0,0,.62,8.2,1.62,1.62,0,0,0,.16.93A22,22,0,0,0,64.88,74a2.2,2.2,0,0,1-2.1,2.85H58.93a2.2,2.2,0,0,1-2.06-1.42c-.15-.42-.3-.83-.42-1.21a3.83,3.83,0,0,0-3.8-2.63c-1.53.07-3.14.11-4.78.12-.08,0-7.73,0-13.46-1.84A59.24,59.24,0,0,1,34.35,63,.85.85,0,1,0,32.66,63c-.21,5.28,0,8.72.76,11.17A2.11,2.11,0,0,1,33.08,76a2.14,2.14,0,0,1-1.73.87h-3A3.52,3.52,0,0,1,25,74.52a11.43,11.43,0,0,1-.49-3.19,15.19,15.19,0,0,0-.24-2.21A27.41,27.41,0,0,0,20.72,60c-1.3-2.06-1.88-4.7-1.88-8.55C18.83,45.41,24.13,37.59,33,34.52Z"></path> 
</svg>