<svg xmlns="http://www.w3.org/2000/svg" viewBox="0 0 100 100"> <g> <path d="M45.3,14.4c-13.3,0-24.1,10.8-24.1,24.1c0,8.3,4.4,16.1,11.5,20.5V73c0,7,5.7,12.6,12.6,12.6c7,0,12.6-5.7,12.6-12.6V59
		c7.1-4.4,11.5-12.2,11.5-20.5C69.4,25.2,58.6,14.4,45.3,14.4z M45.3,83.3C39.6,83.3,35,78.7,35,73v-4.5h20.7V73
		C55.6,78.7,51,83.3,45.3,83.3z M56.2,57.4l-0.6,0.3v8.5H35v-8.5l-0.6-0.3c-6.7-3.9-10.9-11.1-10.9-18.9c0-12,9.8-21.8,21.8-21.8
		c12,0,21.8,9.8,21.8,21.8C67.1,46.3,62.9,53.5,56.2,57.4z"></path> 
 <path d="M45.3,25.9c-7,0-12.6,5.7-12.6,12.6H35c0-5.7,4.6-10.3,10.3-10.3c5.7,0,10.3,4.6,10.3,10.3h2.3
		C57.9,31.6,52.3,25.9,45.3,25.9z"></path> 
</g> 
</svg>