<svg xmlns="http://www.w3.org/2000/svg" viewBox="0 0 100 100"> <g> <path d="M84.3,56.6V43.4H78c-0.7-3-1.9-5.8-3.5-8.4l4.5-4.5l-9.4-9.4l-4.5,4.5c-2.6-1.6-5.5-2.8-8.4-3.5v-6.3H43.4V22
		c-3,0.7-5.8,1.9-8.4,3.5l-4.5-4.5l-9.4,9.4l4.5,4.5c-1.6,2.6-2.8,5.5-3.5,8.4h-6.3v13.3H22c0.7,3,1.9,5.8,3.5,8.4l-4.5,4.5l9.4,9.4
		l4.5-4.5c2.6,1.6,5.5,2.8,8.4,3.5v6.3h13.3V78c3-0.7,5.8-1.9,8.4-3.5l4.5,4.5l9.4-9.4l-4.5-4.5c1.6-2.6,2.8-5.5,3.5-8.4H84.3z
		 M76,55.3c-0.7,3.3-2,6.5-3.9,9.3l-0.5,0.8l4.2,4.2l-6.2,6.3l-4.2-4.2l-0.8,0.5c-2.9,1.9-6,3.2-9.3,3.9l-0.9,0.2V82h-8.8v-5.9
		L44.7,76c-3.3-0.7-6.5-2-9.3-3.9l-0.8-0.5l-4.2,4.2l-6.3-6.3l4.2-4.2l-0.5-0.8c-1.9-2.9-3.2-6-3.9-9.3l-0.2-0.9H18v-8.8h5.9
		l0.2-0.9c0.7-3.3,2-6.5,3.9-9.3l0.5-0.8l-4.2-4.2l6.3-6.3l4.2,4.2l0.8-0.5c2.9-1.9,6-3.2,9.3-3.9l0.9-0.2V18h8.8v5.9l0.9,0.2
		c3.3,0.7,6.5,2,9.3,3.9l0.8,0.5l4.2-4.2l6.3,6.3l-4.2,4.2l0.5,0.8c1.9,2.9,3.2,6,3.9,9.3l0.2,0.9H82v8.8h-5.9L76,55.3z"></path> 
 <path d="M50,43.4c-3.7,0-6.6,3-6.6,6.6s3,6.6,6.6,6.6c3.7,0,6.6-3,6.6-6.6S53.7,43.4,50,43.4z M50,54.4c-2.4,0-4.4-2-4.4-4.4
		s2-4.4,4.4-4.4c2.4,0,4.4,2,4.4,4.4S52.4,54.4,50,54.4z"></path> 
</g> 
</svg>