<svg version="1.1" id="1229403387" xmlns="http://www.w3.org/2000/svg" xmlns:xlink="http://www.w3.org/1999/xlink" x="0px" y="0px" viewBox="0 0 55 55" style="enable-background:new 0 0 55 55;" xml:space="preserve" class="svg u_1229403387" data-icon-custom="true" data-icon-name="Icon-05.svg"> <title id="1738145980">prize</title> 
 <style type="text/css">.st0-1263893563{fill:#E51753;}</style> 
 <path class="st0-1263893563" d="M27,35.2c-6.8,0-12.4-5.4-12.4-12.1S20.1,11,26.9,11c6.8,0,12.3,5.4,12.4,12.1C39.3,29.8,33.8,35.2,27,35.2
	C27,35.2,27,35.2,27,35.2z M27,13.1c-5.6,0-10.2,4.5-10.2,10s4.6,10,10.2,10s10.2-4.5,10.2-10c0,0,0,0,0-0.1
	C37.1,17.6,32.6,13.1,27,13.1z"></path> 
 <path class="st0-1263893563" d="M27.4,42.9l-4.7-2.8l-5.5,0.4l-3.1-5L9.5,33v-5.5l-2.7-4.5l2.5-4.4L9.7,13l4.6-2.6L17,6.3L22.6,6l4.8-2.7l4,2.6
	h6l2.1,4.5l4.9,2.6v5.3l2.7,4.7l-2.5,4.5l-0.2,5.6l-4.9,2.5l-2.5,4.5h-5.4L27.4,42.9z M23.2,37.9l4.2,2.5l3.5-2.3h4.7l2.2-4l4.3-2.2
	l0.1-4.9l2.2-3.9l-2.4-4.2v-4.6L37.9,12L36,8.2h-5.3l-3.4-2.3l-4.1,2.2l-5,0.3L15.9,12l-4.1,2.3l-0.3,5l-2.2,3.8l2.2,3.9v4.7l4,2.2
	l2.7,4.4L23.2,37.9z"></path> 
 <polygon class="st0-1263893563" points="10.7,51.9 10.7,42.7 2.2,42.7 12.9,32.8 14.4,34.3 7.6,40.6 12.8,40.6 12.8,46.7 21.3,38.2 22.8,39.6 
	"></polygon> 
 <polygon class="st0-1263893563" points="43.2,51.9 31.5,39.9 33.1,38.4 41.1,46.7 41.1,40.6 48,40.6 41.2,34 42.7,32.5 53.2,42.7 43.2,42.7 "></polygon> 
</svg>