<svg xmlns="http://www.w3.org/2000/svg" viewBox="0 0 100 100" id="1715713794" class="svg u_1715713794" data-icon-name="li-stopwatch"> <title id="1778870880">Clock</title> 
 <g> <path d="M87,29.8L76.4,19.2L67,28.7c-2.9-1.8-6.1-3.1-9.5-4V11.4h-15v13.4c-3.4,0.8-6.6,2.2-9.5,4l-9.5-9.5L13,29.8l9.5,9.5
		c-3.1,4.9-4.9,10.7-4.9,17c0,17.9,14.5,32.4,32.4,32.4s32.4-14.5,32.4-32.4c0-6.2-1.8-12-4.9-17L87,29.8z M76.4,22.7l7.1,7
		l-7.4,7.4c-2-2.7-4.4-5.1-7.1-7L76.4,22.7z M45,13.9h10v10.4c-1.6-0.3-3.3-0.4-5-0.4s-3.4,0.2-5,0.4V13.9z M16.5,29.8l7.1-7
		l7.4,7.4c-2.7,2-5.1,4.4-7.1,7L16.5,29.8z M50,86.1c-16.5,0-29.9-13.4-29.9-29.9S33.5,26.3,50,26.3s29.9,13.4,29.9,29.9
		S66.5,86.1,50,86.1z"></path> 
 <path d="M51.2,54.1v-23h-2.5v23c-0.7,0.4-1.2,1.2-1.2,2.1c0,1.4,1.1,2.5,2.5,2.5s2.5-1.1,2.5-2.5C52.5,55.3,52,54.6,51.2,54.1z"></path> 
 <rect x="48.8" y="74.9" width="2.5" height="6.4"></rect> 
 <rect x="24.9" y="55" width="6.4" height="2.5"></rect> 
 <rect x="68.7" y="55" width="6.4" height="2.5"></rect> 
 <rect x="37.8" y="34.1" transform="matrix(0.8662 -0.4997 0.4997 0.8662 -13.4138 24.5093)" width="2.5" height="6.4"></rect> 
 <rect x="59.7" y="72" transform="matrix(0.8661 -0.4999 0.4999 0.8661 -29.4242 40.542)" width="2.5" height="6.4"></rect> 
 <rect x="27.9" y="65.9" transform="matrix(0.8663 -0.4996 0.4996 0.8663 -29.3782 24.506)" width="6.4" height="2.5"></rect> 
 <rect x="65.8" y="44" transform="matrix(0.8658 -0.5004 0.5004 0.8658 -13.3759 40.5839)" width="6.4" height="2.5"></rect> 
 <rect x="29.8" y="42.1" transform="matrix(0.4996 -0.8662 0.8662 0.4996 -23.6971 49.5626)" width="2.5" height="6.4"></rect> 
 <rect x="67.7" y="64" transform="matrix(0.5002 -0.8659 0.8659 0.5002 -23.7108 93.3077)" width="2.5" height="6.4"></rect> 
 <rect x="35.9" y="73.9" transform="matrix(0.5017 -0.8651 0.8651 0.5017 -45.533 71.2237)" width="6.4" height="2.5"></rect> 
 <rect x="57.7" y="36" transform="matrix(0.4998 -0.8661 0.8661 0.4998 -1.7538 71.3991)" width="6.4" height="2.5"></rect> 
</g> 
</svg>