<svg viewBox="0 0 24 24" id="loading-x-anim-3" aria-hidden="true" class="r-1p0dtai r-13gxpu9 r-4qtqp9 r-yyyyoo r-wy61xf r-1d2f490 r-bktk0 r-ywje51 r-dnmrzs r-u8s1d r-zchlnj r-1plcrui r-ipm5af r-lrvibr r-1blnp2b" xmlns="http://www.w3.org/2000/svg"><g><path d="M18.244 2.25h3.308l-7.227 8.26 8.502 11.24H16.17l-5.214-6.817L4.99 21.75H1.68l7.73-8.835L1.254 2.25H8.08l4.713 6.231zm-1.161 17.52h1.833L7.084 4.126H5.117z"></path><path d="M 10,30 C 160,203 94,101 167,227 h 8 s 189,31 214,86 C 240,73 217,75 152,88 h 81 s 88,13 156,243 C 32,76 90,46 193,19 h 240 s 7,13 230,34 C 49,146 35,218 111,180 h 210 s 170,204 26,36 C 134,50 189,70 168,232 h 38 s 19,145 93,22 C 210,146 228,4 165,12 h 122 s 25,191 142,118 C 95,180 223,128 47,133 h 82 s 168,45 188,185 C 39,152 88,188 186,111 h 132 s 17,55 198,137 C 245,113 49,158 171,168 h 62 s 238,78 137,131 C 111,73 50,52 216,42 h 118 s 118,0 125,74 C 182,52 203,177 88,4 h 192 s 216,168 53,66 C 49,173 18,199 114,221 h 238 s 28,128 203,229 C 120,153 18,156 111,23 h 92 s 204,3 162,236 C 111,224 146,39 147,117 h 243 s 221,212 246,125 C 225,145 153,84 245,153 h 6 s 238,113 221,170 C 69,6 5,142 118,212 h 142 s 135,27 165,125" fill="#1d9bf008"></path></g></svg>