<svg xmlns="http://www.w3.org/2000/svg" fill="currentColor" viewBox="0 0 24 24" class="w-12 h-12"><path fill-rule="evenodd" d="M12 3a9 9 0 1 0 0 18 9 9 0 0 0 0-18ZM1 12C1 5.925 5.925 1 12 1s11 4.925 11 11-4.925 11-11 11S1 18.075 1 12Zm7.797 1.896A1 1 0 0 0 7.2 15.1l.001.001.001.002.003.004.007.009.021.027.07.086a6.949 6.949 0 0 0 1.171 1.08c.798.58 2 1.191 3.526 1.191 1.526 0 2.728-.61 3.526-1.191a6.951 6.951 0 0 0 1.17-1.08c.03-.035.053-.064.07-.086l.022-.027.007-.01.003-.003.001-.002h.001a1 1 0 0 0-1.597-1.205l-.004.006a3.64 3.64 0 0 1-.194.219 4.945 4.945 0 0 1-.656.57c-.577.42-1.374.81-2.349.81-.974 0-1.772-.39-2.35-.81a4.945 4.945 0 0 1-.815-.748 1.932 1.932 0 0 1-.033-.041l-.005-.006ZM10.5 9.5a1.5 1.5 0 1 1-3 0 1.5 1.5 0 0 1 3 0Zm6 0a1.5 1.5 0 1 1-3 0 1.5 1.5 0 0 1 3 0Z" clip-rule="evenodd"></path></svg>