<svg xmlns="http://www.w3.org/2000/svg" viewBox="0 0 100 100"> <path d="M51.38,35.56V33.5H48.63v2.06a7.81,7.81,0,0,0-6.43,7.67c0,3.31,2.18,6.17,5.7,7.48.47.18,1,.33,1.44.49a20.74,20.74,0,0,1,2.45.92,5.16,5.16,0,0,1,3.26,4.64,5,5,0,0,1-10.1.1v-.45H42.19v.47a7.83,7.83,0,0,0,6.43,7.56V66.5h2.75V64.44A7.74,7.74,0,0,0,56,51.88a9.06,9.06,0,0,0-4.27-2.72l-1.17-.39a12.64,12.64,0,0,1-3.7-1.65A4.93,4.93,0,0,1,45,43.23a5,5,0,1,1,10.1,0v.46h2.75v-.46A7.81,7.81,0,0,0,51.38,35.56Z"></path> 
 <path d="M50,12.82A37.18,37.18,0,1,0,87.18,50,37.23,37.23,0,0,0,50,12.82Zm0,72.41A35.22,35.22,0,1,1,85.22,50,35.26,35.26,0,0,1,50,85.22Z"></path> 
 <path d="M50,21A29,29,0,1,0,79,50,29,29,0,0,0,50,21Zm0,56A27,27,0,1,1,77,50,27.05,27.05,0,0,1,50,77Z"></path> 
 <path d="M49.87,19.09a1.28,1.28,0,1,0-1.28-1.28A1.28,1.28,0,0,0,49.87,19.09Zm0-2a.68.68,0,1,1-.68.68A.68.68,0,0,1,49.87,17.12Z"></path> 
 <path d="M38.87,21.07a1.28,1.28,0,1,0-1.21-.84A1.29,1.29,0,0,0,38.87,21.07Zm-.23-1.92a.68.68,0,1,1-.41.87A.68.68,0,0,1,38.64,19.15Z"></path> 
 <path d="M29.21,26.7a1.28,1.28,0,0,0,.11-2.56,1.31,1.31,0,0,0-.94.3,1.28,1.28,0,0,0,.83,2.26ZM29.73,25a.68.68,0,1,1-1-.09.68.68,0,0,1,1,.09"></path> 
 <path d="M21.41,35.12a1.27,1.27,0,0,0,.64.17,1.29,1.29,0,0,0,1.11-.64,1.28,1.28,0,0,0-.47-1.75,1.28,1.28,0,1,0-1.28,2.22Zm.05-1.45a.68.68,0,0,1,.59-.34.67.67,0,0,1,.34.09.68.68,0,1,1-.93.25Z"></path> 
 <path d="M18,45.8l.22,0a1.29,1.29,0,0,0,1.26-1.06,1.28,1.28,0,0,0-1-1.48,1.28,1.28,0,0,0-1.49,1A1.29,1.29,0,0,0,18,45.8Zm.34-1.93h0a.68.68,0,1,1-.79.55.68.68,0,0,1,.79-.55"></path> 
 <path d="M19.05,54.67a1.27,1.27,0,0,0-1-.21h0A1.28,1.28,0,0,0,18.31,57l.22,0a1.28,1.28,0,0,0,.52-2.31Zm-.62,1.72a.68.68,0,0,1-.79-.55.68.68,0,0,1,.55-.79h.12a.68.68,0,0,1,.12,1.35"></path> 
 <path d="M22.51,65a1.28,1.28,0,0,0-1.44,1.88,1.29,1.29,0,0,0,1.11.64,1.26,1.26,0,0,0,.64-.17A1.28,1.28,0,0,0,22.51,65Zm-.67.65a.68.68,0,1,1-.32.42.68.68,0,0,1,.32-.42h0"></path> 
 <path d="M29.29,73.47A1.28,1.28,0,0,0,29.4,76h.11a1.28,1.28,0,0,0,.71-2.26A1.29,1.29,0,0,0,29.29,73.47Zm-.41.84a.68.68,0,0,1,.46-.24.67.67,0,0,1,.5.16.68.68,0,1,1-1,.09"></path> 
 <path d="M39.55,79.09a1.28,1.28,0,1,0,.77,1.64A1.29,1.29,0,0,0,39.55,79.09Zm.2,1.44a.68.68,0,1,1-.41-.87A.68.68,0,0,1,39.75,80.53Z"></path> 
 <path d="M50.13,80.91a1.28,1.28,0,1,0,1.28,1.28A1.28,1.28,0,0,0,50.13,80.91Zm0,2a.68.68,0,1,1,.68-.68A.68.68,0,0,1,50.13,82.88Z"></path> 
 <path d="M60.69,79a1.28,1.28,0,0,0-.77,1.64h0a1.29,1.29,0,0,0,1.21.84,1.28,1.28,0,0,0,1.2-1.72A1.28,1.28,0,0,0,60.69,79Zm1.08,1a.68.68,0,1,1-.64-.45.68.68,0,0,1,.64.45"></path> 
 <path d="M70,73.6a1.29,1.29,0,0,0-.16,1.81h0A1.28,1.28,0,1,0,70,73.6Zm1.35.54a.68.68,0,1,1-.52-.24.68.68,0,0,1,.52.24"></path> 
 <path d="M78.59,64.88a1.28,1.28,0,1,0-.64,2.39,1.31,1.31,0,0,0,.33,0,1.28,1.28,0,0,0,.31-2.35Zm-1,1.7h0a.68.68,0,0,1,.68-1.18h0a.68.68,0,1,1-.68,1.18"></path> 
 <path d="M82,54.2a1.28,1.28,0,0,0-.45,2.53h0l.22,0A1.28,1.28,0,0,0,82,54.2Zm-.1.59a.68.68,0,1,1-.12,0h.12"></path> 
 <path d="M81.68,45.57l.23,0a1.28,1.28,0,1,0-.23,0Zm-.12-2h.12a.68.68,0,0,1,.67.56.68.68,0,0,1-.55.79.7.7,0,0,1-.51-.11A.69.69,0,0,1,81,44.4.68.68,0,0,1,81.57,43.61Z"></path> 
 <path d="M77.82,35.07a1.28,1.28,0,1,0-1.11-.64A1.28,1.28,0,0,0,77.82,35.07Zm-.66-1.46a.68.68,0,0,1,.32-.42.67.67,0,0,1,.34-.09.68.68,0,1,1-.66.51Z"></path> 
 <path d="M70.6,26.54a1.28,1.28,0,0,0,1-.45h0a1.29,1.29,0,1,0-1,.46Zm-.52-1.72a.68.68,0,1,1,.58,1.12.69.69,0,0,1-.5-.16.68.68,0,0,1-.08-1"></path> 
 <path d="M60.45,20.91a1.28,1.28,0,1,0-.77-1.64A1.29,1.29,0,0,0,60.45,20.91Zm-.2-1.44a.68.68,0,1,1,.41.87A.68.68,0,0,1,60.25,19.47Z"></path> 
</svg>