<svg version="1.1" id="1506313060" xmlns="http://www.w3.org/2000/svg" xmlns:xlink="http://www.w3.org/1999/xlink" x="0px" y="0px" viewBox="0 0 55 55" style="enable-background:new 0 0 55 55;" xml:space="preserve" class="svg u_1506313060" data-icon-custom="true" data-icon-name="Icon-01.svg"> <title id="1175233139">clock</title> 
 <style type="text/css">.st0-1475651679{fill:#E51753;}</style> 
 <path class="st0-1475651679" d="M27.7,51.1c-13,0-23.6-10.3-23.6-23.1c0-12.8,10.6-23.1,23.6-23.1S51.3,15.2,51.3,28
	C51.3,40.7,40.7,51,27.7,51.1z M27.7,7.2C16,7.2,6.5,16.5,6.5,27.9c0,11.4,9.5,20.7,21.1,20.7c11.7,0,21.2-9.3,21.2-20.7
	c0,0,0,0,0,0C48.8,16.5,39.4,7.2,27.7,7.2z"></path> 
 <rect x="8.8" y="26.7" class="st0-1475651679" width="4.5" height="2.5"></rect> 
 <rect x="41.6" y="26.7" class="st0-1475651679" width="4.5" height="2.5"></rect> 
 <rect x="26.4" y="10" class="st0-1475651679" width="2.5" height="4.4"></rect> 
 <rect x="26.4" y="42.1" class="st0-1475651679" width="2.5" height="4.4"></rect> 
 <polygon class="st0-1475651679" points="15.6,19.8 17.2,17.9 30.1,28.5 28.5,30.4 "></polygon> 
 <polygon class="st0-1475651679" points="24.9,28.5 40.2,17.2 41.8,19.1 26.4,30.4 "></polygon> 
</svg>