<svg version="1.1" id="1484045380" xmlns="http://www.w3.org/2000/svg" xmlns:xlink="http://www.w3.org/1999/xlink" x="0px" y="0px" viewBox="0 0 230 230" style="enable-background:new 0 0 230 230;" xml:space="preserve" class="svg u_1484045380" data-icon-custom="true" data-icon-name="website marketing.svg"> <title id="1774240852">settings</title> 
 <style type="text/css">.st0-1484045380{fill:#EE2D2B;}</style> 
 <g transform="translate(0.000000,230.000000) scale(0.100000,-0.100000)"> <path class="st0-1484045380" d="M980,1993c-29-11-40-37-40-97c0-85-7-102-47-121c-50-24-89-13-145,40c-74,69-82,66-222-74
		c-142-143-144-149-73-240c84-106,51-171-86-171c-31,0-62-6-75-16c-21-15-22-20-22-202c0-103,4-193,9-201c6-10,33-15,87-17
		c93-4,114-19,121-86c5-43,3-47-51-102c-38-39-56-66-56-83c0-19,31-56,125-149c151-150,159-152,236-72c55,57,81,63,147,31l37-18
		l5-76c3-43,11-83,19-93c12-14,39-16,196-16c212,0,215,1,215,87c0,73,15,107,56,126c19,10,42,17,52,17c9,0,43-25,75-55
		c87-83,92-82,243,69c143,143,148,154,83,213c-69,65-82,105-53,167c17,34,17,34,95,38c115,5,112-1,113,219c0,178,0,182-23,200
		c-18,15-40,19-95,19c-39,0-76,4-82,8c-29,19-47,103-25,117c22,13,101,129,101,147c0,11-50,69-124,144c-150,151-155,152-246,69
		c-66-61-61-59-112-45c-53,15-68,42-68,120c0,105,1,105-192,107C1068,1998,988,1997,980,1993z M1250,1840c0-106,40-145,172-170
		c84-15,117-8,160,36l35,34l66-69c37-38,67-76,67-84c0-9-15-35-33-59c-51-66-56-78-46-111c4-16,12-34,18-40c5-7,14-30,20-53
		c17-63,49-86,128-93l68-6v-95v-95l-57-5c-74-7-115-44-146-133c-35-99-28-152,28-205l30-29l-72-71l-72-71l-37,34c-20,18-50,36-67,40
		c-39,8-145-11-191-35c-49-25-63-53-69-132l-5-68h-98h-99v53c0,112-63,164-209,174l-80,6l-37-37l-36-36l-42,37c-22,21-54,53-70,72
		l-30,33l42,35c49,40,51,56,23,154c-33,117-49,132-157,152l-69,12v87c0,105,9,118,84,122c60,3,96,30,107,80c3,17,15,45,25,62
		c29,48,24,86-16,135c-61,72-61,68,15,144l69,68l36-29c72-57,79-59,137-47c29,6,79,21,111,33c67,25,87,56,87,135c0,80,7,85,115,85
		h95V1840z"></path> 
 <path class="st0-1484045380" d="M1051,1294c-148-74-158-287-18-378c146-94,337,11,337,184C1369,1270,1205,1370,1051,1294z M1193,1216
		c45-19,68-48,74-94c19-142-182-183-227-46c-18,54,3,97,65,135C1141,1234,1151,1234,1193,1216z"></path> 
</g> 
</svg>