<svg xmlns="http://www.w3.org/2000/svg" viewBox="0 0 100 100"> <path d="M30.5,32.13l-3.29,3.29-1-1a1.3,1.3,0,0,0-1.83,1.83l1.33,1.33a2.07,2.07,0,0,0,2.92,0L32.34,34a1.3,1.3,0,1,0-1.83-1.83Z"></path> 
 <path d="M35.3,36.29H55a1.3,1.3,0,0,0,0-2.59H35.3a1.3,1.3,0,0,0,0,2.59Z"></path> 
 <path d="M30.5,43.31,27.21,46.6l-1-1a1.3,1.3,0,0,0-1.83,1.83l1.33,1.33a2.07,2.07,0,0,0,2.92,0l3.66-3.66a1.3,1.3,0,1,0-1.83-1.83Z"></path> 
 <path d="M30.5,54.48l-3.29,3.29-1-1a1.3,1.3,0,1,0-1.83,1.83L25.75,60a2.07,2.07,0,0,0,2.92,0l3.66-3.66a1.3,1.3,0,1,0-1.83-1.83Z"></path> 
 <path d="M61.93,37.82V26.6a6.27,6.27,0,0,0-6.26-6.26h-31a6.27,6.27,0,0,0-6.26,6.26V65.74A6.27,6.27,0,0,0,24.69,72H44.45A20.93,20.93,0,1,0,61.93,37.82ZM24.69,69.4A3.67,3.67,0,0,1,21,65.74V26.6a3.67,3.67,0,0,1,3.66-3.66h31a3.67,3.67,0,0,1,3.66,3.66V37.82a20.9,20.9,0,0,0-14.39,7H35.3a1.3,1.3,0,0,0,0,2.59H43A20.79,20.79,0,0,0,39.87,56H35.3a1.3,1.3,0,0,0,0,2.59H39.7s0,.05,0,.08A20.81,20.81,0,0,0,42.63,69.4Zm35.95,7.66A18.34,18.34,0,1,1,79,58.72,18.37,18.37,0,0,1,60.63,77.06Z"></path> 
 <path d="M55.88,68.39a4.4,4.4,0,0,1-3.13-1.3l-5.41-5.41a1.3,1.3,0,1,1,1.83-1.83l5.41,5.41a1.84,1.84,0,0,0,2.6,0L72.1,50.34a1.3,1.3,0,1,1,1.83,1.83L59,67.09A4.4,4.4,0,0,1,55.88,68.39Z"></path> 
</svg>