<svg xmlns="http://www.w3.org/2000/svg" viewBox="0 0 100 100"> <path d="M82.72,55.13c0-.25-.31-6.23-3-9.58a10.32,10.32,0,0,0-5.28-3.2,17.38,17.38,0,0,0-5-.7H63.93V36.52A3.53,3.53,0,0,0,60.41,33H47.9V23.84H36V33H25.51a8.24,8.24,0,0,0-8.23,8.23V66a3.53,3.53,0,0,0,3.52,3.52h3.49a7.94,7.94,0,0,0,15.67,0H64.2a7.94,7.94,0,0,0,15.68-.07A3.53,3.53,0,0,0,82.73,66V55.19S82.73,55.15,82.72,55.13ZM38.57,40.76V26.44h6.74V40.76h9.21a.34.34,0,0,1,.23.59l-11,10a2.66,2.66,0,0,1-3.6,0l-11-10a.34.34,0,0,1,.23-.59Zm-6.45,32.8a5.35,5.35,0,1,1,5.35-5.35A5.35,5.35,0,0,1,32.12,73.56ZM40,66.92a7.94,7.94,0,0,0-15.67,0H20.8a.93.93,0,0,1-.93-.93V41.23a5.64,5.64,0,0,1,5.64-5.64H36v2.57H29.36a2.93,2.93,0,0,0-2,5.1l11,10a5.24,5.24,0,0,0,7.09,0l11-10a2.93,2.93,0,0,0-2-5.1H47.9V35.59H60.41a.93.93,0,0,1,.93.93v30.4H40ZM72,73.56a5.35,5.35,0,1,1,5.35-5.35A5.35,5.35,0,0,1,72,73.56ZM80.13,66a.92.92,0,0,1-.31.69h0a7.94,7.94,0,0,0-15.62.24h-.27V44.25H69.5a14.79,14.79,0,0,1,4.21.59,8,8,0,0,1,4,2.33c2.08,2.59,2.4,7.65,2.43,8.05Z"></path> 
 <circle cx="35.98" cy="34.29"></circle> 
</svg>