<svg xmlns="http://www.w3.org/2000/svg" viewBox="0 0 100 100"> <path d="M73.15,60.73a18.85,18.85,0,0,0,7.32-2.49A19.16,19.16,0,0,0,71,22.55a21.43,21.43,0,0,0-40.5,1.39,9.49,9.49,0,0,0-1.91-.19,9.28,9.28,0,0,0-9.29,8.71,14.75,14.75,0,0,0,5.58,28.4h7.25c0,.59.13,1.16.23,1.73A5.56,5.56,0,0,1,34,62.13a18.12,18.12,0,0,1-.23-2.5,4.65,4.65,0,0,1-2-.5h-7A13,13,0,0,1,20.11,34l.84-.32v-.9a7.61,7.61,0,0,1,9.4-7.07l1.28.33L32,24.77a19.68,19.68,0,0,1,37.38-1.36l.43.89h.89a17.41,17.41,0,0,1,8.83,32.43h0A17.15,17.15,0,0,1,73,59H71.81v-.37a4.8,4.8,0,0,1-1.81.51v.66A.21.21,0,0,0,70,60a18,18,0,0,1-2.86,9.3,31.78,31.78,0,0,1-2.31,2.63.87.87,0,1,0,1.25,1.22c.8-.81,1.43-1.53,1.86-2l13.2,13.16a3,3,0,0,1-4.31,4.31l-14.4-14.4-.59.39a18,18,0,0,1-2.3,1.27,5,5,0,0,1,.81,1.54,19.8,19.8,0,0,0,1.84-1l13.4,13.4A4.8,4.8,0,1,0,82.37,83L69,69.63a19.72,19.72,0,0,0,2.79-8.9Z"></path> 
 <path d="M51.84,79.35A19.93,19.93,0,1,1,71.64,59.42,19.89,19.89,0,0,1,51.84,79.35Zm0-37.87A17.93,17.93,0,1,0,69.64,59.42,17.88,17.88,0,0,0,51.84,41.49Z"></path> 
</svg>