<svg data-name="Layer 1" xmlns="http://www.w3.org/2000/svg" viewBox="0 0 209.37 209.37"><path d="M104.1,94.23c-5.83-6-11.26-11.65-16.79-17.2C75.06,64.72,62.72,52.5,50.5,40.17c-1.61-1.63-2.65-1.87-4.22,0a53.62,53.62,0,0,1-5.62,5.61c-1.83,1.58-1.87,2.65-.07,4.42C50.95,60.34,61.17,70.65,71.45,80.91,79,88.46,86.6,96,94.5,103.84L38.58,160l9.18,9.74,56.09-56.38,56.38,56.56,10.38-10.36-56.16-55.81c10-10,19.95-20,29.87-29.88,8-8,16-15.91,23.94-23.94,0.66-.66,1.31-2.42,1-2.78-2.8-3.08-5.82-6-9.24-9.36Z"></path></svg>