<svg version="1.1" id="1086294225" xmlns="http://www.w3.org/2000/svg" xmlns:xlink="http://www.w3.org/1999/xlink" x="0px" y="0px" viewBox="0 0 55 55" style="enable-background:new 0 0 55 55;" xml:space="preserve" class="svg u_1086294225" data-icon-custom="true" data-icon-name="Icon-04.svg"> <title id="1359311533">desktop and phone</title> 
 <style type="text/css">.st0-1350744931{fill:#E51753;}</style> 
 <path class="st0-1350744931" d="M34.9,40.2H34c-2,0-2.5,0.5-2.1,2.6c0.2,1,0.6,2,1.1,2.9c0.6,1.2,0.2,2.2-1,2.2c-4.6,0-9.2,0-13.9,0
	c-1.2,0-1.7-1.1-1-2.2c0.9-1.2,1.3-2.8,1.1-4.4c-0.1-0.8-0.4-1.2-1.2-1.2c-3.6,0-7.2,0-10.8,0c-1.6,0-1.9-0.3-1.9-2V8.5
	c0-1.6,0.4-2,1.9-2h37.7c1.6,0,1.9,0.3,1.9,2.1c0,3.7,0,7.5,0,11.5h4.1c1.4,0,1.7,0.4,1.7,1.9v24.2c0,1.3-0.5,1.9-1.7,1.9H36.6
	c-1.3,0-1.7-0.4-1.7-1.9c0-1.9,0-3.6,0-5.4L34.9,40.2z M43.3,20.1V9.3H6.8v28.2h28.1V22.2c0-1.7,0.3-2.1,2-2.1L43.3,20.1z
	 M37.4,22.8v16.7h11.8V22.8L37.4,22.8z M29.7,45.1l-0.4-4.9h-8.6l-0.4,4.9H29.7z M49.2,42.5H37.4v2.6h11.8L49.2,42.5z"></path> 
</svg>