<svg xmlns="http://www.w3.org/2000/svg" viewBox="0 0 70 70" id="1165824680" class="svg u_1165824680" data-icon-name="wp-location_map_thin"> <g id="1885533675"> <path d="M60,58.7l-5-18c-0.1-0.3-0.3-0.5-0.6-0.6l-9-4C45.2,36,45,36,44.8,36l-3,0.7c-0.5,0.8-0.9,1.5-1.3,2.3l3.5-0.8v6.1l-16,7.1
		l0-9.7l2.5-0.5c-0.2-0.6-0.5-1.3-0.8-1.9L27.1,40l-8.7-3.9c-0.2-0.1-0.5-0.1-0.8,0c-0.3,0.1-0.4,0.3-0.6,0.5l-7,17
		c-0.1,0.3-0.1,0.6,0,0.8c0.1,0.3,0.3,0.4,0.6,0.5l16,5c0.2,0.1,0.4,0.1,0.6,0L45,55l13.7,4.9c0.1,0,0.2,0.1,0.3,0.1
		c0.2,0,0.5-0.1,0.7-0.3C60,59.5,60.1,59.1,60,58.7z M18.5,38.3l7.5,3.3l0,8.9l-8.9-8.9L18.5,38.3z M12.3,53.4l4-9.6l9.7,9.7v4.2
		L12.3,53.4z M44,53.2l-16,4.4v-4l16-7.1V53.2z M55.5,50.1l-6-6l3.8-1.7L55.5,50.1z M46,38.5l5.5,2.5L46,43.5V38.5z M46,53.3v-7.6
		l1.5-0.7l9,9l1,3.4L46,53.3z" id="1940554648"></path> 
 <path d="M35,45c-0.8,0-1.3-0.5-1.6-1.5l0-0.1l-0.7-2.5c-1.3-3.7-3.6-7.5-6.7-11.1c-1.9-2.2-3-5-3-7.9C23,15.3,28.4,10,35,10
		c6.6,0,12,5.3,12,11.9c0,2.9-1.1,5.7-3,7.9c-3.1,3.6-5.4,7.3-6.7,11.1l-0.7,2.5C36.3,44.5,35.8,45,35,45z M35,12
		c-5.5,0-10,4.5-10,9.9c0,2.4,0.9,4.8,2.5,6.6c3.3,3.8,5.7,7.7,7.1,11.8l0.4,1.5l0.4-1.5c1.4-4.1,3.8-8.1,7.1-11.9
		c1.6-1.8,2.5-4.2,2.5-6.6C45,16.5,40.5,12,35,12z" id="1130770172"></path> 
 <path d="M35,27c-2.8,0-5-2.2-5-5s2.2-5,5-5c2.8,0,5,2.2,5,5S37.8,27,35,27z M35,19c-1.7,0-3,1.3-3,3s1.3,3,3,3c1.7,0,3-1.3,3-3
		S36.7,19,35,19z" id="1147831863"></path> 
</g> 
</svg>