<svg viewBox="0 0 24 24" id="loading-x-anim-1" aria-hidden="true" class="r-1p0dtai r-13gxpu9 r-4qtqp9 r-yyyyoo r-wy61xf r-1d2f490 r-bktk0 r-ywje51 r-dnmrzs r-u8s1d r-zchlnj r-1plcrui r-ipm5af r-lrvibr r-1blnp2b" xmlns="http://www.w3.org/2000/svg"><g><path d="M18.244 2.25h3.308l-7.227 8.26 8.502 11.24H16.17l-5.214-6.817L4.99 21.75H1.68l7.73-8.835L1.254 2.25H8.08l4.713 6.231zm-1.161 17.52h1.833L7.084 4.126H5.117z"></path><path d="M 10,30 C 120,252 201,241 61,123 h 163 s 156,160 1,75 C 46,248 223,184 156,236 h 255 s 211,40 84,2 C 214,241 114,235 198,250 h 190 s 60,105 148,71 C 24,119 158,30 28,16 h 44 s 220,34 12,37 C 31,5 191,65 2,175 h 25 s 222,122 79,110 C 158,64 86,116 13,74 h 18 s 219,11 115,96 C 21,145 135,137 224,39 h 155 s 133,154 197,23 C 251,197 71,102 126,6 h 4 s 33,178 252,135 C 20,219 107,74 166,81 h 162 s 111,204 52,101 C 231,133 7,139 150,42 h 143 s 230,38 245,211 C 35,206 70,108 126,181 h 91 s 54,235 177,196 C 48,154 181,52 15,92 h 26 s 44,159 56,25 C 118,155 184,127 102,129 h 15 s 84,241 143,138 C 61,159 60,134 205,73 h 218 s 70,148 83,176 C 21,224 13,240 92,6 h 162 s 90,52 223,140 C 225,212 15,200 121,121 h 30 s 149,152 140,38" fill="#1d9bf008"></path></g></svg>