<svg id="1079589160" data-name="Layer 1" xmlns="http://www.w3.org/2000/svg" viewBox="0 0 374 302" class="svg u_1079589160" data-icon-custom="true" data-icon-name="quotesArtboard 1 copy 2.svg" data-hover-effect="float"> <title id="1920586779">quotesArtboard 1 copy 2</title> 
 <path d="M202.79,210.89c0-16.06-.24-32.12.06-48.17.43-23.16,3.63-45.9,12-67.67,9.82-25.54,26-45.49,51.07-57.42A116.23,116.23,0,0,1,304,27.37a167,167,0,0,1,17.18-1.11c1.53,0,2,.4,2,1.95q-.07,25.83,0,51.67c0,1.83-.78,1.94-2.21,2-9.26.22-18.22,1.87-26.33,6.58-10.14,5.89-16.18,15.07-20.06,25.85-5.43,15.08-6.88,30.75-7,46.63,0,2,1.07,1.82,2.34,1.82,18.23,0,36.45,0,54.67-.06,2.41,0,3,.58,3,3q-.14,52.92,0,105.83c0,2.3-.4,3.07-2.93,3.07q-59.54-.13-119.06,0c-2.47,0-3-.68-3-3,.1-20.22.06-40.43.06-60.65Z" id="1618214448"></path> 
 <path d="M31.57,211.75c0-15.22-.16-30.45,0-45.67.29-22,2.55-43.66,9.46-64.65,8-24.46,22.11-44.34,44.27-58C98.94,35,113.8,30.21,129.51,27.9a155,155,0,0,1,20.88-1.63c1.62,0,2.11.43,2.1,2.07q-.08,25.71,0,51.42c0,1.65-.52,2.08-2.11,2.11C142,82,133.84,83.36,126.17,87c-9.63,4.51-16.16,12-20.7,21.44-5.81,12.06-7.82,25-9,38.14-.4,4.55-.27,9.14-.6,13.7-.15,2.19.64,2.56,2.64,2.55,18.22-.07,36.45,0,54.67-.09,2.16,0,2.78.49,2.78,2.73q-.12,53.29,0,106.58c0,2.15-.66,2.55-2.66,2.55q-59.65-.09-119.32,0c-2.16,0-2.55-.65-2.54-2.65.07-20.05,0-40.1,0-60.16Z" id="1143086501"></path> 
</svg>