<svg xmlns="http://www.w3.org/2000/svg" viewBox="0 0 100 100"> <path d="M78,48.5H32.1L74,29.8c0.3-0.1,0.4-0.3,0.5-0.6s0.1-0.5,0-0.8l-4.2-9.5c-0.2-0.5-0.8-0.8-1.4-0.5L21.6,39.5
	c-0.3,0.1-0.4,0.3-0.5,0.6c-0.1,0.3-0.1,0.5,0,0.8l4.1,9.1v30.6c0,0.6,0.5,1,1,1H78c0.6,0,1-0.5,1-1V49.5
	C79.1,48.9,78.6,48.5,78,48.5z M34,50.5l-6.8,6.8v-6.7l0.3-0.1H34z M26.7,48.5l-2.7-6.1l9,3.5L27,48.5H26.7z M61.4,33.1l-6.8,3
	l-11-4.2l6.8-3L61.4,33.1z M53.1,27.7l6.8-3l11,4.2l-6.8,3L53.1,27.7z M51.9,37.4l-6.8,3l-11-4.2l6.8-3L51.9,37.4z M42.4,41.6
	l-6.8,3l-11-4.2l6.8-3L42.4,41.6z M71.6,27l-9-3.5l6.2-2.8L71.6,27z M27.2,79.6V60.3l9.8-9.8h7.4l-8.6,8.6l1.5,1.5l10.1-10.1h7.4
	l-8.6,8.6l1.5,1.5l10.1-10.1h7.4l-8.6,8.6l1.5,1.5l10.1-10.1h7.4l-8.6,8.6l1.5,1.5L77,52v27.6H27.2z"></path> 
</svg>