<svg xmlns="http://www.w3.org/2000/svg" viewBox="0 0 100 100"> <path d="M50,81.3A31.94,31.94,0,1,1,81.94,49.35,32,32,0,0,1,50,81.3Zm0-61.57A29.63,29.63,0,1,0,79.63,49.35,29.67,29.67,0,0,0,50,19.72Z"></path> 
 <path d="M77.44,36.19a1.15,1.15,0,0,1-.82-2,11,11,0,1,0-17.06-13.8,1.15,1.15,0,1,1-1.93-1.26A13.34,13.34,0,1,1,78.26,35.85,1.15,1.15,0,0,1,77.44,36.19Z"></path> 
 <path d="M22.68,36.31a1.15,1.15,0,0,1-.8-.33A13.34,13.34,0,1,1,42.23,19a1.15,1.15,0,0,1-1.91,1.29A11,11,0,1,0,23.48,34.33a1.15,1.15,0,0,1-.8,2Z"></path> 
 <path d="M50,74.07A24.72,24.72,0,1,1,74.72,49.35,24.74,24.74,0,0,1,50,74.07Zm0-47.12A22.41,22.41,0,1,0,72.41,49.35,22.43,22.43,0,0,0,50,26.95Z"></path> 
 <path d="M50,74.07A24.72,24.72,0,1,1,74.72,49.35,24.74,24.74,0,0,1,50,74.07Zm0-47.12A22.41,22.41,0,1,0,72.41,49.35,22.43,22.43,0,0,0,50,26.95Z"></path> 
 <path d="M50,51.52a2.17,2.17,0,1,1,2.17-2.17A2.17,2.17,0,0,1,50,51.52Zm0-2.31a.14.14,0,0,0-.14.14c0,.15.28.15.28,0A.14.14,0,0,0,50,49.22Z"></path> 
 <path d="M50,50.51a1.15,1.15,0,0,1-.89-.42L36.43,34.58a1.15,1.15,0,1,1,1.79-1.46l12.67,15.5A1.15,1.15,0,0,1,50,50.51Z"></path> 
 <path d="M50,50.51a1.15,1.15,0,0,1-.8-2l10.09-9.82a1.15,1.15,0,0,1,1.61,1.65L50.8,50.18A1.15,1.15,0,0,1,50,50.51Z"></path> 
 <path d="M50,31.38a1.15,1.15,0,0,1-1.15-1.15V25.79a1.15,1.15,0,1,1,2.31,0v4.43A1.15,1.15,0,0,1,50,31.38Z"></path> 
 <path d="M50,74.07a1.15,1.15,0,0,1-1.15-1.15V68.48a1.15,1.15,0,1,1,2.31,0v4.43A1.15,1.15,0,0,1,50,74.07Z"></path> 
 <path d="M73.56,50.51H69.13a1.15,1.15,0,0,1,0-2.31h4.43a1.15,1.15,0,0,1,0,2.31Z"></path> 
 <path d="M30.87,50.51H26.44a1.15,1.15,0,0,1,0-2.31h4.43a1.15,1.15,0,0,1,0,2.31Z"></path> 
 <path d="M69.27,86.92A2.54,2.54,0,0,1,67,85.49l-4-8.25a1.15,1.15,0,1,1,2.08-1l4,8.25a.25.25,0,0,0,.27.11l1.24-.46a.25.25,0,0,0,.13-.25L68,73.77a1.15,1.15,0,0,1,2.23-.59L72.93,83.3a2.54,2.54,0,0,1-1.56,3l-1.24.46A2.47,2.47,0,0,1,69.27,86.92Z"></path> 
 <path d="M30.73,86.92a2.47,2.47,0,0,1-.86-.15l-1.24-.46a2.54,2.54,0,0,1-1.57-3l2.68-10.12a1.15,1.15,0,1,1,2.23.59L29.3,83.89a.25.25,0,0,0,.13.25l1.24.46a.25.25,0,0,0,.27-.11l4-8.25a1.15,1.15,0,0,1,2.08,1l-4,8.25A2.54,2.54,0,0,1,30.73,86.92Z"></path> 
</svg>