<svg version="1.1" id="1646009759" xmlns="http://www.w3.org/2000/svg" xmlns:xlink="http://www.w3.org/1999/xlink" x="0px" y="0px" viewBox="0 0 230 230" style="enable-background:new 0 0 230 230;" xml:space="preserve" class="svg u_1646009759" data-icon-custom="true" data-icon-name="digital marketing.svg"> <title id="1403551301">Bulls eye</title> 
 <style type="text/css">.st0-1880576652{fill:#EE2C24;}</style> 
 <g transform="translate(0.000000,230.000000) scale(0.100000,-0.100000)"> <path class="st0-1880576652" d="M1548,1843l-178-178v-97c0-53-4-107-9-120s-53-67-107-121c-91-91-100-97-138-97c-118,0-191-123-136-230
		c70-137,290-85,290,68c0,44,3,48,105,151l104,106l112,1l112,2l181,181l181,181h-108c-59,0-107,3-107,7c0,5,30,36,68,70l67,62
		l-57,58l-58,58l-70-70l-69-69l-3,107l-3,107L1548,1843z"></path> 
 <path class="st0-1880576652" d="M1011,1860c-322-44-583-280-662-600c-18-72-21-104-16-220c5-146,21-209,79-325c83-165,240-306,417-374
		c114-44,183-54,328-49c110,4,140,9,215,35c352,123,573,475,528,839c-6,49-16,93-21,99c-7,7-29-11-68-53l-58-63l-6-102
		c-10-177-62-294-187-418c-160-159-377-222-586-169c-250,63-428,246-478,492c-20,96-20,145-1,245c56,294,324,513,631,513h66l59,59
		c32,32,59,61,59,64C1310,1855,1109,1873,1011,1860z"></path> 
 <path class="st0-1880576652" d="M1003,1536c-183-45-321-196-353-388c-34-199,72-404,254-493c113-55,213-68,321-40c216,56,365,242,365,456
		c0,88-1,89-89,89h-76l3-70c5-104-17-161-92-235c-78-77-136-100-240-93c-272,18-396,351-199,540c60,58,123,82,220,82l83,1v76v76
		l-37,7C1109,1552,1063,1550,1003,1536z"></path> 
</g> 
</svg>