<svg xmlns="http://www.w3.org/2000/svg" viewBox="0 0 70 70" id="1288287347" class="svg u_1288287347" data-icon-name="wp-alarm_clock_thin"> <title id="1816255022">time 1</title> 
 <g> <path d="M35,22c-0.6,0-1,0.4-1,1v14.6l-6.7,6.7c-0.4,0.4-0.4,1,0,1.4c0.2,0.2,0.5,0.3,0.7,0.3c0.3,0,0.5-0.1,0.7-0.3l7-7
		c0.2-0.2,0.3-0.4,0.3-0.7V23C36,22.5,35.6,22,35,22z"></path> 
 <path d="M26.6,12.7c0-0.3-0.1-0.5-0.2-0.7c-2.5-3-7.8-2.6-12,1c-4.2,3.5-5.6,8.7-3,11.7c0.2,0.2,0.4,0.3,0.7,0.4c0,0,0.1,0,0.1,0
		c0.2,0,0.5-0.1,0.6-0.2l13.6-11.4C26.4,13.2,26.5,13,26.6,12.7z M12.3,22.5c-0.9-2.2,0.5-5.6,3.3-8c1.9-1.6,4.2-2.5,6.1-2.5
		c0.9,0,1.7,0.2,2.4,0.6L12.3,22.5z"></path> 
 <path d="M55.7,13c-4.2-3.5-9.5-4-12-1c-0.2,0.2-0.3,0.5-0.2,0.7c0,0.3,0.1,0.5,0.4,0.7l13.6,11.4c0.2,0.2,0.4,0.2,0.6,0.2
		c0,0,0.1,0,0.1,0c0.3,0,0.5-0.2,0.7-0.4C61.3,21.6,59.9,16.5,55.7,13z M57.7,22.5L46,12.6c2-1.2,5.6-0.5,8.4,1.9
		C57.3,16.9,58.6,20.3,57.7,22.5z"></path> 
 <path d="M35,16c-12.1,0-22,9.9-22,22c0,5.8,2.2,11,5.9,14.9l-2.7,4.5c-0.3,0.5-0.1,1.1,0.3,1.4C16.6,59,16.8,59,17,59
		c0.3,0,0.7-0.2,0.9-0.5l2.5-4.1c3.9,3.5,9,5.6,14.7,5.6c5.6,0,10.8-2.1,14.7-5.6l2.5,4.1c0.2,0.3,0.5,0.5,0.9,0.5
		c0.2,0,0.4,0,0.5-0.1c0.5-0.3,0.6-0.9,0.3-1.4l-2.7-4.5C54.8,49,57,43.8,57,38C57,25.9,47.1,16,35,16z M15,38c0-11,9-20,20-20
		c11,0,20,9,20,20s-9,20-20,20C24,58,15,49,15,38z"></path> 
</g> 
</svg>