<svg version="1.1" id="1350744931" xmlns="http://www.w3.org/2000/svg" xmlns:xlink="http://www.w3.org/1999/xlink" x="0px" y="0px" viewBox="0 0 230 230" style="enable-background:new 0 0 230 230;" xml:space="preserve" class="svg u_1350744931" data-icon-custom="true" data-icon-name="Email Marketing.svg"> <title id="1785391720">message</title> 
 <style type="text/css">.st0-1350744931{fill:#EF3D3B;}</style> 
 <g transform="translate(0.000000,230.000000) scale(0.100000,-0.100000)"> <path class="st0-1350744931" d="M332,1820c-70-36-104-72-141-150l-26-55v-510V595l26-56c31-66,84-120,148-151l46-23h785h785l50,27
		c60,31,104,77,136,138l24,45v530v530l-27,51c-28,53-85,111-140,141c-31,17-83,18-818,21l-786,2L332,1820z M1936,1694
		c19-9,34-19,34-23s-44-42-97-86c-432-350-653-523-676-529c-42-10-77,3-142,52c-124,96-695,553-695,558c0,2,15,13,33,24
		c31,19,52,20,770,20C1822,1710,1906,1708,1936,1694z M2007,591c-16-31-36-52-66-68l-44-23h-728c-490,0-737,3-756,11
		c-45,17-82,60-98,113c-12,40-15,128-15,468c0,230,4,418,9,418c4,0,163-124,352-275s364-285,389-297c62-32,177-32,235-1
		c22,12,112,79,200,150s246,198,350,282l190,153l3-443l2-444L2007,591z"></path> 
</g> 
</svg>