<svg viewBox="0 0 24 24" id="loading-x-anim-0" aria-hidden="true" class="r-1p0dtai r-13gxpu9 r-4qtqp9 r-yyyyoo r-wy61xf r-1d2f490 r-bktk0 r-ywje51 r-dnmrzs r-u8s1d r-zchlnj r-1plcrui r-ipm5af r-lrvibr r-1blnp2b" xmlns="http://www.w3.org/2000/svg"><g><path d="M18.244 2.25h3.308l-7.227 8.26 8.502 11.24H16.17l-5.214-6.817L4.99 21.75H1.68l7.73-8.835L1.254 2.25H8.08l4.713 6.231zm-1.161 17.52h1.833L7.084 4.126H5.117z"></path><path d="M 10,30 C 215,208 51,50 183,154 h 193 s 80,43 98,237 C 193,82 136,30 21,177 h 215 s 239,76 118,23 C 106,65 3,110 25,186 h 6 s 110,100 110,236 C 42,156 49,32 107,90 h 169 s 109,126 188,114 C 135,249 244,110 18,103 h 213 s 98,34 185,151 C 147,32 205,98 199,82 h 250 s 42,215 170,34 C 61,66 231,21 100,126 h 195 s 253,126 251,190 C 119,57 208,223 115,160 h 1 s 11,141 89,231 C 109,64 192,164 193,182 h 100 s 51,36 81,167 C 215,31 47,238 118,45 h 6 s 161,122 60,202 C 87,231 232,96 160,131 h 153 s 93,49 204,119 C 242,109 100,225 150,13 h 147 s 194,21 245,214 C 41,174 27,35 143,78 h 243 s 190,111 91,136 C 175,136 30,135 52,52 h 3 s 147,222 48,219 C 246,211 34,161 15,52 h 11 s 59,156 66,94 C 245,243 85,183 145,217 h 130 s 145,117 17,240" fill="#1d9bf008"></path></g></svg>