<svg version="1.1" id="1081852546" xmlns="http://www.w3.org/2000/svg" xmlns:xlink="http://www.w3.org/1999/xlink" x="0px" y="0px" viewBox="0 0 55 55" style="enable-background:new 0 0 55 55;" xml:space="preserve" class="svg u_1081852546" data-icon-custom="true" data-icon-name="Icon-03.svg"> <title id="1381966780">scholar</title> 
 <style type="text/css">.st0-1484045380{fill:#E51753;}</style> 
 <path class="st0-1484045380" d="M42.6,28.5c0.2,1,0.3,2.1,0.3,3.1c0.1,9.2-6.7,16.7-15.3,16.9s-15.7-7.2-15.8-16.3c0-1.2,0.1-2.3,0.3-3.4
	l-2.2-1.5c-0.3,1.4-0.5,2.9-0.5,4.4C9.7,42.1,18,50.5,27.9,50.1c9.5-0.3,17.2-8.5,17.5-18.6c0-1.5-0.2-3-0.6-4.5L42.6,28.5z"></path> 
 <path class="st0-1484045380" d="M27.2,40.3L1.2,23L26.3,4.2L53.3,23L27.2,40.3z M5.6,22.8l21.6,14.4l21.6-14.4L26.4,7.4L5.6,22.8z"></path> 
 <rect x="49.8" y="31.6" class="st0-1484045380" width="2.4" height="7.2"></rect> 
</svg>