<svg xmlns="http://www.w3.org/2000/svg" viewBox="0 0 100 100"> <g> <path d="M50,23.5c-11,0-19.9,8.9-19.9,19.9S39,63.3,50,63.3s19.9-8.9,19.9-19.9S61,23.5,50,23.5z M50,60.9
		c-9.6,0-17.5-7.8-17.5-17.5C32.5,33.8,40.4,26,50,26s17.5,7.8,17.5,17.5C67.5,53.1,59.6,60.9,50,60.9z"></path> 
 <path d="M88.3,73.7L75.6,61l2.2-1.3V51l4.4-7.6l-4.4-7.6v-8.7l-7.6-4.4l-4.4-7.6h-8.7l-7.6-4.4L42,15.2h-8.7l-4.4,7.6l-7.6,4.4v8.7
		L17,43.4l4.4,7.6v8.7l2.7,1.6L11.7,73.7c-0.4,0.4-0.5,0.9-0.3,1.4s0.6,0.8,1.2,0.8h11.2v11.2c0,0.5,0.3,1,0.8,1.2
		c0.2,0.1,0.3,0.1,0.5,0.1c0.3,0,0.6-0.1,0.9-0.4l16.2-16.2l7.5,4.3l7.6-4.4h0.6L74.2,88c0.2,0.2,0.6,0.4,0.9,0.4
		c0.2,0,0.3,0,0.5-0.1c0.5-0.2,0.8-0.6,0.8-1.2V75.8h11.2c0.5,0,1-0.3,1.2-0.8C88.7,74.6,88.6,74.1,88.3,73.7z M25.1,73.4h-9.5
		l10.7-10.7l2.6,1.5l4.4,7.6h5.4L26.3,84.1v-9.5C26.3,73.9,25.8,73.4,25.1,73.4z M56.5,69.2l-6.9,4l-6.9-4h-8l-4-6.9l-6.9-4v-8
		l-4-6.9l4-6.9v-8l6.9-4l4-6.9h8l6.9-4l6.9,4h8l4,6.9l6.9,4v8l4,6.9l-4,6.9v8l-6.9,4l-4,6.9H56.5z M74.9,73.4
		c-0.7,0-1.2,0.6-1.2,1.2v9.5L61.3,71.7h4.6l4.4-7.6l3.1-1.8l11,11L74.9,73.4L74.9,73.4z"></path> 
</g> 
</svg>