<svg xmlns="http://www.w3.org/2000/svg" viewBox="0 0 100 100"> <path d="M50,38.11A17.63,17.63,0,1,0,67.63,55.74,17.65,17.65,0,0,0,50,38.11ZM50,71.3A15.56,15.56,0,1,1,65.56,55.74,15.58,15.58,0,0,1,50,71.3Z"></path> 
 <path d="M52,55.48l-1.61-.75a12.33,12.33,0,0,1-2.21-1.21,2.75,2.75,0,0,1-.77-1.06A3.8,3.8,0,0,1,47.1,51a2.87,2.87,0,0,1,1-2.23,3.69,3.69,0,0,1,2.57-.87,9.08,9.08,0,0,1,2.14.26,12.26,12.26,0,0,1,1.92.58l0-2.52a7.6,7.6,0,0,0-1.37-.46,8.35,8.35,0,0,0-1.64-.29V43.3H49.06v2.32a5.44,5.44,0,0,0-3.38,1.71,4.61,4.61,0,0,0-1.32,3.26,6.43,6.43,0,0,0,1,3.7,7.5,7.5,0,0,0,3.12,2.44l1.26.59a11.47,11.47,0,0,1,2.08,1.17,2.94,2.94,0,0,1,.82,1.07,3.32,3.32,0,0,1,.29,1.39,2.74,2.74,0,0,1-.8,2,3,3,0,0,1-2.19.79,6.66,6.66,0,0,1-2.08-.37,6.28,6.28,0,0,1-1.67-.76v2.55A6.15,6.15,0,0,0,49.1,66v2.15H51.7l0-2.29a5.11,5.11,0,0,0,2.73-1.67,5,5,0,0,0,1.2-3.31,5.87,5.87,0,0,0-.81-3.16A6.44,6.44,0,0,0,52,55.48Z"></path> 
 <path d="M90.37,32.17h-7V25.83H77.95V20.69H22.05v5.14H16.64v6.34h-7V79.31H90.37ZM24.12,22.75H75.88v3.07H24.12ZM18.7,27.89H81.3v4.28H18.7ZM88.31,77.25H11.69v-43H88.31Z"></path> 
 <path d="M76.77,55a1.87,1.87,0,1,0,1.87,1.87A1.87,1.87,0,0,0,76.77,55Zm-.19,1.87a.19.19,0,1,1,.38,0C77,57.07,76.58,57.07,76.58,56.86Z"></path> 
 <path d="M23.23,55a1.87,1.87,0,1,0,1.87,1.87A1.87,1.87,0,0,0,23.23,55ZM23,56.86a.19.19,0,1,1,.38,0C23.42,57.07,23,57.07,23,56.86Z"></path> 
</svg>