<svg xmlns="http://www.w3.org/2000/svg" viewBox="0 0 100 100"> <path d="M56.87,48.46a1.3,1.3,0,0,0-1.3,1.3v1.53H44.42V49.76a1.3,1.3,0,0,0-2.59,0v2.83a1.3,1.3,0,0,0,1.3,1.3H56.87a1.3,1.3,0,0,0,1.3-1.3V49.76A1.3,1.3,0,0,0,56.87,48.46Z"></path> 
 <path d="M66.85,17.7H33.15A7.15,7.15,0,0,0,26,24.85V75.15a7.15,7.15,0,0,0,7.14,7.14h33.7A7.15,7.15,0,0,0,74,75.15V24.85A7.15,7.15,0,0,0,66.85,17.7ZM28.6,41H71.4V59H28.6Zm0-16.12a4.55,4.55,0,0,1,4.55-4.55h33.7a4.55,4.55,0,0,1,4.55,4.55V38.37H28.6ZM71.4,75.15a4.55,4.55,0,0,1-4.55,4.55H33.15a4.55,4.55,0,0,1-4.55-4.55V61.63H71.4Z"></path> 
 <path d="M56.87,27.8a1.3,1.3,0,0,0-1.3,1.3v1.53H44.42V29.09a1.3,1.3,0,0,0-2.59,0v2.83a1.3,1.3,0,0,0,1.3,1.3H56.87a1.3,1.3,0,0,0,1.3-1.3V29.09A1.3,1.3,0,0,0,56.87,27.8Z"></path> 
 <path d="M56.87,69.13a1.3,1.3,0,0,0-1.3,1.3V72H44.42V70.42a1.3,1.3,0,0,0-2.59,0v2.83a1.3,1.3,0,0,0,1.3,1.3H56.87a1.3,1.3,0,0,0,1.3-1.3V70.42A1.3,1.3,0,0,0,56.87,69.13Z"></path> 
</svg>