<svg width="24px" height="24px" xmlns="http://www.w3.org/2000/svg" xmlns:xlink="http://www.w3.org/1999/xlink"><title>quote</title><desc>Created with Sketch.</desc><defs></defs><g stroke="none" stroke-width="1" fill="none" fill-rule="evenodd"><g fill-rule="nonzero" fill="#4A4A4A"><g transform="translate(10.000000, 11.000000)"><path d="M9.68229167,9.75 L10.4783857,9.75 L10.4783857,9.75 C10.8611857,9.75 11.2103962,9.53147077 11.3777535,9.18719271 L12.8993679,6.0570147 L12.8993679,6.0570147 C12.9655901,5.92078603 13,5.77129358 13,5.61982199 L13,1 L13,1 C13,0.44771525 12.5522847,1.20591542e-16 12,2.22044605e-16 L8.3125,0 L8.3125,0 C7.76021525,1.01453063e-16 7.3125,0.44771525 7.3125,1 L7.3125,4.85 L7.3125,4.85 C7.3125,5.40228475 7.76021525,5.85 8.3125,5.85 L8.734375,5.85 L8.734375,5.85 C9.22578821,5.85 9.62415732,6.24836912 9.62415732,6.73978232 C9.62415732,6.87455906 9.59354003,7.0075748 9.53461662,7.12878867 L8.88205005,8.47121133 L8.88205005,8.47121133 C8.66720778,8.91317258 8.85132408,9.44561702 9.29328532,9.6604593 C9.41449919,9.7193827 9.54751493,9.75 9.68229167,9.75 Z"></path><path d="M2.36979167,9.75 L3.16588569,9.75 L3.16588569,9.75 C3.54868575,9.75 3.89789615,9.53147077 4.06525355,9.18719271 L5.58686785,6.0570147 L5.58686785,6.0570147 C5.65309013,5.92078603 5.6875,5.77129358 5.6875,5.61982199 L5.6875,1 L5.6875,1 C5.6875,0.44771525 5.23978475,1.20591542e-16 4.6875,2.22044605e-16 L1,0 L1,0 C0.44771525,1.01453063e-16 -6.76353751e-17,0.44771525 0,1 L0,4.85 L0,4.85 C-4.22892021e-16,5.40228475 0.44771525,5.85 1,5.85 L1.421875,5.85 L1.421875,5.85 C1.91328821,5.85 2.31165732,6.24836912 2.31165732,6.73978232 C2.31165732,6.87455906 2.28104003,7.0075748 2.22211662,7.12878867 L1.56955005,8.47121133 L1.56955005,8.47121133 C1.35470778,8.91317258 1.53882408,9.44561702 1.98078532,9.6604593 C2.10199919,9.7193827 2.23501493,9.75 2.36979167,9.75 Z"></path></g></g></g></svg>