<svg version="1.1" id="1084837151" xmlns="http://www.w3.org/2000/svg" xmlns:xlink="http://www.w3.org/1999/xlink" x="0px" y="0px" viewBox="0 0 55 55" style="enable-background:new 0 0 55 55;" xml:space="preserve" class="svg u_1084837151" data-icon-custom="true" data-icon-name="Icon-02.svg"> <title id="1820835163">birthday cake</title> 
 <style type="text/css">.st0-1182286308{fill:#E51753;}</style> 
 <path class="st0-1182286308" d="M27.2,27.5C15.7,27.5,4,24.9,4,20s11.7-7.5,23.3-7.5s23.3,2.6,23.3,7.5S38.8,27.5,27.2,27.5z M27.2,14.9
	c-12.8,0-20.9,3-20.9,5.1s8.1,5.1,20.9,5.1s20.9-3,20.9-5.1S40,14.9,27.2,14.9z"></path> 
 <path class="st0-1182286308" d="M28,48.2h-0.8C9.4,48,4.4,41.5,4.2,41.2L4,40.9V20h2.3v20c1.1,1.1,6.4,5.7,20.9,5.8H28
	c14.5,0,19.3-4.7,20.2-5.9V20.6h2.3v20.2L50.4,41C50.2,41.3,45.8,48.2,28,48.2z"></path> 
 <rect x="26.1" y="6.4" class="st0-1182286308" width="2.3" height="10.3"></rect> 
 <rect x="39.2" y="8.6" class="st0-1182286308" width="2.3" height="10.3"></rect> 
 <rect x="32.6" y="11.6" class="st0-1182286308" width="2.3" height="10.3"></rect> 
 <rect x="19.2" y="11.6" class="st0-1182286308" width="2.3" height="10.3"></rect> 
 <rect x="12.3" y="8.6" class="st0-1182286308" width="2.3" height="10.3"></rect> 
 <path class="st0-1182286308" d="M27.5,39.4c-1.5,0-3-0.7-4-1.8c-0.2-0.2-0.4-0.4-0.6-0.6c-0.9-1.1-2.5-2.9-3.6-2.9l0,0c-0.1,0-0.5,0-0.9,0.6
	c-1.6,2.1-3.3,3.1-5,3c-1.7-0.2-3.2-1.2-3.9-2.8c-0.8-1.3-1.7-2.1-2.3-2.2c-0.4,0-0.8,0.2-1,0.5l-1.9-1.4c0.7-0.9,1.8-1.5,3-1.5
	c1.6,0,2.9,1.2,4.2,3.3c0.4,0.7,1.1,1.6,2,1.6c0.9,0.1,1.9-0.7,3-2.1c0.6-0.9,1.6-1.5,2.7-1.6h0.1c2.1,0,4,2.2,5.3,3.8
	c0.2,0.2,0.4,0.4,0.5,0.6c0.7,0.7,1.6,1.1,2.6,1c1.3-0.2,2.4-1.3,3.3-3.1s1.9-2.7,3.1-2.8c2-0.2,3.5,1.7,4.6,3.1
	c0.3,0.3,0.5,0.7,0.7,0.9c0.5,0.5,0.6,0.5,0.6,0.5l0,0c0.6,0,1.9-1.7,4.1-4.9c0.5-0.9,1.5-1.4,2.5-1.3c1.4,0.1,2.6,1.3,3.6,3.6
	l-2.1,1c-0.8-1.7-1.4-2.2-1.7-2.3s-0.3,0.2-0.4,0.2c-2.9,4.3-4.2,5.7-5.7,5.8c-1,0-1.9-0.4-2.5-1.1c-0.3-0.3-0.6-0.6-0.9-1.1
	c-0.6-0.8-1.8-2.3-2.5-2.2c-0.3,0-0.8,0.5-1.3,1.6c-1.6,3.3-3.7,4.3-5.1,4.5C27.9,39.4,27.7,39.4,27.5,39.4z"></path> 
</svg>