<svg xmlns="http://www.w3.org/2000/svg" viewBox="0 0 100 100"> <path d="M80.76,23.18,67.14,57.4h0l-2.68,6.74a3.32,3.32,0,0,0,1.61,4.22l-1.91,4.8a1,1,0,1,0,1.92.76L68,69.12a3.29,3.29,0,0,0,4.07-2l3.44-8.65h0L89.12,24.29h0l1-2.57a3.36,3.36,0,0,0-1.87-4.35l-1.37-.55a3.35,3.35,0,0,0-4.35,1.87l-1,2.57h0L81,22.45l-.29.73ZM70.14,66.4a1.29,1.29,0,0,1-1.67.72l-1.37-.55h0a1.29,1.29,0,0,1-.72-1.67l2.68-6.74,1.88.75,1.88.75Zm3.44-8.65L71.7,57l-1.88-.75L82.67,23.94l1.88.75,1.88.75ZM83.44,22l1-2.57a1.29,1.29,0,0,1,1.67-.72l1.37.55A1.29,1.29,0,0,1,88.23,21l-1,2.57-1.88-.75Z"></path> 
 <path d="M84.09,50.36a1,1,0,1,0-2.06,0v31H11.68V37.5H71.58a1,1,0,1,0,0-2.06h-62v48H84.09Z"></path> 
 <path d="M22.31,73.53a1,1,0,0,0,1,1H60.2a1,1,0,1,0,0-2.06H23.34A1,1,0,0,0,22.31,73.53Z"></path> 
 <path d="M60.2,52.14H40.38a1,1,0,0,0,0,2.06H60.2a1,1,0,0,0,0-2.06Z"></path> 
 <path d="M60.2,44.56H40.38a1,1,0,0,0,0,2.06H60.2a1,1,0,0,0,0-2.06Z"></path> 
 <path d="M60.2,59.73H40.38a1,1,0,0,0,0,2.06H60.2a1,1,0,0,0,0-2.06Z"></path> 
 <path d="M29.06,59.47a2.7,2.7,0,0,1-2.69-2.64V56.6H24.9v.25a4.17,4.17,0,0,0,3.42,4V62h1.47v-1.1a4.12,4.12,0,0,0,2.48-6.69A4.83,4.83,0,0,0,30,52.73l-.62-.21a6.74,6.74,0,0,1-2-.88,2.63,2.63,0,0,1-1-2.07,2.69,2.69,0,0,1,5.38,0v.24h1.47v-.24a4.16,4.16,0,0,0-3.42-4.09v-1.1H28.32v1.1a4.16,4.16,0,0,0-3.42,4.09,4.31,4.31,0,0,0,3,4l.77.26a11,11,0,0,1,1.31.49,2.75,2.75,0,0,1,1.74,2.47A2.69,2.69,0,0,1,29.06,59.47Z"></path> 
</svg>