<svg xmlns="http://www.w3.org/2000/svg" viewBox="0 0 100 100"> <g> <path d="M81.6,18.4L69.3,6.1c-0.2-0.2-0.5-0.4-0.9-0.4H19.3c-0.7,0-1.2,0.5-1.2,1.2v73.7c0,0.7,0.5,1.2,1.2,1.2h35.6v12.4l7.4-4.2
		l7.4,4.2V81.9h11.1c0.7,0,1.2-0.5,1.2-1.2V19.3C81.9,18.9,81.8,18.6,81.6,18.4z M69.6,9.9l8.1,8.1h-8.1V9.9z M62.3,76.6
		c-6.1,0-11.1-5-11.1-11.1s5-11.1,11.1-11.1s11.1,5,11.1,11.1S68.4,76.6,62.3,76.6z M62.3,87.2L57.4,90v-12c1.5,0.6,3.2,0.9,4.9,0.9
		s3.4-0.3,4.9-0.9v12L62.3,87.2z M79.5,79.4h-9.8v-2.6c3.7-2.4,6.1-6.6,6.1-11.3c0-7.4-6.1-13.5-13.5-13.5s-13.5,6.1-13.5,13.5
		c0,4.7,2.4,8.9,6.1,11.3v2.6H20.5V8.2h46.7v11.1c0,0.7,0.5,1.2,1.2,1.2h11.1V79.4z"></path> 
 <rect x="31.6" y="30.3" width="36.8" height="2.5"></rect> 
 <rect x="31.6" y="42.6" width="24.6" height="2.5"></rect> 
</g> 
</svg>