<svg xmlns="http://www.w3.org/2000/svg" fill="currentColor" viewBox="0 0 24 24" class="w-12 h-12"><path fill-rule="evenodd" d="m3.032 5.352.082.226c.027.075.08.123.158.143a.206.206 0 0 0 .2-.06l.702-.66h.012v2.83c0 .091.031.17.094.238a.318.318 0 0 0 .234.101h.375a.306.306 0 0 0 .234-.101.338.338 0 0 0 .094-.238V4.17a.338.338 0 0 0-.094-.238.306.306 0 0 0-.234-.1h-.375a.825.825 0 0 0-.574.23l-.785.75a.496.496 0 0 0-.14.25.494.494 0 0 0 .017.291ZM9 5a1 1 0 0 0 0 2h11a1 1 0 1 0 0-2H9Zm0 6a1 1 0 1 0 0 2h11a1 1 0 1 0 0-2H9Zm-1 7a1 1 0 0 1 1-1h11a1 1 0 1 1 0 2H9a1 1 0 0 1-1-1Zm-4.9-1.467a.32.32 0 0 0 .234.1h1.318c.004 0 .006.002.006.006v.006l-.832.72a.689.689 0 0 0-.252.545v.012a.33.33 0 0 0 .334.328c.395.004.664.045.809.123.144.078.217.213.217.404a.544.544 0 0 1-.188.44c-.125.105-.3.158-.527.158-.227 0-.471-.055-.733-.164a.303.303 0 0 0-.24.006.264.264 0 0 0-.158.17l-.041.129a.393.393 0 0 0 .006.275.34.34 0 0 0 .193.188c.324.125.676.187 1.055.187.52 0 .918-.121 1.195-.363s.416-.59.416-1.043c0-.36-.103-.645-.31-.856-.204-.21-.475-.316-.815-.316h-.07c-.004 0-.006-.002-.006-.006v-.006l.885-.732a.672.672 0 0 0 .258-.545v-.135a.32.32 0 0 0-.1-.234.32.32 0 0 0-.234-.1H3.334a.32.32 0 0 0-.234.1.32.32 0 0 0-.1.234v.135c0 .09.033.168.1.234Zm2.83-5.431c0 .23-.045.445-.135.644-.086.2-.244.426-.475.68-.226.25-.554.556-.984.92-.004.004-.006.008-.006.011 0 .004.002.006.006.006h1.283c.09 0 .166.034.229.1a.32.32 0 0 1 .1.234v.135a.32.32 0 0 1-.1.234.302.302 0 0 1-.229.1H3.352a.327.327 0 0 1-.334-.334v-.135c0-.218.087-.396.263-.533.45-.355.793-.65 1.031-.885.239-.238.397-.433.475-.586a1.1 1.1 0 0 0 .117-.498c0-.36-.199-.539-.597-.539-.227 0-.508.086-.844.258a.274.274 0 0 1-.234.012.246.246 0 0 1-.153-.164l-.053-.164a.434.434 0 0 1 0-.282.34.34 0 0 1 .182-.199 2.848 2.848 0 0 1 1.248-.287c.473 0 .836.113 1.09.34.258.223.387.533.387.932Z" clip-rule="evenodd"></path></svg>