<svg id="1149439716" data-name="Layer 1" xmlns="http://www.w3.org/2000/svg" viewBox="0 0 325.56 302.99" class="svg u_1149439716" data-icon-custom="true" data-icon-name="quotes2.svg"> <title id="1255112139">quotes2Artboard 2</title> 
 <path d="M185.65,209.22c.09-16.43-.36-35.76.88-55.06,1.68-26.14,6.46-51.5,19.36-74.69,15.12-27.18,38.62-42.88,68.7-49.26a163.4,163.4,0,0,1,28.24-3.12c2.76-.09,3.76.6,3.74,3.54q-.19,24.24,0,48.49c0,2.94-1.13,3.75-3.77,3.75A51,51,0,0,0,285.21,86c-17.14,6.19-25.11,19.88-29.61,36.33-3.27,11.94-4,24.23-4.9,36.52-.26,3.79.86,4.86,4.63,4.82,16.83-.19,33.66,0,50.49-.17,4.17-.06,5.31,1.16,5.3,5.31q-.24,50.73,0,101.47c0,4-.89,5.43-5.2,5.41q-57.48-.26-115,0c-4.56,0-5.45-1.37-5.4-5.62C185.78,250.77,185.65,231.44,185.65,209.22Z" id="1585641764"></path> 
 <path d="M76.67,275.6c-19.16,0-38.32-.09-57.47.08-3.66,0-4.77-.88-4.75-4.7.17-34.32-.07-68.64.18-103,.17-23.38,2.68-46.49,10.63-68.7,13.46-37.56,39.88-60.41,78.65-69.14a150,150,0,0,1,27.74-3.08c2.89-.11,4.11.46,4.08,3.74q-.25,24,0,48c0,3.11-1.09,4.09-4,4.06a53.37,53.37,0,0,0-19,3.48c-11.24,4.14-19.14,12-24.07,22.7-7.54,16.35-9.43,33.82-9.43,51.61,0,3.65,2.46,2.9,4.45,2.9,16.5,0,33,.22,49.48-.09,4.86-.09,6.08,1.34,6,6.11q-.31,50.24,0,100.46c0,4.28-.91,5.73-5.47,5.66C114.66,275.45,95.66,275.6,76.67,275.6Z" id="1521940931"></path> 
</svg>