<svg xmlns="http://www.w3.org/2000/svg" viewBox="0 0 100 100"> <path d="M82.28,33.15a3.18,3.18,0,0,0-1.08-1.44c-.8-.56-2-.82-4.56.23A31.13,31.13,0,0,0,20.16,50q0,1.15.08,2.28l0,.07c-3.11,5.64-3.47,10.36-1,13.28a9.54,9.54,0,0,0,7.51,3.43,31.13,31.13,0,0,0,53.43-30.8C82.49,35.61,82.63,34.18,82.28,33.15Zm-2.57.69h-.07l.09,0,0,0,0,.07c0,.14-.09,1-2.2,3.17l-.22.22-.2.2-.12.12c-.86.85-2,1.88-3.49,3.12l0,0-.63.52,0,0-.7.57,0,0-.68.54-.13.1-.76.59a2.82,2.82,0,0,0-.82,1l0,0-.06.15-.06.16,0,.09c0,.08,0,.16-.06.24s0,.12,0,.18a2.81,2.81,0,0,0,0,.5l.15,3.1c0,.66.08,1.7.1,2.3v.46l.63,14.51L64.28,51.15a2.27,2.27,0,0,0-1.45-1.31l-.3-.07h-.09l-.21,0h-.1l-.27,0h0l-.29.07-.09,0-.21.08-.08,0-.27.15c-2.57,1.73-4.76,3.14-6.23,4.05l-.06,0-.36.22-.14.08-.23.14-1,.59A1.7,1.7,0,0,0,52,56.74c0,.24,0,.49,0,.74,0,.5,0,1,0,1.52-.05,1.26-.13,2.51-.2,3.54l-1.53-3.2-.78-1.64-.08-.15-.06-.09,0,0-.53-.71h0l-.06-.07,0-.05-.12-.12-4-3.57c1.41.3,3.23.71,4.92,1.16l.72.2a1.7,1.7,0,0,0,1.66-.43c.62-.62,3.36-3.1,7.16-6.28l0,0a2.26,2.26,0,0,0,.76-1.41V46s0-.1,0-.14,0-.07,0-.11h0A2.27,2.27,0,0,0,58.91,44L46.41,34l13.77,4.63.71.24,4.84,1.64a2.82,2.82,0,0,0,2.58-.4l.79-.58.15-.11.63-.45.14-.1q1.14-.81,2.12-1.45l0,0,.62-.41,0,0,.59-.38h0c.54-.34,1-.63,1.48-.89q1-.58,1.85-1l0,0C79,33.65,79.63,33.81,79.71,33.84ZM51.29,21.47a28.48,28.48,0,0,1,23,11.62c-1.23.68-2.67,1.57-4.37,2.73h0l-.91.63-.17.12-.79.56-.25.18-.89.65-.13.09a.23.23,0,0,1-.21,0l-1.47-.5-1.46-.5-8.92-3-8-2.68-.2-.05a1.7,1.7,0,0,0-1.37.31l-.72.54a2.24,2.24,0,0,0-.74,1l-.06.17,0,.07,0,.11v0s0,.09,0,.14a2.23,2.23,0,0,0,.51,1.73,2.26,2.26,0,0,0,.31.3L57,45.78c-2.12,1.78-3.93,3.36-5.22,4.51l-.22.2-.42.38-.42.38-.37.35c-1.82-.49-3.8-.94-5.31-1.26l-2.21-.45a1.68,1.68,0,0,0-.57,0h0l-.2,0-.08,0-.07,0a1.7,1.7,0,0,0-1,.91h0l0,0-.21.48a1.71,1.71,0,0,0-.13.51h0a1.7,1.7,0,0,0,0,.19s0,0,0,.07,0,.08,0,.12,0,.09,0,.14l0,.05a1.7,1.7,0,0,0,.51.85l4.78,4.25a54.22,54.22,0,0,1-13.8,7.8,17.14,17.14,0,0,1-4.14,1,28.52,28.52,0,0,1,23.32-45ZM21.17,64c-1.26-1.5-1.32-4-.23-7a30.94,30.94,0,0,0,3.78,9.26A6.74,6.74,0,0,1,21.17,64ZM51.29,78.53A28.48,28.48,0,0,1,29.8,68.76a21.64,21.64,0,0,0,3.18-.9A56.65,56.65,0,0,0,47.5,59.67l1.28,2.68,1.57,3.28a1.69,1.69,0,0,0,1.66,1h.09l.57-.07A1.73,1.73,0,0,0,54.15,65c.09-1,.39-4.58.44-7.71,1.1-.65,3.36-2.06,6.15-3.91l.12-.08L62,52.5l6.17,14.89a2.25,2.25,0,0,0,.14.28v0a2.24,2.24,0,0,0,.17.24l0,0,.19.2,0,0,.21.17,0,0,.24.13.05,0,.26.1h0l.29.06h0l.3,0h.21a2.24,2.24,0,0,0,1.15-.44l.73-.55.1-.08.06-.05,0,0a1.7,1.7,0,0,0,.45-.84v0a1.69,1.69,0,0,0,0-.18,1.72,1.72,0,0,0,0-.21l-.65-15V51c0-.56-.07-1.72-.11-2.46l-.15-3.09a.23.23,0,0,1,.09-.19l.89-.69c2.1-1.65,3.75-3.05,5-4.26A28.55,28.55,0,0,1,51.29,78.53Z"></path> 
</svg>