<?xml version="1.0" encoding="UTF-8" standalone="no"?>
<!-- Created with Inkscape (http://www.inkscape.org/) -->

<svg
   xmlns:dc="http://purl.org/dc/elements/1.1/"
   xmlns:cc="http://creativecommons.org/ns#"
   xmlns:rdf="http://www.w3.org/1999/02/22-rdf-syntax-ns#"
   xmlns:svg="http://www.w3.org/2000/svg"
   xmlns="http://www.w3.org/2000/svg"
   xmlns:sodipodi="http://sodipodi.sourceforge.net/DTD/sodipodi-0.dtd"
   xmlns:inkscape="http://www.inkscape.org/namespaces/inkscape"
   width="353.10342"
   height="124.89999"
   viewBox="0 0 93.425277 33.046454"
   version="1.1"
   id="svg11535"
   inkscape:version="0.92.0 r15299"
   sodipodi:docname="weebly.svg">
  <defs
     id="defs11529" />
  <sodipodi:namedview
     id="base"
     pagecolor="#ffffff"
     bordercolor="#666666"
     borderopacity="1.0"
     inkscape:pageopacity="0.0"
     inkscape:pageshadow="2"
     inkscape:zoom="2.2842274"
     inkscape:cx="175.5517"
     inkscape:cy="61.449997"
     inkscape:document-units="mm"
     inkscape:current-layer="layer1"
     showgrid="false"
     fit-margin-top="0"
     fit-margin-left="0"
     fit-margin-right="0"
     fit-margin-bottom="0"
     units="px"
     inkscape:window-width="1280"
     inkscape:window-height="744"
     inkscape:window-x="-4"
     inkscape:window-y="-4"
     inkscape:window-maximized="1" />
  <metadata
     id="metadata11532">
    <rdf:RDF>
      <cc:Work
         rdf:about="">
        <dc:format>image/svg+xml</dc:format>
        <dc:type
           rdf:resource="http://purl.org/dc/dcmitype/StillImage" />
        <dc:title></dc:title>
      </cc:Work>
    </rdf:RDF>
  </metadata>
  <g
     inkscape:label="Layer 1"
     inkscape:groupmode="layer"
     id="layer1"
     transform="translate(-55.605517,-332.37293)">
    <path
       id="path11537"
       d="m 103.23052,344.7554 c -1.7727,0 -2.98979,1.37583 -3.175,3.06916 h 6.37646 c -0.21166,-1.71979 -1.29646,-3.06916 -3.20146,-3.06916 z m 15.63688,0.37041 c -2.14313,0 -3.14854,1.98438 -3.14854,3.9423 0,1.93145 0.9525,4.15395 3.14854,4.15395 2.09021,0 3.12208,-2.16958 3.12208,-4.02166 -0.0529,-1.87854 -1.05833,-4.07459 -3.12208,-4.07459 z M 87.620104,344.7554 c -1.772708,0 -2.989792,1.37583 -3.175,3.06916 h 6.376458 c -0.238125,-1.71979 -1.322916,-3.06916 -3.201458,-3.06916 z m 56.779586,-5.63563 c -2.01083,0 -3.62479,1.13771 -4.36562,3.04271 l -0.50271,1.32292 -0.47625,-1.32292 c -0.68792,-1.87854 -2.35479,-3.06917 -4.36563,-3.06917 -0.26458,0 -0.50271,0.0265 -0.76729,0.0794 v -1.79916 c 0,-2.72521 -1.95792,-4.73604 -4.55083,-4.73604 -2.59292,0 -4.55084,2.03729 -4.55084,4.73604 v 3.4925 c -1.50812,-1.27 -3.3602,-1.93146 -5.37104,-1.93146 -0.44979,0 -0.89958,0.0265 -1.32291,0.10583 v -1.64041 c 0,-2.72521 -1.93146,-4.73604 -4.47146,-4.73604 -2.54,0 -4.47146,2.03729 -4.47146,4.73604 v 3.83646 c -1.71979,-1.48167 -3.83646,-2.27542 -6.13833,-2.27542 -2.72521,0 -5.238758,1.13771 -7.037924,3.20146 -0.291042,0.3175 -0.555625,0.66146 -0.79375,1.05833 -0.238125,-0.34395 -0.502709,-0.68791 -0.79375,-1.03187 -1.852084,-2.09021 -4.392084,-3.22792 -7.090834,-3.22792 -2.037291,0 -3.942291,0.635 -5.529791,1.82563 -0.79375,-1.13771 -2.116667,-1.82563 -3.730625,-1.82563 -2.06375,0 -3.81,1.40229 -4.365625,3.46604 -0.978959,-3.12208 -3.413125,-3.46604 -4.445,-3.46604 -1.031875,0 -3.466042,0.34396 -4.445,3.46604 -0.529167,-2.06375 -2.248959,-3.46604 -4.365625,-3.46604 -2.54,0 -4.577292,1.82563 -4.577292,4.15396 0,1.03188 0.238125,1.85208 0.555625,2.75167 l 3.466042,9.81604 c 1.164166,3.25437 3.518958,3.73062 4.841875,3.73062 2.037291,0 3.65125,-1.05833 4.497916,-2.91041 0.820209,1.87854 2.434167,2.93687 4.497917,2.93687 1.322917,0 3.677708,-0.47625 4.841875,-3.75708 l 0.396875,-1.13771 c 1.693333,3.01625 4.841875,4.89479 8.678333,4.89479 2.778125,0 6.455834,-1.19062 8.149167,-3.36021 1.799167,2.09021 4.497921,3.36021 7.620001,3.36021 2.11667,0 4.78896,-0.68791 6.6675,-2.01083 0.79375,1.13771 2.09021,1.82562 3.59834,1.82562 0.89958,0 1.69333,-0.21166 2.35479,-0.60854 1.00541,0.50271 2.11666,0.76729 3.28083,0.76729 2.27542,0 4.39208,-0.84666 6.00604,-2.46062 0.74084,1.50812 2.2225,2.46062 4.02167,2.46062 1.93146,0 3.51896,-1.16416 4.18042,-2.8575 0,0 -0.66146,3.67771 -0.66146,4.36563 0,2.40771 1.98437,4.23333 4.60375,4.23333 1.85208,0 3.43958,-1.19062 4.20687,-3.175 l 6.69396,-16.64229 c 0.26458,-0.60854 0.39688,-1.27 0.39688,-2.01083 0.0529,-2.48709 -2.24896,-4.20688 -4.36563,-4.20688 z m -64.690628,5.87375 -3.4925,9.8425 c -0.423333,1.19063 -1.137708,2.06375 -2.460625,2.06375 -1.243541,0 -1.984375,-0.68791 -2.354791,-1.87854 l -2.090209,-6.56167 h -0.02646 l -2.090208,6.56167 c -0.370417,1.19063 -1.11125,1.87854 -2.354792,1.87854 -1.349375,0 -2.037292,-0.89958 -2.460625,-2.06375 l -3.466042,-9.78958 c -0.291041,-0.82021 -0.423333,-1.34938 -0.423333,-1.93146 0,-0.92604 0.846667,-1.64042 2.037292,-1.64042 1.005416,0 1.693333,0.635 1.931458,1.61396 l 2.354792,7.80521 h 0.05292 l 2.38125,-7.62 c 0.3175,-1.11125 0.899584,-1.79917 2.06375,-1.79917 1.164167,0 1.74625,0.66146 2.06375,1.79917 l 2.38125,7.62 h 0.05292 l 2.354792,-7.80521 c 0.211666,-0.97896 0.9525,-1.61396 1.931458,-1.61396 1.190625,0 2.037292,0.71438 2.037292,1.98438 -0.02646,0.44979 -0.238125,0.89958 -0.423334,1.53458 z m 8.334375,8.46667 c 2.06375,0 3.466042,-1.64042 4.550834,-1.64042 0.846666,0 1.640416,0.84667 1.640416,1.71979 0,1.7198 -3.545416,3.38667 -6.535208,3.38667 -4.524375,0 -7.487708,-3.28083 -7.487708,-7.67292 0,-4.04812 2.963333,-7.72583 7.170208,-7.72583 4.339167,0 7.196667,3.94229 7.196667,7.3025 0,1.19063 -0.529167,1.79917 -1.74625,1.79917 h -8.546042 c 0.264583,1.905 1.905,2.83104 3.757083,2.83104 z m 20.531673,-2.88396 h -8.54605 c 0.26459,1.95792 1.90501,2.8575 3.78355,2.8575 2.06375,0 3.46604,-1.64042 4.55083,-1.64042 0.84667,0 1.64042,0.84667 1.64042,1.7198 0,1.71979 -3.54542,3.38666 -6.53521,3.38666 -4.524379,0 -7.487713,-3.28083 -7.487713,-7.67291 0,-4.04813 2.963334,-7.72584 7.170213,-7.72584 4.33917,0 7.19667,3.94229 7.19667,7.3025 -0.0265,1.19063 -0.58209,1.77271 -1.77271,1.77271 z m 10.795,6.35 c -1.37584,0 -2.91042,-0.60854 -3.65125,-1.82562 -0.23813,1.05833 -0.89959,1.66687 -1.98438,1.66687 -1.16416,0 -1.98437,-0.89958 -1.98437,-2.2225 v -17.11854 c 0,-1.34938 0.76729,-2.2225 1.95791,-2.2225 1.16417,0 1.95792,0.89958 1.95792,2.2225 v 5.45042 c 1.13771,-0.92605 2.43417,-1.4023 3.83646,-1.4023 4.28625,0 6.48229,4.02167 6.48229,7.9375 -0.0265,3.73063 -2.59292,7.51417 -6.61458,7.51417 z m 12.065,-2.24896 c 0,1.34938 -0.84667,2.2225 -2.01084,2.2225 -1.16416,0 -2.01083,-0.89958 -2.01083,-2.2225 v -17.30375 c 0,-1.34937 0.84667,-2.2225 2.01083,-2.2225 1.16417,0 2.01084,0.89959 2.01084,2.2225 z m 14.68437,-10.29229 -6.6675,16.69521 c -0.3175,0.82021 -0.9525,1.5875 -1.87854,1.5875 -1.37583,0 -2.09021,-0.84667 -2.09021,-1.71979 0,-0.37042 0.10584,-0.79375 0.23813,-1.16417 l 1.74625,-4.33917 -4.41854,-11.03312 c -0.10584,-0.29104 -0.18521,-0.60854 -0.18521,-1.03188 0,-1.00541 1.05833,-1.71979 1.87854,-1.71979 0.97896,0 1.66687,0.52917 1.98437,1.42875 l 2.75167,7.51417 2.96333,-7.51417 c 0.3175,-0.89958 1.03188,-1.42875 1.98438,-1.42875 0.82021,0 1.87854,0.71438 1.87854,1.71979 0.0265,0.39688 -0.0529,0.68792 -0.18521,1.00542 z"
       inkscape:connector-curvature="0"
       style="fill:#0099d6;stroke-width:0.26458332" />
  </g>
</svg>
