<?xml version="1.0" encoding="UTF-8" standalone="no"?><!DOCTYPE svg PUBLIC "-//W3C//DTD SVG 1.1//EN" "http://www.w3.org/Graphics/SVG/1.1/DTD/svg11.dtd"><svg width="100%" height="100%" viewBox="0 0 2501 505" version="1.1" xmlns="http://www.w3.org/2000/svg" xmlns:xlink="http://www.w3.org/1999/xlink" xml:space="preserve" xmlns:serif="http://www.serif.com/" style="fill-rule:evenodd;clip-rule:evenodd;stroke-linejoin:round;stroke-miterlimit:2;"><path d="M6.667,47.933c11.666,-27.917 40.833,-47.917 71.25,-47.917l689.166,0c20,-0.416 40,7.084 54.584,20.417c16.666,15 26.25,37.5 25.833,60l0,264.167c-0.417,39.583 -35,75.416 -74.583,76.25c-83.75,0.416 -167.5,-0 -251.25,-0c11.25,27.916 22.5,55.416 33.75,83.333c-50,-27.5 -99.167,-55.833 -149.584,-82.917c-110,-0.833 -220.416,0 -330.833,-0.416c-39.583,-1.25 -74.167,-36.667 -74.583,-76.25c-0.417,-86.25 -0,-172.5 -0.417,-258.334c0,-12.916 1.25,-26.25 6.667,-38.333" style="fill:#945c87;"/><path d="M343.333,54.183c12.5,-13.333 36.667,-9.167 46.25,6.25c5,7.917 5.417,18.75 1.25,27.083c-17.5,35 -25,73.75 -31.666,111.667c-7.917,49.583 -14.584,100 -12.084,150.417c0.834,12.916 -5.416,28.333 -19.166,31.666c-12.917,2.917 -25,-5.833 -33.334,-15c-37.5,-40.416 -58.75,-92.5 -74.166,-144.583c-15.417,30.417 -30.834,61.25 -45.834,91.667c-10.416,20.833 -21.666,42.083 -38.333,58.75c-7.083,7.083 -19.167,13.333 -28.333,6.25c-13.75,-12.084 -17.084,-31.25 -22.917,-47.5c-22.083,-76.25 -34.583,-155 -47.5,-233.334c-2.917,-12.916 2.5,-28.75 15.417,-33.75c10.416,-3.75 24.166,-4.583 32.916,3.334c6.25,5.416 7.917,14.166 9.167,22.083c9.167,60.833 19.583,121.25 34.583,180.833c25,-47.5 50,-95 75,-142.916c3.75,-7.084 8.334,-14.167 15,-18.334c9.167,-5.833 22.5,-5.416 30.417,2.917c6.25,6.667 8.75,16.25 10.417,25c7.5,39.167 17.5,78.333 32.083,115.417c6.25,-56.25 14.167,-113.334 34.583,-166.25c4.584,-11.25 8.75,-22.5 16.25,-31.667m141.25,30.417c27.084,-3.334 56.25,5.833 74.584,26.25c15,17.083 23.333,39.166 26.25,61.25c4.583,37.916 -2.5,77.916 -20.834,111.666c-10.416,19.167 -23.75,37.917 -42.916,49.167c-27.917,17.083 -65.417,15 -92.5,-2.917c-21.667,-15 -33.75,-40 -38.75,-65c-10,-57.083 7.083,-120.416 50,-160c12.5,-11.25 27.916,-18.333 44.166,-20.416m5.417,58.333c-12.917,4.167 -21.25,16.25 -28.333,27.083c-17.5,28.334 -22.5,65.417 -8.334,95.834c3.75,7.916 9.584,16.666 19.167,18.333c10,1.667 19.167,-4.167 26.25,-10.417c15.833,-13.75 23.75,-34.166 27.917,-54.583c4.166,-22.917 2.083,-48.333 -11.25,-68.333c-5.417,-7.5 -16.25,-10.834 -25.417,-7.917m210.833,-58.333c26.25,-3.334 55,5 73.334,24.583c16.666,17.917 25.416,41.667 27.916,65.833c3.75,36.667 -2.916,75 -20.416,107.5c-10.417,19.584 -24.167,38.75 -44.167,50.417c-26.667,16.25 -62.5,14.583 -89.167,-1.25c-17.916,-10.833 -30,-29.167 -37.083,-48.75c-18.75,-59.583 -2.917,-129.583 40.417,-174.583c14.166,-12.5 31.25,-21.667 49.166,-23.75m5.834,58.333c-14.167,5 -22.5,18.75 -30,30.833c-15.834,27.917 -20,64.167 -5.417,93.75c3.75,8.334 10.833,16.25 20.417,16.667c10.416,0.417 19.583,-6.25 27.083,-13.333c16.25,-15.834 23.333,-38.334 25.833,-60.417c2.5,-20.417 -0.833,-42.5 -12.916,-60c-5,-7.083 -15.834,-10.417 -25,-7.5" style="fill:#fff;"/><path d="M990,92.516c22.917,-5 47.083,-4.583 70,0.834l0,56.25c-18.75,-4.584 -40,-8.75 -57.917,-0c-21.666,10.833 -33.75,35.416 -33.75,58.75c-1.25,23.333 6.667,49.583 27.5,62.916c19.167,12.5 43.75,10 64.584,4.167l-0,56.25c-27.917,7.917 -58.334,7.083 -85.417,-2.917c-32.5,-12.083 -58.333,-40.416 -68.333,-73.75c-7.5,-25.416 -8.334,-52.5 -2.5,-78.333c9.583,-41.25 44.583,-75 85.833,-84.167m169.167,-2.916c28.333,-3.334 59.166,1.25 82.083,19.166c22.083,17.084 32.917,45 37.083,71.667c3.75,29.583 2.917,60.417 -6.25,88.75c-7.916,24.167 -24.166,46.667 -47.5,57.917c-23.75,11.25 -51.666,12.083 -77.083,6.25c-23.333,-5.417 -44.167,-20.834 -55.833,-42.084c-16.25,-28.333 -19.167,-62.083 -17.917,-94.166c1.25,-27.5 8.333,-56.25 26.667,-77.5c15,-17.084 36.666,-27.5 58.75,-30m8.75,53.75c-12.084,2.916 -19.167,15 -22.084,26.25c-5.833,22.5 -5,45.833 -3.333,68.75c1.667,12.5 2.917,25.833 11.667,35.833c11.666,13.333 35.416,11.667 45.833,-2.083c7.083,-8.75 9.167,-20 10.417,-30.834c2.5,-19.166 2.916,-38.75 -0,-57.916c-2.084,-11.667 -5.417,-23.75 -13.75,-32.5c-7.5,-7.5 -18.75,-10 -28.75,-7.5m1111.25,-50c24.166,-6.25 49.583,-5.417 73.75,-0.417c0.416,18.75 -0,37.5 0.416,56.667c-18.333,-4.584 -38.75,-8.75 -56.666,-0.834c-20.834,9.584 -33.334,31.667 -35,53.75c-2.5,25 4.166,53.334 26.25,67.917c19.166,13.333 44.166,10.833 65.416,4.583c-0.416,18.75 0.417,37.917 -0.416,56.667c-29.584,7.5 -62.084,6.667 -90,-5.417c-30.834,-13.333 -55,-41.666 -63.75,-74.166c-6.667,-25 -7.5,-51.667 -1.25,-77.084c9.166,-39.166 42.083,-71.25 81.25,-81.666m-963.75,1.666l80.416,0c9.584,43.334 18.75,87.084 27.084,130.834c7.5,-44.167 17.916,-87.5 28.333,-130.834l82.5,0c10.833,78.75 21.25,157.5 31.667,235.834l-62.917,-0c-5.833,-53.75 -10.833,-107.917 -17.083,-161.667c-12.917,53.75 -26.25,107.917 -39.167,161.667l-42.917,-0c-13.75,-53.75 -27.083,-107.917 -41.25,-162.084c-5.416,53.75 -10.833,107.917 -16.25,162.084l-60.416,-0c10,-78.334 20,-157.084 30,-235.834m288.333,0l80.417,0c9.583,43.334 18.75,87.084 27.083,130.834c7.917,-43.75 17.917,-87.5 28.333,-130.834l82.084,0c10.833,78.75 21.25,157.5 31.666,235.834l-62.916,-0c-5.834,-53.75 -11.25,-107.917 -17.084,-161.667c-12.916,53.75 -25.833,107.917 -39.166,161.667l-42.917,-0c-13.75,-54.167 -27.5,-107.917 -41.25,-162.084c-5.417,54.167 -10.833,107.917 -16.25,162.084l-60.417,-0c10.417,-78.334 20.417,-157.084 30.417,-235.834m267.917,0.834c42.916,-0.834 86.25,-0 129.166,-0.417l0,50.417c-21.666,0.416 -43.333,-0 -65,-0l0,43.333l56.25,0l0,48.75l-56.25,0l0,43.333l65.417,0l0,50.417l-129.167,0c-0.416,-78.75 0.417,-157.083 -0.416,-235.833m147.5,-0.834c27.083,0 53.75,-0.416 80.833,0c25.417,0.834 52.5,7.084 71.25,25c17.083,15.834 22.917,42.084 16.25,64.167c-5.417,17.917 -18.75,32.5 -35.417,40.417c16.667,35.416 33.75,70.833 50.834,106.25l-67.084,-0c-17.5,-36.25 -34.583,-72.5 -52.5,-108.334c-0.416,36.25 0,72.5 0,108.334l-63.75,-0c-0.416,-78.334 -0.416,-157.084 -0.416,-235.834m63.75,45.417l-0,56.25c11.666,-0.833 24.166,-1.25 33.75,-8.333c11.25,-8.334 10,-25.417 2.916,-36.25c-8.75,-10.417 -24.166,-10.417 -36.666,-11.667m288.333,-45l128.75,0l0,50.417l-65.417,-0l0,43.333l56.25,0l0,48.75l-56.25,0l0,43.333l65.834,0l-0,50.417l-129.167,0c-0.417,-79.167 0,-157.917 0,-236.25"/></svg>